<?xml version="1.0" encoding="utf-8" standalone="no"?>
<!DOCTYPE svg PUBLIC "-//W3C//DTD SVG 1.1//EN"
  "http://www.w3.org/Graphics/SVG/1.1/DTD/svg11.dtd">
<svg xmlns:xlink="http://www.w3.org/1999/xlink" width="1001.24375pt" height="570.065494pt" viewBox="0 0 1001.24375 570.065494" xmlns="http://www.w3.org/2000/svg" version="1.1">
 <metadata>
  <rdf:RDF xmlns:dc="http://purl.org/dc/elements/1.1/" xmlns:cc="http://creativecommons.org/ns#" xmlns:rdf="http://www.w3.org/1999/02/22-rdf-syntax-ns#">
   <cc:Work>
    <dc:type rdf:resource="http://purl.org/dc/dcmitype/StillImage"/>
    <dc:date>2025-05-22T10:17:24.290329</dc:date>
    <dc:format>image/svg+xml</dc:format>
    <dc:creator>
     <cc:Agent>
      <dc:title>Matplotlib v3.10.3, https://matplotlib.org/</dc:title>
     </cc:Agent>
    </dc:creator>
   </cc:Work>
  </rdf:RDF>
 </metadata>
 <defs>
  <style type="text/css">*{stroke-linejoin: round; stroke-linecap: butt}</style>
 </defs>
 <g id="figure_1">
  <g id="patch_1">
   <path d="M 0 570.065494 
L 1001.24375 570.065494 
L 1001.24375 0 
L 0 0 
z
" style="fill: #ffffff"/>
  </g>
  <g id="axes_1">
   <g id="patch_2">
    <path d="M 49.175 527.952057 
L 994.04375 527.952057 
L 994.04375 45.155157 
L 49.175 45.155157 
z
" style="fill: #ffffff"/>
   </g>
   <g id="matplotlib.axis_1">
    <g id="xtick_1">
     <g id="text_1">
      <!-- HC substrate -->
      <g style="fill: #262626" transform="translate(126.4375 541.472995) scale(0.14 -0.14)">
       <defs>
        <path id="ArialMT-48" d="M 513 0 
L 513 4581 
L 1119 4581 
L 1119 2700 
L 3500 2700 
L 3500 4581 
L 4106 4581 
L 4106 0 
L 3500 0 
L 3500 2159 
L 1119 2159 
L 1119 0 
L 513 0 
z
" transform="scale(0.015625)"/>
        <path id="ArialMT-43" d="M 3763 1606 
L 4369 1453 
Q 4178 706 3683 314 
Q 3188 -78 2472 -78 
Q 1731 -78 1267 223 
Q 803 525 561 1097 
Q 319 1669 319 2325 
Q 319 3041 592 3573 
Q 866 4106 1370 4382 
Q 1875 4659 2481 4659 
Q 3169 4659 3637 4309 
Q 4106 3959 4291 3325 
L 3694 3184 
Q 3534 3684 3231 3912 
Q 2928 4141 2469 4141 
Q 1941 4141 1586 3887 
Q 1231 3634 1087 3207 
Q 944 2781 944 2328 
Q 944 1744 1114 1308 
Q 1284 872 1643 656 
Q 2003 441 2422 441 
Q 2931 441 3284 734 
Q 3638 1028 3763 1606 
z
" transform="scale(0.015625)"/>
        <path id="ArialMT-20" transform="scale(0.015625)"/>
        <path id="ArialMT-73" d="M 197 991 
L 753 1078 
Q 800 744 1014 566 
Q 1228 388 1613 388 
Q 2000 388 2187 545 
Q 2375 703 2375 916 
Q 2375 1106 2209 1216 
Q 2094 1291 1634 1406 
Q 1016 1563 777 1677 
Q 538 1791 414 1992 
Q 291 2194 291 2438 
Q 291 2659 392 2848 
Q 494 3038 669 3163 
Q 800 3259 1026 3326 
Q 1253 3394 1513 3394 
Q 1903 3394 2198 3281 
Q 2494 3169 2634 2976 
Q 2775 2784 2828 2463 
L 2278 2388 
Q 2241 2644 2061 2787 
Q 1881 2931 1553 2931 
Q 1166 2931 1000 2803 
Q 834 2675 834 2503 
Q 834 2394 903 2306 
Q 972 2216 1119 2156 
Q 1203 2125 1616 2013 
Q 2213 1853 2448 1751 
Q 2684 1650 2818 1456 
Q 2953 1263 2953 975 
Q 2953 694 2789 445 
Q 2625 197 2315 61 
Q 2006 -75 1616 -75 
Q 969 -75 630 194 
Q 291 463 197 991 
z
" transform="scale(0.015625)"/>
        <path id="ArialMT-75" d="M 2597 0 
L 2597 488 
Q 2209 -75 1544 -75 
Q 1250 -75 995 37 
Q 741 150 617 320 
Q 494 491 444 738 
Q 409 903 409 1263 
L 409 3319 
L 972 3319 
L 972 1478 
Q 972 1038 1006 884 
Q 1059 663 1231 536 
Q 1403 409 1656 409 
Q 1909 409 2131 539 
Q 2353 669 2445 892 
Q 2538 1116 2538 1541 
L 2538 3319 
L 3100 3319 
L 3100 0 
L 2597 0 
z
" transform="scale(0.015625)"/>
        <path id="ArialMT-62" d="M 941 0 
L 419 0 
L 419 4581 
L 981 4581 
L 981 2947 
Q 1338 3394 1891 3394 
Q 2197 3394 2470 3270 
Q 2744 3147 2920 2923 
Q 3097 2700 3197 2384 
Q 3297 2069 3297 1709 
Q 3297 856 2875 390 
Q 2453 -75 1863 -75 
Q 1275 -75 941 416 
L 941 0 
z
M 934 1684 
Q 934 1088 1097 822 
Q 1363 388 1816 388 
Q 2184 388 2453 708 
Q 2722 1028 2722 1663 
Q 2722 2313 2464 2622 
Q 2206 2931 1841 2931 
Q 1472 2931 1203 2611 
Q 934 2291 934 1684 
z
" transform="scale(0.015625)"/>
        <path id="ArialMT-74" d="M 1650 503 
L 1731 6 
Q 1494 -44 1306 -44 
Q 1000 -44 831 53 
Q 663 150 594 308 
Q 525 466 525 972 
L 525 2881 
L 113 2881 
L 113 3319 
L 525 3319 
L 525 4141 
L 1084 4478 
L 1084 3319 
L 1650 3319 
L 1650 2881 
L 1084 2881 
L 1084 941 
Q 1084 700 1114 631 
Q 1144 563 1211 522 
Q 1278 481 1403 481 
Q 1497 481 1650 503 
z
" transform="scale(0.015625)"/>
        <path id="ArialMT-72" d="M 416 0 
L 416 3319 
L 922 3319 
L 922 2816 
Q 1116 3169 1280 3281 
Q 1444 3394 1641 3394 
Q 1925 3394 2219 3213 
L 2025 2691 
Q 1819 2813 1613 2813 
Q 1428 2813 1281 2702 
Q 1134 2591 1072 2394 
Q 978 2094 978 1738 
L 978 0 
L 416 0 
z
" transform="scale(0.015625)"/>
        <path id="ArialMT-61" d="M 2588 409 
Q 2275 144 1986 34 
Q 1697 -75 1366 -75 
Q 819 -75 525 192 
Q 231 459 231 875 
Q 231 1119 342 1320 
Q 453 1522 633 1644 
Q 813 1766 1038 1828 
Q 1203 1872 1538 1913 
Q 2219 1994 2541 2106 
Q 2544 2222 2544 2253 
Q 2544 2597 2384 2738 
Q 2169 2928 1744 2928 
Q 1347 2928 1158 2789 
Q 969 2650 878 2297 
L 328 2372 
Q 403 2725 575 2942 
Q 747 3159 1072 3276 
Q 1397 3394 1825 3394 
Q 2250 3394 2515 3294 
Q 2781 3194 2906 3042 
Q 3031 2891 3081 2659 
Q 3109 2516 3109 2141 
L 3109 1391 
Q 3109 606 3145 398 
Q 3181 191 3288 0 
L 2700 0 
Q 2613 175 2588 409 
z
M 2541 1666 
Q 2234 1541 1622 1453 
Q 1275 1403 1131 1340 
Q 988 1278 909 1158 
Q 831 1038 831 891 
Q 831 666 1001 516 
Q 1172 366 1500 366 
Q 1825 366 2078 508 
Q 2331 650 2450 897 
Q 2541 1088 2541 1459 
L 2541 1666 
z
" transform="scale(0.015625)"/>
        <path id="ArialMT-65" d="M 2694 1069 
L 3275 997 
Q 3138 488 2766 206 
Q 2394 -75 1816 -75 
Q 1088 -75 661 373 
Q 234 822 234 1631 
Q 234 2469 665 2931 
Q 1097 3394 1784 3394 
Q 2450 3394 2872 2941 
Q 3294 2488 3294 1666 
Q 3294 1616 3291 1516 
L 816 1516 
Q 847 969 1125 678 
Q 1403 388 1819 388 
Q 2128 388 2347 550 
Q 2566 713 2694 1069 
z
M 847 1978 
L 2700 1978 
Q 2663 2397 2488 2606 
Q 2219 2931 1791 2931 
Q 1403 2931 1139 2672 
Q 875 2413 847 1978 
z
" transform="scale(0.015625)"/>
       </defs>
       <use xlink:href="#ArialMT-48"/>
       <use xlink:href="#ArialMT-43" transform="translate(72.216797 0)"/>
       <use xlink:href="#ArialMT-20" transform="translate(144.433594 0)"/>
       <use xlink:href="#ArialMT-73" transform="translate(172.216797 0)"/>
       <use xlink:href="#ArialMT-75" transform="translate(222.216797 0)"/>
       <use xlink:href="#ArialMT-62" transform="translate(277.832031 0)"/>
       <use xlink:href="#ArialMT-73" transform="translate(333.447266 0)"/>
       <use xlink:href="#ArialMT-74" transform="translate(383.447266 0)"/>
       <use xlink:href="#ArialMT-72" transform="translate(411.230469 0)"/>
       <use xlink:href="#ArialMT-61" transform="translate(444.53125 0)"/>
       <use xlink:href="#ArialMT-74" transform="translate(500.146484 0)"/>
       <use xlink:href="#ArialMT-65" transform="translate(527.929688 0)"/>
      </g>
     </g>
    </g>
    <g id="xtick_2">
     <g id="text_2">
      <!-- LC substrate -->
      <g style="fill: #262626" transform="translate(363.817344 541.472995) scale(0.14 -0.14)">
       <defs>
        <path id="ArialMT-4c" d="M 469 0 
L 469 4581 
L 1075 4581 
L 1075 541 
L 3331 541 
L 3331 0 
L 469 0 
z
" transform="scale(0.015625)"/>
       </defs>
       <use xlink:href="#ArialMT-4c"/>
       <use xlink:href="#ArialMT-43" transform="translate(55.615234 0)"/>
       <use xlink:href="#ArialMT-20" transform="translate(127.832031 0)"/>
       <use xlink:href="#ArialMT-73" transform="translate(155.615234 0)"/>
       <use xlink:href="#ArialMT-75" transform="translate(205.615234 0)"/>
       <use xlink:href="#ArialMT-62" transform="translate(261.230469 0)"/>
       <use xlink:href="#ArialMT-73" transform="translate(316.845703 0)"/>
       <use xlink:href="#ArialMT-74" transform="translate(366.845703 0)"/>
       <use xlink:href="#ArialMT-72" transform="translate(394.628906 0)"/>
       <use xlink:href="#ArialMT-61" transform="translate(427.929688 0)"/>
       <use xlink:href="#ArialMT-74" transform="translate(483.544922 0)"/>
       <use xlink:href="#ArialMT-65" transform="translate(511.328125 0)"/>
      </g>
     </g>
    </g>
    <g id="xtick_3">
     <g id="text_3">
      <!-- LC non-substrate -->
      <g style="fill: #262626" transform="translate(586.025781 541.472995) scale(0.14 -0.14)">
       <defs>
        <path id="ArialMT-6e" d="M 422 0 
L 422 3319 
L 928 3319 
L 928 2847 
Q 1294 3394 1984 3394 
Q 2284 3394 2536 3286 
Q 2788 3178 2913 3003 
Q 3038 2828 3088 2588 
Q 3119 2431 3119 2041 
L 3119 0 
L 2556 0 
L 2556 2019 
Q 2556 2363 2490 2533 
Q 2425 2703 2258 2804 
Q 2091 2906 1866 2906 
Q 1506 2906 1245 2678 
Q 984 2450 984 1813 
L 984 0 
L 422 0 
z
" transform="scale(0.015625)"/>
        <path id="ArialMT-6f" d="M 213 1659 
Q 213 2581 725 3025 
Q 1153 3394 1769 3394 
Q 2453 3394 2887 2945 
Q 3322 2497 3322 1706 
Q 3322 1066 3130 698 
Q 2938 331 2570 128 
Q 2203 -75 1769 -75 
Q 1072 -75 642 372 
Q 213 819 213 1659 
z
M 791 1659 
Q 791 1022 1069 705 
Q 1347 388 1769 388 
Q 2188 388 2466 706 
Q 2744 1025 2744 1678 
Q 2744 2294 2464 2611 
Q 2184 2928 1769 2928 
Q 1347 2928 1069 2612 
Q 791 2297 791 1659 
z
" transform="scale(0.015625)"/>
        <path id="ArialMT-2d" d="M 203 1375 
L 203 1941 
L 1931 1941 
L 1931 1375 
L 203 1375 
z
" transform="scale(0.015625)"/>
       </defs>
       <use xlink:href="#ArialMT-4c"/>
       <use xlink:href="#ArialMT-43" transform="translate(55.615234 0)"/>
       <use xlink:href="#ArialMT-20" transform="translate(127.832031 0)"/>
       <use xlink:href="#ArialMT-6e" transform="translate(155.615234 0)"/>
       <use xlink:href="#ArialMT-6f" transform="translate(211.230469 0)"/>
       <use xlink:href="#ArialMT-6e" transform="translate(266.845703 0)"/>
       <use xlink:href="#ArialMT-2d" transform="translate(322.460938 0)"/>
       <use xlink:href="#ArialMT-73" transform="translate(355.761719 0)"/>
       <use xlink:href="#ArialMT-75" transform="translate(405.761719 0)"/>
       <use xlink:href="#ArialMT-62" transform="translate(461.376953 0)"/>
       <use xlink:href="#ArialMT-73" transform="translate(516.992188 0)"/>
       <use xlink:href="#ArialMT-74" transform="translate(566.992188 0)"/>
       <use xlink:href="#ArialMT-72" transform="translate(594.775391 0)"/>
       <use xlink:href="#ArialMT-61" transform="translate(628.076172 0)"/>
       <use xlink:href="#ArialMT-74" transform="translate(683.691406 0)"/>
       <use xlink:href="#ArialMT-65" transform="translate(711.474609 0)"/>
      </g>
     </g>
    </g>
    <g id="xtick_4">
     <g id="text_4">
      <!-- HC non-substrate -->
      <g style="fill: #262626" transform="translate(821.080313 541.472995) scale(0.14 -0.14)">
       <use xlink:href="#ArialMT-48"/>
       <use xlink:href="#ArialMT-43" transform="translate(72.216797 0)"/>
       <use xlink:href="#ArialMT-20" transform="translate(144.433594 0)"/>
       <use xlink:href="#ArialMT-6e" transform="translate(172.216797 0)"/>
       <use xlink:href="#ArialMT-6f" transform="translate(227.832031 0)"/>
       <use xlink:href="#ArialMT-6e" transform="translate(283.447266 0)"/>
       <use xlink:href="#ArialMT-2d" transform="translate(339.0625 0)"/>
       <use xlink:href="#ArialMT-73" transform="translate(372.363281 0)"/>
       <use xlink:href="#ArialMT-75" transform="translate(422.363281 0)"/>
       <use xlink:href="#ArialMT-62" transform="translate(477.978516 0)"/>
       <use xlink:href="#ArialMT-73" transform="translate(533.59375 0)"/>
       <use xlink:href="#ArialMT-74" transform="translate(583.59375 0)"/>
       <use xlink:href="#ArialMT-72" transform="translate(611.376953 0)"/>
       <use xlink:href="#ArialMT-61" transform="translate(644.677734 0)"/>
       <use xlink:href="#ArialMT-74" transform="translate(700.292969 0)"/>
       <use xlink:href="#ArialMT-65" transform="translate(728.076172 0)"/>
      </g>
     </g>
    </g>
    <g id="text_5">
     <!-- Prediction Class -->
     <g style="fill: #262626" transform="translate(458.925625 559.707995) scale(0.16 -0.16)">
      <defs>
       <path id="Arial-BoldMT-50" d="M 466 0 
L 466 4581 
L 1950 4581 
Q 2794 4581 3050 4513 
Q 3444 4409 3709 4064 
Q 3975 3719 3975 3172 
Q 3975 2750 3822 2462 
Q 3669 2175 3433 2011 
Q 3197 1847 2953 1794 
Q 2622 1728 1994 1728 
L 1391 1728 
L 1391 0 
L 466 0 
z
M 1391 3806 
L 1391 2506 
L 1897 2506 
Q 2444 2506 2628 2578 
Q 2813 2650 2917 2803 
Q 3022 2956 3022 3159 
Q 3022 3409 2875 3571 
Q 2728 3734 2503 3775 
Q 2338 3806 1838 3806 
L 1391 3806 
z
" transform="scale(0.015625)"/>
       <path id="Arial-BoldMT-72" d="M 1300 0 
L 422 0 
L 422 3319 
L 1238 3319 
L 1238 2847 
Q 1447 3181 1614 3287 
Q 1781 3394 1994 3394 
Q 2294 3394 2572 3228 
L 2300 2463 
Q 2078 2606 1888 2606 
Q 1703 2606 1575 2504 
Q 1447 2403 1373 2137 
Q 1300 1872 1300 1025 
L 1300 0 
z
" transform="scale(0.015625)"/>
       <path id="Arial-BoldMT-65" d="M 2381 1056 
L 3256 909 
Q 3088 428 2723 176 
Q 2359 -75 1813 -75 
Q 947 -75 531 491 
Q 203 944 203 1634 
Q 203 2459 634 2926 
Q 1066 3394 1725 3394 
Q 2466 3394 2894 2905 
Q 3322 2416 3303 1406 
L 1103 1406 
Q 1113 1016 1316 798 
Q 1519 581 1822 581 
Q 2028 581 2168 693 
Q 2309 806 2381 1056 
z
M 2431 1944 
Q 2422 2325 2234 2523 
Q 2047 2722 1778 2722 
Q 1491 2722 1303 2513 
Q 1116 2303 1119 1944 
L 2431 1944 
z
" transform="scale(0.015625)"/>
       <path id="Arial-BoldMT-64" d="M 3503 0 
L 2688 0 
L 2688 488 
Q 2484 203 2207 64 
Q 1931 -75 1650 -75 
Q 1078 -75 670 386 
Q 263 847 263 1672 
Q 263 2516 659 2955 
Q 1056 3394 1663 3394 
Q 2219 3394 2625 2931 
L 2625 4581 
L 3503 4581 
L 3503 0 
z
M 1159 1731 
Q 1159 1200 1306 963 
Q 1519 619 1900 619 
Q 2203 619 2415 876 
Q 2628 1134 2628 1647 
Q 2628 2219 2422 2470 
Q 2216 2722 1894 2722 
Q 1581 2722 1370 2473 
Q 1159 2225 1159 1731 
z
" transform="scale(0.015625)"/>
       <path id="Arial-BoldMT-69" d="M 459 3769 
L 459 4581 
L 1338 4581 
L 1338 3769 
L 459 3769 
z
M 459 0 
L 459 3319 
L 1338 3319 
L 1338 0 
L 459 0 
z
" transform="scale(0.015625)"/>
       <path id="Arial-BoldMT-63" d="M 3353 2338 
L 2488 2181 
Q 2444 2441 2289 2572 
Q 2134 2703 1888 2703 
Q 1559 2703 1364 2476 
Q 1169 2250 1169 1719 
Q 1169 1128 1367 884 
Q 1566 641 1900 641 
Q 2150 641 2309 783 
Q 2469 925 2534 1272 
L 3397 1125 
Q 3263 531 2881 228 
Q 2500 -75 1859 -75 
Q 1131 -75 698 384 
Q 266 844 266 1656 
Q 266 2478 700 2936 
Q 1134 3394 1875 3394 
Q 2481 3394 2839 3133 
Q 3197 2872 3353 2338 
z
" transform="scale(0.015625)"/>
       <path id="Arial-BoldMT-74" d="M 1981 3319 
L 1981 2619 
L 1381 2619 
L 1381 1281 
Q 1381 875 1398 808 
Q 1416 741 1477 697 
Q 1538 653 1625 653 
Q 1747 653 1978 738 
L 2053 56 
Q 1747 -75 1359 -75 
Q 1122 -75 931 4 
Q 741 84 652 211 
Q 563 338 528 553 
Q 500 706 500 1172 
L 500 2619 
L 97 2619 
L 97 3319 
L 500 3319 
L 500 3978 
L 1381 4491 
L 1381 3319 
L 1981 3319 
z
" transform="scale(0.015625)"/>
       <path id="Arial-BoldMT-6f" d="M 256 1706 
Q 256 2144 472 2553 
Q 688 2963 1083 3178 
Q 1478 3394 1966 3394 
Q 2719 3394 3200 2905 
Q 3681 2416 3681 1669 
Q 3681 916 3195 420 
Q 2709 -75 1972 -75 
Q 1516 -75 1102 131 
Q 688 338 472 736 
Q 256 1134 256 1706 
z
M 1156 1659 
Q 1156 1166 1390 903 
Q 1625 641 1969 641 
Q 2313 641 2545 903 
Q 2778 1166 2778 1666 
Q 2778 2153 2545 2415 
Q 2313 2678 1969 2678 
Q 1625 2678 1390 2415 
Q 1156 2153 1156 1659 
z
" transform="scale(0.015625)"/>
       <path id="Arial-BoldMT-6e" d="M 3478 0 
L 2600 0 
L 2600 1694 
Q 2600 2231 2544 2389 
Q 2488 2547 2361 2634 
Q 2234 2722 2056 2722 
Q 1828 2722 1647 2597 
Q 1466 2472 1398 2265 
Q 1331 2059 1331 1503 
L 1331 0 
L 453 0 
L 453 3319 
L 1269 3319 
L 1269 2831 
Q 1703 3394 2363 3394 
Q 2653 3394 2893 3289 
Q 3134 3184 3257 3021 
Q 3381 2859 3429 2653 
Q 3478 2447 3478 2063 
L 3478 0 
z
" transform="scale(0.015625)"/>
       <path id="Arial-BoldMT-20" transform="scale(0.015625)"/>
       <path id="Arial-BoldMT-43" d="M 3397 1684 
L 4294 1400 
Q 4088 650 3608 286 
Q 3128 -78 2391 -78 
Q 1478 -78 890 545 
Q 303 1169 303 2250 
Q 303 3394 893 4026 
Q 1484 4659 2447 4659 
Q 3288 4659 3813 4163 
Q 4125 3869 4281 3319 
L 3366 3100 
Q 3284 3456 3026 3662 
Q 2769 3869 2400 3869 
Q 1891 3869 1573 3503 
Q 1256 3138 1256 2319 
Q 1256 1450 1568 1081 
Q 1881 713 2381 713 
Q 2750 713 3015 947 
Q 3281 1181 3397 1684 
z
" transform="scale(0.015625)"/>
       <path id="Arial-BoldMT-6c" d="M 459 0 
L 459 4581 
L 1338 4581 
L 1338 0 
L 459 0 
z
" transform="scale(0.015625)"/>
       <path id="Arial-BoldMT-61" d="M 1116 2306 
L 319 2450 
Q 453 2931 781 3162 
Q 1109 3394 1756 3394 
Q 2344 3394 2631 3255 
Q 2919 3116 3036 2902 
Q 3153 2688 3153 2116 
L 3144 1091 
Q 3144 653 3186 445 
Q 3228 238 3344 0 
L 2475 0 
Q 2441 88 2391 259 
Q 2369 338 2359 363 
Q 2134 144 1878 34 
Q 1622 -75 1331 -75 
Q 819 -75 523 203 
Q 228 481 228 906 
Q 228 1188 362 1408 
Q 497 1628 739 1745 
Q 981 1863 1438 1950 
Q 2053 2066 2291 2166 
L 2291 2253 
Q 2291 2506 2166 2614 
Q 2041 2722 1694 2722 
Q 1459 2722 1328 2630 
Q 1197 2538 1116 2306 
z
M 2291 1594 
Q 2122 1538 1756 1459 
Q 1391 1381 1278 1306 
Q 1106 1184 1106 997 
Q 1106 813 1243 678 
Q 1381 544 1594 544 
Q 1831 544 2047 700 
Q 2206 819 2256 991 
Q 2291 1103 2291 1419 
L 2291 1594 
z
" transform="scale(0.015625)"/>
       <path id="Arial-BoldMT-73" d="M 150 947 
L 1031 1081 
Q 1088 825 1259 692 
Q 1431 559 1741 559 
Q 2081 559 2253 684 
Q 2369 772 2369 919 
Q 2369 1019 2306 1084 
Q 2241 1147 2013 1200 
Q 950 1434 666 1628 
Q 272 1897 272 2375 
Q 272 2806 612 3100 
Q 953 3394 1669 3394 
Q 2350 3394 2681 3172 
Q 3013 2950 3138 2516 
L 2309 2363 
Q 2256 2556 2107 2659 
Q 1959 2763 1684 2763 
Q 1338 2763 1188 2666 
Q 1088 2597 1088 2488 
Q 1088 2394 1175 2328 
Q 1294 2241 1995 2081 
Q 2697 1922 2975 1691 
Q 3250 1456 3250 1038 
Q 3250 581 2869 253 
Q 2488 -75 1741 -75 
Q 1063 -75 667 200 
Q 272 475 150 947 
z
" transform="scale(0.015625)"/>
      </defs>
      <use xlink:href="#Arial-BoldMT-50"/>
      <use xlink:href="#Arial-BoldMT-72" transform="translate(66.699219 0)"/>
      <use xlink:href="#Arial-BoldMT-65" transform="translate(105.615234 0)"/>
      <use xlink:href="#Arial-BoldMT-64" transform="translate(161.230469 0)"/>
      <use xlink:href="#Arial-BoldMT-69" transform="translate(222.314453 0)"/>
      <use xlink:href="#Arial-BoldMT-63" transform="translate(250.097656 0)"/>
      <use xlink:href="#Arial-BoldMT-74" transform="translate(305.712891 0)"/>
      <use xlink:href="#Arial-BoldMT-69" transform="translate(339.013672 0)"/>
      <use xlink:href="#Arial-BoldMT-6f" transform="translate(366.796875 0)"/>
      <use xlink:href="#Arial-BoldMT-6e" transform="translate(427.880859 0)"/>
      <use xlink:href="#Arial-BoldMT-20" transform="translate(488.964844 0)"/>
      <use xlink:href="#Arial-BoldMT-43" transform="translate(516.748047 0)"/>
      <use xlink:href="#Arial-BoldMT-6c" transform="translate(588.964844 0)"/>
      <use xlink:href="#Arial-BoldMT-61" transform="translate(616.748047 0)"/>
      <use xlink:href="#Arial-BoldMT-73" transform="translate(672.363281 0)"/>
      <use xlink:href="#Arial-BoldMT-73" transform="translate(727.978516 0)"/>
     </g>
    </g>
   </g>
   <g id="matplotlib.axis_2">
    <g id="ytick_1">
     <g id="text_6">
      <!-- 0.2 -->
      <g style="fill: #262626" transform="translate(26.215 481.296359) scale(0.14 -0.14)">
       <defs>
        <path id="ArialMT-30" d="M 266 2259 
Q 266 3072 433 3567 
Q 600 4063 929 4331 
Q 1259 4600 1759 4600 
Q 2128 4600 2406 4451 
Q 2684 4303 2865 4023 
Q 3047 3744 3150 3342 
Q 3253 2941 3253 2259 
Q 3253 1453 3087 958 
Q 2922 463 2592 192 
Q 2263 -78 1759 -78 
Q 1097 -78 719 397 
Q 266 969 266 2259 
z
M 844 2259 
Q 844 1131 1108 757 
Q 1372 384 1759 384 
Q 2147 384 2411 759 
Q 2675 1134 2675 2259 
Q 2675 3391 2411 3762 
Q 2147 4134 1753 4134 
Q 1366 4134 1134 3806 
Q 844 3388 844 2259 
z
" transform="scale(0.015625)"/>
        <path id="ArialMT-2e" d="M 581 0 
L 581 641 
L 1222 641 
L 1222 0 
L 581 0 
z
" transform="scale(0.015625)"/>
        <path id="ArialMT-32" d="M 3222 541 
L 3222 0 
L 194 0 
Q 188 203 259 391 
Q 375 700 629 1000 
Q 884 1300 1366 1694 
Q 2113 2306 2375 2664 
Q 2638 3022 2638 3341 
Q 2638 3675 2398 3904 
Q 2159 4134 1775 4134 
Q 1369 4134 1125 3890 
Q 881 3647 878 3216 
L 300 3275 
Q 359 3922 746 4261 
Q 1134 4600 1788 4600 
Q 2447 4600 2831 4234 
Q 3216 3869 3216 3328 
Q 3216 3053 3103 2787 
Q 2991 2522 2730 2228 
Q 2469 1934 1863 1422 
Q 1356 997 1212 845 
Q 1069 694 975 541 
L 3222 541 
z
" transform="scale(0.015625)"/>
       </defs>
       <use xlink:href="#ArialMT-30"/>
       <use xlink:href="#ArialMT-2e" transform="translate(55.615234 0)"/>
       <use xlink:href="#ArialMT-32" transform="translate(83.398438 0)"/>
      </g>
     </g>
    </g>
    <g id="ytick_2">
     <g id="text_7">
      <!-- 0.4 -->
      <g style="fill: #262626" transform="translate(26.215 376.431698) scale(0.14 -0.14)">
       <defs>
        <path id="ArialMT-34" d="M 2069 0 
L 2069 1097 
L 81 1097 
L 81 1613 
L 2172 4581 
L 2631 4581 
L 2631 1613 
L 3250 1613 
L 3250 1097 
L 2631 1097 
L 2631 0 
L 2069 0 
z
M 2069 1613 
L 2069 3678 
L 634 1613 
L 2069 1613 
z
" transform="scale(0.015625)"/>
       </defs>
       <use xlink:href="#ArialMT-30"/>
       <use xlink:href="#ArialMT-2e" transform="translate(55.615234 0)"/>
       <use xlink:href="#ArialMT-34" transform="translate(83.398438 0)"/>
      </g>
     </g>
    </g>
    <g id="ytick_3">
     <g id="text_8">
      <!-- 0.6 -->
      <g style="fill: #262626" transform="translate(26.215 271.567037) scale(0.14 -0.14)">
       <defs>
        <path id="ArialMT-36" d="M 3184 3459 
L 2625 3416 
Q 2550 3747 2413 3897 
Q 2184 4138 1850 4138 
Q 1581 4138 1378 3988 
Q 1113 3794 959 3422 
Q 806 3050 800 2363 
Q 1003 2672 1297 2822 
Q 1591 2972 1913 2972 
Q 2475 2972 2870 2558 
Q 3266 2144 3266 1488 
Q 3266 1056 3080 686 
Q 2894 316 2569 119 
Q 2244 -78 1831 -78 
Q 1128 -78 684 439 
Q 241 956 241 2144 
Q 241 3472 731 4075 
Q 1159 4600 1884 4600 
Q 2425 4600 2770 4297 
Q 3116 3994 3184 3459 
z
M 888 1484 
Q 888 1194 1011 928 
Q 1134 663 1356 523 
Q 1578 384 1822 384 
Q 2178 384 2434 671 
Q 2691 959 2691 1453 
Q 2691 1928 2437 2201 
Q 2184 2475 1800 2475 
Q 1419 2475 1153 2201 
Q 888 1928 888 1484 
z
" transform="scale(0.015625)"/>
       </defs>
       <use xlink:href="#ArialMT-30"/>
       <use xlink:href="#ArialMT-2e" transform="translate(55.615234 0)"/>
       <use xlink:href="#ArialMT-36" transform="translate(83.398438 0)"/>
      </g>
     </g>
    </g>
    <g id="ytick_4">
     <g id="text_9">
      <!-- 0.8 -->
      <g style="fill: #262626" transform="translate(26.215 166.702376) scale(0.14 -0.14)">
       <defs>
        <path id="ArialMT-38" d="M 1131 2484 
Q 781 2613 612 2850 
Q 444 3088 444 3419 
Q 444 3919 803 4259 
Q 1163 4600 1759 4600 
Q 2359 4600 2725 4251 
Q 3091 3903 3091 3403 
Q 3091 3084 2923 2848 
Q 2756 2613 2416 2484 
Q 2838 2347 3058 2040 
Q 3278 1734 3278 1309 
Q 3278 722 2862 322 
Q 2447 -78 1769 -78 
Q 1091 -78 675 323 
Q 259 725 259 1325 
Q 259 1772 486 2073 
Q 713 2375 1131 2484 
z
M 1019 3438 
Q 1019 3113 1228 2906 
Q 1438 2700 1772 2700 
Q 2097 2700 2305 2904 
Q 2513 3109 2513 3406 
Q 2513 3716 2298 3927 
Q 2084 4138 1766 4138 
Q 1444 4138 1231 3931 
Q 1019 3725 1019 3438 
z
M 838 1322 
Q 838 1081 952 856 
Q 1066 631 1291 507 
Q 1516 384 1775 384 
Q 2178 384 2440 643 
Q 2703 903 2703 1303 
Q 2703 1709 2433 1975 
Q 2163 2241 1756 2241 
Q 1359 2241 1098 1978 
Q 838 1716 838 1322 
z
" transform="scale(0.015625)"/>
       </defs>
       <use xlink:href="#ArialMT-30"/>
       <use xlink:href="#ArialMT-2e" transform="translate(55.615234 0)"/>
       <use xlink:href="#ArialMT-38" transform="translate(83.398438 0)"/>
      </g>
     </g>
    </g>
    <g id="ytick_5">
     <g id="text_10">
      <!-- 1.0 -->
      <g style="fill: #262626" transform="translate(26.215 61.837715) scale(0.14 -0.14)">
       <defs>
        <path id="ArialMT-31" d="M 2384 0 
L 1822 0 
L 1822 3584 
Q 1619 3391 1289 3197 
Q 959 3003 697 2906 
L 697 3450 
Q 1169 3672 1522 3987 
Q 1875 4303 2022 4600 
L 2384 4600 
L 2384 0 
z
" transform="scale(0.015625)"/>
       </defs>
       <use xlink:href="#ArialMT-31"/>
       <use xlink:href="#ArialMT-2e" transform="translate(55.615234 0)"/>
       <use xlink:href="#ArialMT-30" transform="translate(83.398438 0)"/>
      </g>
     </g>
    </g>
    <g id="text_11">
     <!-- Average Pathogenicity (Normalized) -->
     <g style="fill: #262626" transform="translate(18.8475 423.167357) rotate(-90) scale(0.16 -0.16)">
      <defs>
       <path id="Arial-BoldMT-41" d="M 4597 0 
L 3591 0 
L 3191 1041 
L 1359 1041 
L 981 0 
L 0 0 
L 1784 4581 
L 2763 4581 
L 4597 0 
z
M 2894 1813 
L 2263 3513 
L 1644 1813 
L 2894 1813 
z
" transform="scale(0.015625)"/>
       <path id="Arial-BoldMT-76" d="M 1372 0 
L 34 3319 
L 956 3319 
L 1581 1625 
L 1763 1059 
Q 1834 1275 1853 1344 
Q 1897 1484 1947 1625 
L 2578 3319 
L 3481 3319 
L 2163 0 
L 1372 0 
z
" transform="scale(0.015625)"/>
       <path id="Arial-BoldMT-67" d="M 378 -219 
L 1381 -341 
Q 1406 -516 1497 -581 
Q 1622 -675 1891 -675 
Q 2234 -675 2406 -572 
Q 2522 -503 2581 -350 
Q 2622 -241 2622 53 
L 2622 538 
Q 2228 0 1628 0 
Q 959 0 569 566 
Q 263 1013 263 1678 
Q 263 2513 664 2953 
Q 1066 3394 1663 3394 
Q 2278 3394 2678 2853 
L 2678 3319 
L 3500 3319 
L 3500 341 
Q 3500 -247 3403 -537 
Q 3306 -828 3131 -993 
Q 2956 -1159 2664 -1253 
Q 2372 -1347 1925 -1347 
Q 1081 -1347 728 -1058 
Q 375 -769 375 -325 
Q 375 -281 378 -219 
z
M 1163 1728 
Q 1163 1200 1367 954 
Q 1572 709 1872 709 
Q 2194 709 2416 961 
Q 2638 1213 2638 1706 
Q 2638 2222 2425 2472 
Q 2213 2722 1888 2722 
Q 1572 2722 1367 2476 
Q 1163 2231 1163 1728 
z
" transform="scale(0.015625)"/>
       <path id="Arial-BoldMT-68" d="M 1334 4581 
L 1334 2897 
Q 1759 3394 2350 3394 
Q 2653 3394 2897 3281 
Q 3141 3169 3264 2994 
Q 3388 2819 3433 2606 
Q 3478 2394 3478 1947 
L 3478 0 
L 2600 0 
L 2600 1753 
Q 2600 2275 2550 2415 
Q 2500 2556 2373 2639 
Q 2247 2722 2056 2722 
Q 1838 2722 1666 2615 
Q 1494 2509 1414 2295 
Q 1334 2081 1334 1663 
L 1334 0 
L 456 0 
L 456 4581 
L 1334 4581 
z
" transform="scale(0.015625)"/>
       <path id="Arial-BoldMT-79" d="M 44 3319 
L 978 3319 
L 1772 963 
L 2547 3319 
L 3456 3319 
L 2284 125 
L 2075 -453 
Q 1959 -744 1854 -897 
Q 1750 -1050 1614 -1145 
Q 1478 -1241 1279 -1294 
Q 1081 -1347 831 -1347 
Q 578 -1347 334 -1294 
L 256 -606 
Q 463 -647 628 -647 
Q 934 -647 1081 -467 
Q 1228 -288 1306 -9 
L 44 3319 
z
" transform="scale(0.015625)"/>
       <path id="Arial-BoldMT-28" d="M 1916 -1347 
L 1313 -1347 
Q 834 -625 584 153 
Q 334 931 334 1659 
Q 334 2563 644 3369 
Q 913 4069 1325 4659 
L 1925 4659 
Q 1497 3713 1336 3048 
Q 1175 2384 1175 1641 
Q 1175 1128 1270 590 
Q 1366 53 1531 -431 
Q 1641 -750 1916 -1347 
z
" transform="scale(0.015625)"/>
       <path id="Arial-BoldMT-4e" d="M 475 0 
L 475 4581 
L 1375 4581 
L 3250 1522 
L 3250 4581 
L 4109 4581 
L 4109 0 
L 3181 0 
L 1334 2988 
L 1334 0 
L 475 0 
z
" transform="scale(0.015625)"/>
       <path id="Arial-BoldMT-6d" d="M 394 3319 
L 1203 3319 
L 1203 2866 
Q 1638 3394 2238 3394 
Q 2556 3394 2790 3262 
Q 3025 3131 3175 2866 
Q 3394 3131 3647 3262 
Q 3900 3394 4188 3394 
Q 4553 3394 4806 3245 
Q 5059 3097 5184 2809 
Q 5275 2597 5275 2122 
L 5275 0 
L 4397 0 
L 4397 1897 
Q 4397 2391 4306 2534 
Q 4184 2722 3931 2722 
Q 3747 2722 3584 2609 
Q 3422 2497 3350 2280 
Q 3278 2063 3278 1594 
L 3278 0 
L 2400 0 
L 2400 1819 
Q 2400 2303 2353 2443 
Q 2306 2584 2207 2653 
Q 2109 2722 1941 2722 
Q 1738 2722 1575 2612 
Q 1413 2503 1342 2297 
Q 1272 2091 1272 1613 
L 1272 0 
L 394 0 
L 394 3319 
z
" transform="scale(0.015625)"/>
       <path id="Arial-BoldMT-7a" d="M 106 0 
L 106 684 
L 1350 2113 
Q 1656 2463 1803 2609 
Q 1650 2600 1400 2597 
L 228 2591 
L 228 3319 
L 2972 3319 
L 2972 2697 
L 1703 1234 
L 1256 750 
Q 1622 772 1709 772 
L 3069 772 
L 3069 0 
L 106 0 
z
" transform="scale(0.015625)"/>
       <path id="Arial-BoldMT-29" d="M 216 -1347 
Q 475 -791 581 -494 
Q 688 -197 778 190 
Q 869 578 912 926 
Q 956 1275 956 1641 
Q 956 2384 797 3048 
Q 638 3713 209 4659 
L 806 4659 
Q 1278 3988 1539 3234 
Q 1800 2481 1800 1706 
Q 1800 1053 1594 306 
Q 1359 -531 822 -1347 
L 216 -1347 
z
" transform="scale(0.015625)"/>
      </defs>
      <use xlink:href="#Arial-BoldMT-41"/>
      <use xlink:href="#Arial-BoldMT-76" transform="translate(68.466797 0)"/>
      <use xlink:href="#Arial-BoldMT-65" transform="translate(124.082031 0)"/>
      <use xlink:href="#Arial-BoldMT-72" transform="translate(179.697266 0)"/>
      <use xlink:href="#Arial-BoldMT-61" transform="translate(218.613281 0)"/>
      <use xlink:href="#Arial-BoldMT-67" transform="translate(274.228516 0)"/>
      <use xlink:href="#Arial-BoldMT-65" transform="translate(335.3125 0)"/>
      <use xlink:href="#Arial-BoldMT-20" transform="translate(390.927734 0)"/>
      <use xlink:href="#Arial-BoldMT-50" transform="translate(418.710938 0)"/>
      <use xlink:href="#Arial-BoldMT-61" transform="translate(485.410156 0)"/>
      <use xlink:href="#Arial-BoldMT-74" transform="translate(541.025391 0)"/>
      <use xlink:href="#Arial-BoldMT-68" transform="translate(574.326172 0)"/>
      <use xlink:href="#Arial-BoldMT-6f" transform="translate(635.410156 0)"/>
      <use xlink:href="#Arial-BoldMT-67" transform="translate(696.494141 0)"/>
      <use xlink:href="#Arial-BoldMT-65" transform="translate(757.578125 0)"/>
      <use xlink:href="#Arial-BoldMT-6e" transform="translate(813.193359 0)"/>
      <use xlink:href="#Arial-BoldMT-69" transform="translate(874.277344 0)"/>
      <use xlink:href="#Arial-BoldMT-63" transform="translate(902.060547 0)"/>
      <use xlink:href="#Arial-BoldMT-69" transform="translate(957.675781 0)"/>
      <use xlink:href="#Arial-BoldMT-74" transform="translate(985.458984 0)"/>
      <use xlink:href="#Arial-BoldMT-79" transform="translate(1018.759766 0)"/>
      <use xlink:href="#Arial-BoldMT-20" transform="translate(1074.375 0)"/>
      <use xlink:href="#Arial-BoldMT-28" transform="translate(1102.158203 0)"/>
      <use xlink:href="#Arial-BoldMT-4e" transform="translate(1135.458984 0)"/>
      <use xlink:href="#Arial-BoldMT-6f" transform="translate(1207.675781 0)"/>
      <use xlink:href="#Arial-BoldMT-72" transform="translate(1268.759766 0)"/>
      <use xlink:href="#Arial-BoldMT-6d" transform="translate(1307.675781 0)"/>
      <use xlink:href="#Arial-BoldMT-61" transform="translate(1396.591797 0)"/>
      <use xlink:href="#Arial-BoldMT-6c" transform="translate(1452.207031 0)"/>
      <use xlink:href="#Arial-BoldMT-69" transform="translate(1479.990234 0)"/>
      <use xlink:href="#Arial-BoldMT-7a" transform="translate(1507.773438 0)"/>
      <use xlink:href="#Arial-BoldMT-65" transform="translate(1557.773438 0)"/>
      <use xlink:href="#Arial-BoldMT-64" transform="translate(1613.388672 0)"/>
      <use xlink:href="#Arial-BoldMT-29" transform="translate(1674.472656 0)"/>
     </g>
    </g>
   </g>
   <g id="patch_3">
    <path d="M 72.796719 389.316208 
L 261.770469 389.316208 
L 261.770469 230.577202 
L 72.796719 230.577202 
L 72.796719 389.316208 
z
" clip-path="url(#pe3fb900d5f)" style="fill: #367182; stroke: #353535; stroke-linejoin: miter"/>
   </g>
   <g id="line2d_1">
    <path d="M 167.283594 389.316208 
L 167.283594 457.135546 
" clip-path="url(#pe3fb900d5f)" style="fill: none; stroke: #353535"/>
   </g>
   <g id="line2d_2">
    <path d="M 167.283594 230.577202 
L 167.283594 67.100471 
" clip-path="url(#pe3fb900d5f)" style="fill: none; stroke: #353535"/>
   </g>
   <g id="line2d_3">
    <path d="M 120.040156 457.135546 
L 214.527031 457.135546 
" clip-path="url(#pe3fb900d5f)" style="fill: none; stroke: #353535; stroke-linecap: round"/>
   </g>
   <g id="line2d_4">
    <path d="M 120.040156 67.100471 
L 214.527031 67.100471 
" clip-path="url(#pe3fb900d5f)" style="fill: none; stroke: #353535; stroke-linecap: round"/>
   </g>
   <g id="line2d_5"/>
   <g id="patch_4">
    <path d="M 309.013906 391.3844 
L 497.987656 391.3844 
L 497.987656 225.208282 
L 309.013906 225.208282 
L 309.013906 391.3844 
z
" clip-path="url(#pe3fb900d5f)" style="fill: #2f837f; stroke: #353535; stroke-linejoin: miter"/>
   </g>
   <g id="line2d_6">
    <path d="M 403.500781 391.3844 
L 403.500781 499.913304 
" clip-path="url(#pe3fb900d5f)" style="fill: none; stroke: #353535"/>
   </g>
   <g id="line2d_7">
    <path d="M 403.500781 225.208282 
L 403.500781 70.018618 
" clip-path="url(#pe3fb900d5f)" style="fill: none; stroke: #353535"/>
   </g>
   <g id="line2d_8">
    <path d="M 356.257344 499.913304 
L 450.744219 499.913304 
" clip-path="url(#pe3fb900d5f)" style="fill: none; stroke: #353535; stroke-linecap: round"/>
   </g>
   <g id="line2d_9">
    <path d="M 356.257344 70.018618 
L 450.744219 70.018618 
" clip-path="url(#pe3fb900d5f)" style="fill: none; stroke: #353535; stroke-linecap: round"/>
   </g>
   <g id="line2d_10"/>
   <g id="patch_5">
    <path d="M 545.231094 376.450218 
L 734.204844 376.450218 
L 734.204844 226.544177 
L 545.231094 226.544177 
L 545.231094 376.450218 
z
" clip-path="url(#pe3fb900d5f)" style="fill: #33977c; stroke: #353535; stroke-linejoin: miter"/>
   </g>
   <g id="line2d_11">
    <path d="M 639.717969 376.450218 
L 639.717969 506.006743 
" clip-path="url(#pe3fb900d5f)" style="fill: none; stroke: #353535"/>
   </g>
   <g id="line2d_12">
    <path d="M 639.717969 226.544177 
L 639.717969 77.686784 
" clip-path="url(#pe3fb900d5f)" style="fill: none; stroke: #353535"/>
   </g>
   <g id="line2d_13">
    <path d="M 592.474531 506.006743 
L 686.961406 506.006743 
" clip-path="url(#pe3fb900d5f)" style="fill: none; stroke: #353535; stroke-linecap: round"/>
   </g>
   <g id="line2d_14">
    <path d="M 592.474531 77.686784 
L 686.961406 77.686784 
" clip-path="url(#pe3fb900d5f)" style="fill: none; stroke: #353535; stroke-linecap: round"/>
   </g>
   <g id="line2d_15"/>
   <g id="patch_6">
    <path d="M 781.448281 369.86281 
L 970.422031 369.86281 
L 970.422031 206.964841 
L 781.448281 206.964841 
L 781.448281 369.86281 
z
" clip-path="url(#pe3fb900d5f)" style="fill: #53b075; stroke: #353535; stroke-linejoin: miter"/>
   </g>
   <g id="line2d_16">
    <path d="M 875.935156 369.86281 
L 875.935156 465.246251 
" clip-path="url(#pe3fb900d5f)" style="fill: none; stroke: #353535"/>
   </g>
   <g id="line2d_17">
    <path d="M 875.935156 206.964841 
L 875.935156 78.367652 
" clip-path="url(#pe3fb900d5f)" style="fill: none; stroke: #353535"/>
   </g>
   <g id="line2d_18">
    <path d="M 828.691719 465.246251 
L 923.178594 465.246251 
" clip-path="url(#pe3fb900d5f)" style="fill: none; stroke: #353535; stroke-linecap: round"/>
   </g>
   <g id="line2d_19">
    <path d="M 828.691719 78.367652 
L 923.178594 78.367652 
" clip-path="url(#pe3fb900d5f)" style="fill: none; stroke: #353535; stroke-linecap: round"/>
   </g>
   <g id="line2d_20"/>
   <g id="line2d_21">
    <path d="M 72.796719 322.580137 
L 261.770469 322.580137 
" clip-path="url(#pe3fb900d5f)" style="fill: none; stroke: #353535"/>
   </g>
   <g id="line2d_22">
    <defs>
     <path id="mc8cfc26b5e" d="M -5 0 
L 5 0 
M 0 5 
L 0 -5 
" style="stroke: #ffffff"/>
    </defs>
    <g clip-path="url(#pe3fb900d5f)">
     <use xlink:href="#mc8cfc26b5e" x="167.283594" y="304.2703" style="fill: #2ca02c; stroke: #ffffff"/>
    </g>
   </g>
   <g id="line2d_23">
    <path d="M 309.013906 316.541137 
L 497.987656 316.541137 
" clip-path="url(#pe3fb900d5f)" style="fill: none; stroke: #353535"/>
   </g>
   <g id="line2d_24">
    <g clip-path="url(#pe3fb900d5f)">
     <use xlink:href="#mc8cfc26b5e" x="403.500781" y="304.628319" style="fill: #2ca02c; stroke: #ffffff"/>
    </g>
   </g>
   <g id="line2d_25">
    <path d="M 545.231094 311.540748 
L 734.204844 311.540748 
" clip-path="url(#pe3fb900d5f)" style="fill: none; stroke: #353535"/>
   </g>
   <g id="line2d_26">
    <g clip-path="url(#pe3fb900d5f)">
     <use xlink:href="#mc8cfc26b5e" x="639.717969" y="300.828197" style="fill: #2ca02c; stroke: #ffffff"/>
    </g>
   </g>
   <g id="line2d_27">
    <path d="M 781.448281 288.733186 
L 970.422031 288.733186 
" clip-path="url(#pe3fb900d5f)" style="fill: none; stroke: #353535"/>
   </g>
   <g id="line2d_28">
    <g clip-path="url(#pe3fb900d5f)">
     <use xlink:href="#mc8cfc26b5e" x="875.935156" y="288.376019" style="fill: #2ca02c; stroke: #ffffff"/>
    </g>
   </g>
   <g id="patch_7">
    <path d="M 49.175 527.952057 
L 49.175 45.155157 
" style="fill: none; stroke: #cccccc; stroke-width: 1.25; stroke-linejoin: miter; stroke-linecap: square"/>
   </g>
   <g id="patch_8">
    <path d="M 994.04375 527.952057 
L 994.04375 45.155157 
" style="fill: none; stroke: #cccccc; stroke-width: 1.25; stroke-linejoin: miter; stroke-linecap: square"/>
   </g>
   <g id="patch_9">
    <path d="M 49.175 527.952057 
L 994.04375 527.952057 
" style="fill: none; stroke: #cccccc; stroke-width: 1.25; stroke-linejoin: miter; stroke-linecap: square"/>
   </g>
   <g id="patch_10">
    <path d="M 49.175 45.155157 
L 994.04375 45.155157 
" style="fill: none; stroke: #cccccc; stroke-width: 1.25; stroke-linejoin: miter; stroke-linecap: square"/>
   </g>
   <g id="text_12">
    <path d="M 151.656094 278.006635 
Q 153.321094 278.006635 154.258594 279.194135 
Q 155.376094 280.599135 155.376094 283.859135 
Q 155.376094 287.109135 154.251094 288.529135 
Q 153.321094 289.701635 151.656094 289.701635 
Q 149.986094 289.701635 148.961094 288.416635 
Q 147.938594 287.131635 147.938594 283.834135 
Q 147.938594 280.599135 149.063594 279.179135 
Q 149.993594 278.006635 151.656094 278.006635 
z
M 151.656094 279.826635 
Q 151.258594 279.826635 150.946094 280.081635 
Q 150.633594 280.334135 150.461094 280.991635 
Q 150.236094 281.841635 150.236094 283.859135 
Q 150.236094 285.874135 150.438594 286.629135 
Q 150.641094 287.381635 150.948594 287.631635 
Q 151.258594 287.881635 151.656094 287.881635 
Q 152.056094 287.881635 152.368594 287.629135 
Q 152.681094 287.374135 152.851094 286.716635 
Q 153.078594 285.874135 153.078594 283.859135 
Q 153.078594 281.841635 152.876094 281.089135 
Q 152.673594 280.334135 152.363594 280.081635 
Q 152.056094 279.826635 151.656094 279.826635 
z
M 157.312031 289.506635 
L 157.312031 287.311635 
L 159.509531 287.311635 
L 159.509531 289.506635 
L 157.312031 289.506635 
z
M 161.319844 286.561635 
L 163.507344 286.334135 
Q 163.602344 287.076635 164.062344 287.511635 
Q 164.524844 287.944135 165.124844 287.944135 
Q 165.812344 287.944135 166.289844 287.386635 
Q 166.767344 286.826635 166.767344 285.701635 
Q 166.767344 284.646635 166.292344 284.119135 
Q 165.819844 283.591635 165.062344 283.591635 
Q 164.117344 283.591635 163.367344 284.429135 
L 161.587344 284.171635 
L 162.712344 278.209135 
L 168.517344 278.209135 
L 168.517344 280.264135 
L 164.374844 280.264135 
L 164.032344 282.209135 
Q 164.767344 281.841635 165.532344 281.841635 
Q 166.992344 281.841635 168.007344 282.904135 
Q 169.024844 283.966635 169.024844 285.661635 
Q 169.024844 287.076635 168.204844 288.186635 
Q 167.087344 289.701635 165.102344 289.701635 
Q 163.517344 289.701635 162.517344 288.851635 
Q 161.517344 287.999135 161.319844 286.561635 
z
M 177.603281 287.466635 
L 177.603281 289.506635 
L 169.905781 289.506635 
Q 170.030781 288.349135 170.655781 287.314135 
Q 171.280781 286.279135 173.125781 284.569135 
Q 174.610781 283.186635 174.945781 282.694135 
Q 175.398281 282.014135 175.398281 281.349135 
Q 175.398281 280.616635 175.003281 280.221635 
Q 174.610781 279.826635 173.915781 279.826635 
Q 173.228281 279.826635 172.820781 280.241635 
Q 172.415781 280.654135 172.353281 281.616635 
L 170.165781 281.396635 
Q 170.360781 279.584135 171.390781 278.796635 
Q 172.423281 278.006635 173.968281 278.006635 
Q 175.665781 278.006635 176.633281 278.921635 
Q 177.603281 279.834135 177.603281 281.194135 
Q 177.603281 281.966635 177.325781 282.666635 
Q 177.048281 283.366635 176.445781 284.131635 
Q 176.048281 284.639135 175.008281 285.594135 
Q 173.968281 286.546635 173.690781 286.859135 
Q 173.415781 287.171635 173.243281 287.466635 
L 177.603281 287.466635 
z
M 180.969219 283.326635 
Q 180.116719 282.966635 179.729219 282.339135 
Q 179.344219 281.709135 179.344219 280.959135 
Q 179.344219 279.679135 180.239219 278.844135 
Q 181.134219 278.006635 182.781719 278.006635 
Q 184.414219 278.006635 185.316719 278.844135 
Q 186.219219 279.679135 186.219219 280.959135 
Q 186.219219 281.756635 185.804219 282.379135 
Q 185.391719 282.999135 184.641719 283.326635 
Q 185.594219 283.709135 186.089219 284.444135 
Q 186.586719 285.179135 186.586719 286.139135 
Q 186.586719 287.724135 185.574219 288.716635 
Q 184.564219 289.709135 182.884219 289.709135 
Q 181.321719 289.709135 180.281719 288.889135 
Q 179.054219 287.921635 179.054219 286.234135 
Q 179.054219 285.304135 179.514219 284.526635 
Q 179.976719 283.749135 180.969219 283.326635 
z
M 181.421719 281.116635 
Q 181.421719 281.771635 181.791719 282.139135 
Q 182.164219 282.506635 182.781719 282.506635 
Q 183.406719 282.506635 183.781719 282.136635 
Q 184.156719 281.764135 184.156719 281.109135 
Q 184.156719 280.491635 183.784219 280.121635 
Q 183.414219 279.749135 182.804219 279.749135 
Q 182.171719 279.749135 181.796719 280.124135 
Q 181.421719 280.499135 181.421719 281.116635 
z
M 181.219219 286.021635 
Q 181.219219 286.929135 181.684219 287.436635 
Q 182.149219 287.944135 182.844219 287.944135 
Q 183.524219 287.944135 183.969219 287.456635 
Q 184.414219 286.966635 184.414219 286.046635 
Q 184.414219 285.241635 183.961719 284.754135 
Q 183.509219 284.264135 182.814219 284.264135 
Q 182.009219 284.264135 181.614219 284.819135 
Q 181.219219 285.374135 181.219219 286.021635 
z
" style="fill: #ffffff; stroke: #000000"/>
    <path d="M 151.656094 278.006635 
Q 153.321094 278.006635 154.258594 279.194135 
Q 155.376094 280.599135 155.376094 283.859135 
Q 155.376094 287.109135 154.251094 288.529135 
Q 153.321094 289.701635 151.656094 289.701635 
Q 149.986094 289.701635 148.961094 288.416635 
Q 147.938594 287.131635 147.938594 283.834135 
Q 147.938594 280.599135 149.063594 279.179135 
Q 149.993594 278.006635 151.656094 278.006635 
z
M 151.656094 279.826635 
Q 151.258594 279.826635 150.946094 280.081635 
Q 150.633594 280.334135 150.461094 280.991635 
Q 150.236094 281.841635 150.236094 283.859135 
Q 150.236094 285.874135 150.438594 286.629135 
Q 150.641094 287.381635 150.948594 287.631635 
Q 151.258594 287.881635 151.656094 287.881635 
Q 152.056094 287.881635 152.368594 287.629135 
Q 152.681094 287.374135 152.851094 286.716635 
Q 153.078594 285.874135 153.078594 283.859135 
Q 153.078594 281.841635 152.876094 281.089135 
Q 152.673594 280.334135 152.363594 280.081635 
Q 152.056094 279.826635 151.656094 279.826635 
z
M 157.312031 289.506635 
L 157.312031 287.311635 
L 159.509531 287.311635 
L 159.509531 289.506635 
L 157.312031 289.506635 
z
M 161.319844 286.561635 
L 163.507344 286.334135 
Q 163.602344 287.076635 164.062344 287.511635 
Q 164.524844 287.944135 165.124844 287.944135 
Q 165.812344 287.944135 166.289844 287.386635 
Q 166.767344 286.826635 166.767344 285.701635 
Q 166.767344 284.646635 166.292344 284.119135 
Q 165.819844 283.591635 165.062344 283.591635 
Q 164.117344 283.591635 163.367344 284.429135 
L 161.587344 284.171635 
L 162.712344 278.209135 
L 168.517344 278.209135 
L 168.517344 280.264135 
L 164.374844 280.264135 
L 164.032344 282.209135 
Q 164.767344 281.841635 165.532344 281.841635 
Q 166.992344 281.841635 168.007344 282.904135 
Q 169.024844 283.966635 169.024844 285.661635 
Q 169.024844 287.076635 168.204844 288.186635 
Q 167.087344 289.701635 165.102344 289.701635 
Q 163.517344 289.701635 162.517344 288.851635 
Q 161.517344 287.999135 161.319844 286.561635 
z
M 177.603281 287.466635 
L 177.603281 289.506635 
L 169.905781 289.506635 
Q 170.030781 288.349135 170.655781 287.314135 
Q 171.280781 286.279135 173.125781 284.569135 
Q 174.610781 283.186635 174.945781 282.694135 
Q 175.398281 282.014135 175.398281 281.349135 
Q 175.398281 280.616635 175.003281 280.221635 
Q 174.610781 279.826635 173.915781 279.826635 
Q 173.228281 279.826635 172.820781 280.241635 
Q 172.415781 280.654135 172.353281 281.616635 
L 170.165781 281.396635 
Q 170.360781 279.584135 171.390781 278.796635 
Q 172.423281 278.006635 173.968281 278.006635 
Q 175.665781 278.006635 176.633281 278.921635 
Q 177.603281 279.834135 177.603281 281.194135 
Q 177.603281 281.966635 177.325781 282.666635 
Q 177.048281 283.366635 176.445781 284.131635 
Q 176.048281 284.639135 175.008281 285.594135 
Q 173.968281 286.546635 173.690781 286.859135 
Q 173.415781 287.171635 173.243281 287.466635 
L 177.603281 287.466635 
z
M 180.969219 283.326635 
Q 180.116719 282.966635 179.729219 282.339135 
Q 179.344219 281.709135 179.344219 280.959135 
Q 179.344219 279.679135 180.239219 278.844135 
Q 181.134219 278.006635 182.781719 278.006635 
Q 184.414219 278.006635 185.316719 278.844135 
Q 186.219219 279.679135 186.219219 280.959135 
Q 186.219219 281.756635 185.804219 282.379135 
Q 185.391719 282.999135 184.641719 283.326635 
Q 185.594219 283.709135 186.089219 284.444135 
Q 186.586719 285.179135 186.586719 286.139135 
Q 186.586719 287.724135 185.574219 288.716635 
Q 184.564219 289.709135 182.884219 289.709135 
Q 181.321719 289.709135 180.281719 288.889135 
Q 179.054219 287.921635 179.054219 286.234135 
Q 179.054219 285.304135 179.514219 284.526635 
Q 179.976719 283.749135 180.969219 283.326635 
z
M 181.421719 281.116635 
Q 181.421719 281.771635 181.791719 282.139135 
Q 182.164219 282.506635 182.781719 282.506635 
Q 183.406719 282.506635 183.781719 282.136635 
Q 184.156719 281.764135 184.156719 281.109135 
Q 184.156719 280.491635 183.784219 280.121635 
Q 183.414219 279.749135 182.804219 279.749135 
Q 182.171719 279.749135 181.796719 280.124135 
Q 181.421719 280.499135 181.421719 281.116635 
z
M 181.219219 286.021635 
Q 181.219219 286.929135 181.684219 287.436635 
Q 182.149219 287.944135 182.844219 287.944135 
Q 183.524219 287.944135 183.969219 287.456635 
Q 184.414219 286.966635 184.414219 286.046635 
Q 184.414219 285.241635 183.961719 284.754135 
Q 183.509219 284.264135 182.814219 284.264135 
Q 182.009219 284.264135 181.614219 284.819135 
Q 181.219219 285.374135 181.219219 286.021635 
z
" style="fill: #ffffff"/>
   </g>
   <g id="text_13">
    <path d="M 387.873281 278.364653 
Q 389.538281 278.364653 390.475781 279.552153 
Q 391.593281 280.957153 391.593281 284.217153 
Q 391.593281 287.467153 390.468281 288.887153 
Q 389.538281 290.059653 387.873281 290.059653 
Q 386.203281 290.059653 385.178281 288.774653 
Q 384.155781 287.489653 384.155781 284.192153 
Q 384.155781 280.957153 385.280781 279.537153 
Q 386.210781 278.364653 387.873281 278.364653 
z
M 387.873281 280.184653 
Q 387.475781 280.184653 387.163281 280.439653 
Q 386.850781 280.692153 386.678281 281.349653 
Q 386.453281 282.199653 386.453281 284.217153 
Q 386.453281 286.232153 386.655781 286.987153 
Q 386.858281 287.739653 387.165781 287.989653 
Q 387.475781 288.239653 387.873281 288.239653 
Q 388.273281 288.239653 388.585781 287.987153 
Q 388.898281 287.732153 389.068281 287.074653 
Q 389.295781 286.232153 389.295781 284.217153 
Q 389.295781 282.199653 389.093281 281.447153 
Q 388.890781 280.692153 388.580781 280.439653 
Q 388.273281 280.184653 387.873281 280.184653 
z
M 393.529219 289.864653 
L 393.529219 287.669653 
L 395.726719 287.669653 
L 395.726719 289.864653 
L 393.529219 289.864653 
z
M 397.537031 286.919653 
L 399.724531 286.692153 
Q 399.819531 287.434653 400.279531 287.869653 
Q 400.742031 288.302153 401.342031 288.302153 
Q 402.029531 288.302153 402.507031 287.744653 
Q 402.984531 287.184653 402.984531 286.059653 
Q 402.984531 285.004653 402.509531 284.477153 
Q 402.037031 283.949653 401.279531 283.949653 
Q 400.334531 283.949653 399.584531 284.787153 
L 397.804531 284.529653 
L 398.929531 278.567153 
L 404.734531 278.567153 
L 404.734531 280.622153 
L 400.592031 280.622153 
L 400.249531 282.567153 
Q 400.984531 282.199653 401.749531 282.199653 
Q 403.209531 282.199653 404.224531 283.262153 
Q 405.242031 284.324653 405.242031 286.019653 
Q 405.242031 287.434653 404.422031 288.544653 
Q 403.304531 290.059653 401.319531 290.059653 
Q 399.734531 290.059653 398.734531 289.209653 
Q 397.734531 288.357153 397.537031 286.919653 
z
M 413.820469 287.824653 
L 413.820469 289.864653 
L 406.122969 289.864653 
Q 406.247969 288.707153 406.872969 287.672153 
Q 407.497969 286.637153 409.342969 284.927153 
Q 410.827969 283.544653 411.162969 283.052153 
Q 411.615469 282.372153 411.615469 281.707153 
Q 411.615469 280.974653 411.220469 280.579653 
Q 410.827969 280.184653 410.132969 280.184653 
Q 409.445469 280.184653 409.037969 280.599653 
Q 408.632969 281.012153 408.570469 281.974653 
L 406.382969 281.754653 
Q 406.577969 279.942153 407.607969 279.154653 
Q 408.640469 278.364653 410.185469 278.364653 
Q 411.882969 278.364653 412.850469 279.279653 
Q 413.820469 280.192153 413.820469 281.552153 
Q 413.820469 282.324653 413.542969 283.024653 
Q 413.265469 283.724653 412.662969 284.489653 
Q 412.265469 284.997153 411.225469 285.952153 
Q 410.185469 286.904653 409.907969 287.217153 
Q 409.632969 287.529653 409.460469 287.824653 
L 413.820469 287.824653 
z
M 415.303906 280.607153 
L 415.303906 278.567153 
L 422.811406 278.567153 
L 422.811406 280.162153 
Q 421.881406 281.074653 420.918906 282.787153 
Q 419.958906 284.497153 419.453906 286.424653 
Q 418.951406 288.349653 418.958906 289.864653 
L 416.843906 289.864653 
Q 416.896406 287.489653 417.821406 285.022153 
Q 418.748906 282.552153 420.296406 280.607153 
L 415.303906 280.607153 
z
" style="fill: #ffffff; stroke: #000000"/>
    <path d="M 387.873281 278.364653 
Q 389.538281 278.364653 390.475781 279.552153 
Q 391.593281 280.957153 391.593281 284.217153 
Q 391.593281 287.467153 390.468281 288.887153 
Q 389.538281 290.059653 387.873281 290.059653 
Q 386.203281 290.059653 385.178281 288.774653 
Q 384.155781 287.489653 384.155781 284.192153 
Q 384.155781 280.957153 385.280781 279.537153 
Q 386.210781 278.364653 387.873281 278.364653 
z
M 387.873281 280.184653 
Q 387.475781 280.184653 387.163281 280.439653 
Q 386.850781 280.692153 386.678281 281.349653 
Q 386.453281 282.199653 386.453281 284.217153 
Q 386.453281 286.232153 386.655781 286.987153 
Q 386.858281 287.739653 387.165781 287.989653 
Q 387.475781 288.239653 387.873281 288.239653 
Q 388.273281 288.239653 388.585781 287.987153 
Q 388.898281 287.732153 389.068281 287.074653 
Q 389.295781 286.232153 389.295781 284.217153 
Q 389.295781 282.199653 389.093281 281.447153 
Q 388.890781 280.692153 388.580781 280.439653 
Q 388.273281 280.184653 387.873281 280.184653 
z
M 393.529219 289.864653 
L 393.529219 287.669653 
L 395.726719 287.669653 
L 395.726719 289.864653 
L 393.529219 289.864653 
z
M 397.537031 286.919653 
L 399.724531 286.692153 
Q 399.819531 287.434653 400.279531 287.869653 
Q 400.742031 288.302153 401.342031 288.302153 
Q 402.029531 288.302153 402.507031 287.744653 
Q 402.984531 287.184653 402.984531 286.059653 
Q 402.984531 285.004653 402.509531 284.477153 
Q 402.037031 283.949653 401.279531 283.949653 
Q 400.334531 283.949653 399.584531 284.787153 
L 397.804531 284.529653 
L 398.929531 278.567153 
L 404.734531 278.567153 
L 404.734531 280.622153 
L 400.592031 280.622153 
L 400.249531 282.567153 
Q 400.984531 282.199653 401.749531 282.199653 
Q 403.209531 282.199653 404.224531 283.262153 
Q 405.242031 284.324653 405.242031 286.019653 
Q 405.242031 287.434653 404.422031 288.544653 
Q 403.304531 290.059653 401.319531 290.059653 
Q 399.734531 290.059653 398.734531 289.209653 
Q 397.734531 288.357153 397.537031 286.919653 
z
M 413.820469 287.824653 
L 413.820469 289.864653 
L 406.122969 289.864653 
Q 406.247969 288.707153 406.872969 287.672153 
Q 407.497969 286.637153 409.342969 284.927153 
Q 410.827969 283.544653 411.162969 283.052153 
Q 411.615469 282.372153 411.615469 281.707153 
Q 411.615469 280.974653 411.220469 280.579653 
Q 410.827969 280.184653 410.132969 280.184653 
Q 409.445469 280.184653 409.037969 280.599653 
Q 408.632969 281.012153 408.570469 281.974653 
L 406.382969 281.754653 
Q 406.577969 279.942153 407.607969 279.154653 
Q 408.640469 278.364653 410.185469 278.364653 
Q 411.882969 278.364653 412.850469 279.279653 
Q 413.820469 280.192153 413.820469 281.552153 
Q 413.820469 282.324653 413.542969 283.024653 
Q 413.265469 283.724653 412.662969 284.489653 
Q 412.265469 284.997153 411.225469 285.952153 
Q 410.185469 286.904653 409.907969 287.217153 
Q 409.632969 287.529653 409.460469 287.824653 
L 413.820469 287.824653 
z
M 415.303906 280.607153 
L 415.303906 278.567153 
L 422.811406 278.567153 
L 422.811406 280.162153 
Q 421.881406 281.074653 420.918906 282.787153 
Q 419.958906 284.497153 419.453906 286.424653 
Q 418.951406 288.349653 418.958906 289.864653 
L 416.843906 289.864653 
Q 416.896406 287.489653 417.821406 285.022153 
Q 418.748906 282.552153 420.296406 280.607153 
L 415.303906 280.607153 
z
" style="fill: #ffffff"/>
   </g>
   <g id="text_14">
    <path d="M 624.090469 274.564531 
Q 625.755469 274.564531 626.692969 275.752031 
Q 627.810469 277.157031 627.810469 280.417031 
Q 627.810469 283.667031 626.685469 285.087031 
Q 625.755469 286.259531 624.090469 286.259531 
Q 622.420469 286.259531 621.395469 284.974531 
Q 620.372969 283.689531 620.372969 280.392031 
Q 620.372969 277.157031 621.497969 275.737031 
Q 622.427969 274.564531 624.090469 274.564531 
z
M 624.090469 276.384531 
Q 623.692969 276.384531 623.380469 276.639531 
Q 623.067969 276.892031 622.895469 277.549531 
Q 622.670469 278.399531 622.670469 280.417031 
Q 622.670469 282.432031 622.872969 283.187031 
Q 623.075469 283.939531 623.382969 284.189531 
Q 623.692969 284.439531 624.090469 284.439531 
Q 624.490469 284.439531 624.802969 284.187031 
Q 625.115469 283.932031 625.285469 283.274531 
Q 625.512969 282.432031 625.512969 280.417031 
Q 625.512969 278.399531 625.310469 277.647031 
Q 625.107969 276.892031 624.797969 276.639531 
Q 624.490469 276.384531 624.090469 276.384531 
z
M 629.746406 286.064531 
L 629.746406 283.869531 
L 631.943906 283.869531 
L 631.943906 286.064531 
L 629.746406 286.064531 
z
M 633.754219 283.119531 
L 635.941719 282.892031 
Q 636.036719 283.634531 636.496719 284.069531 
Q 636.959219 284.502031 637.559219 284.502031 
Q 638.246719 284.502031 638.724219 283.944531 
Q 639.201719 283.384531 639.201719 282.259531 
Q 639.201719 281.204531 638.726719 280.677031 
Q 638.254219 280.149531 637.496719 280.149531 
Q 636.551719 280.149531 635.801719 280.987031 
L 634.021719 280.729531 
L 635.146719 274.767031 
L 640.951719 274.767031 
L 640.951719 276.822031 
L 636.809219 276.822031 
L 636.466719 278.767031 
Q 637.201719 278.399531 637.966719 278.399531 
Q 639.426719 278.399531 640.441719 279.462031 
Q 641.459219 280.524531 641.459219 282.219531 
Q 641.459219 283.634531 640.639219 284.744531 
Q 639.521719 286.259531 637.536719 286.259531 
Q 635.951719 286.259531 634.951719 285.409531 
Q 633.951719 284.557031 633.754219 283.119531 
z
M 642.545156 283.024531 
L 644.670156 282.767031 
Q 644.770156 283.579531 645.215156 284.009531 
Q 645.662656 284.439531 646.295156 284.439531 
Q 646.975156 284.439531 647.437656 283.924531 
Q 647.902656 283.407031 647.902656 282.532031 
Q 647.902656 281.704531 647.457656 281.222031 
Q 647.012656 280.737031 646.372656 280.737031 
Q 645.950156 280.737031 645.365156 280.899531 
L 645.607656 279.112031 
Q 646.497656 279.134531 646.965156 278.724531 
Q 647.435156 278.314531 647.435156 277.634531 
Q 647.435156 277.057031 647.090156 276.714531 
Q 646.747656 276.369531 646.177656 276.369531 
Q 645.615156 276.369531 645.215156 276.759531 
Q 644.817656 277.149531 644.732656 277.899531 
L 642.707656 277.557031 
Q 642.920156 276.517031 643.345156 275.897031 
Q 643.770156 275.274531 644.532656 274.919531 
Q 645.295156 274.564531 646.240156 274.564531 
Q 647.857656 274.564531 648.832656 275.594531 
Q 649.637656 276.439531 649.637656 277.502031 
Q 649.637656 279.009531 647.990156 279.907031 
Q 648.975156 280.119531 649.562656 280.854531 
Q 650.152656 281.587031 650.152656 282.627031 
Q 650.152656 284.134531 649.050156 285.197031 
Q 647.950156 286.259531 646.310156 286.259531 
Q 644.755156 286.259531 643.730156 285.364531 
Q 642.707656 284.469531 642.545156 283.024531 
z
M 651.551094 283.119531 
L 653.738594 282.892031 
Q 653.833594 283.634531 654.293594 284.069531 
Q 654.756094 284.502031 655.356094 284.502031 
Q 656.043594 284.502031 656.521094 283.944531 
Q 656.998594 283.384531 656.998594 282.259531 
Q 656.998594 281.204531 656.523594 280.677031 
Q 656.051094 280.149531 655.293594 280.149531 
Q 654.348594 280.149531 653.598594 280.987031 
L 651.818594 280.729531 
L 652.943594 274.767031 
L 658.748594 274.767031 
L 658.748594 276.822031 
L 654.606094 276.822031 
L 654.263594 278.767031 
Q 654.998594 278.399531 655.763594 278.399531 
Q 657.223594 278.399531 658.238594 279.462031 
Q 659.256094 280.524531 659.256094 282.219531 
Q 659.256094 283.634531 658.436094 284.744531 
Q 657.318594 286.259531 655.333594 286.259531 
Q 653.748594 286.259531 652.748594 285.409531 
Q 651.748594 284.557031 651.551094 283.119531 
z
" style="fill: #ffffff; stroke: #000000"/>
    <path d="M 624.090469 274.564531 
Q 625.755469 274.564531 626.692969 275.752031 
Q 627.810469 277.157031 627.810469 280.417031 
Q 627.810469 283.667031 626.685469 285.087031 
Q 625.755469 286.259531 624.090469 286.259531 
Q 622.420469 286.259531 621.395469 284.974531 
Q 620.372969 283.689531 620.372969 280.392031 
Q 620.372969 277.157031 621.497969 275.737031 
Q 622.427969 274.564531 624.090469 274.564531 
z
M 624.090469 276.384531 
Q 623.692969 276.384531 623.380469 276.639531 
Q 623.067969 276.892031 622.895469 277.549531 
Q 622.670469 278.399531 622.670469 280.417031 
Q 622.670469 282.432031 622.872969 283.187031 
Q 623.075469 283.939531 623.382969 284.189531 
Q 623.692969 284.439531 624.090469 284.439531 
Q 624.490469 284.439531 624.802969 284.187031 
Q 625.115469 283.932031 625.285469 283.274531 
Q 625.512969 282.432031 625.512969 280.417031 
Q 625.512969 278.399531 625.310469 277.647031 
Q 625.107969 276.892031 624.797969 276.639531 
Q 624.490469 276.384531 624.090469 276.384531 
z
M 629.746406 286.064531 
L 629.746406 283.869531 
L 631.943906 283.869531 
L 631.943906 286.064531 
L 629.746406 286.064531 
z
M 633.754219 283.119531 
L 635.941719 282.892031 
Q 636.036719 283.634531 636.496719 284.069531 
Q 636.959219 284.502031 637.559219 284.502031 
Q 638.246719 284.502031 638.724219 283.944531 
Q 639.201719 283.384531 639.201719 282.259531 
Q 639.201719 281.204531 638.726719 280.677031 
Q 638.254219 280.149531 637.496719 280.149531 
Q 636.551719 280.149531 635.801719 280.987031 
L 634.021719 280.729531 
L 635.146719 274.767031 
L 640.951719 274.767031 
L 640.951719 276.822031 
L 636.809219 276.822031 
L 636.466719 278.767031 
Q 637.201719 278.399531 637.966719 278.399531 
Q 639.426719 278.399531 640.441719 279.462031 
Q 641.459219 280.524531 641.459219 282.219531 
Q 641.459219 283.634531 640.639219 284.744531 
Q 639.521719 286.259531 637.536719 286.259531 
Q 635.951719 286.259531 634.951719 285.409531 
Q 633.951719 284.557031 633.754219 283.119531 
z
M 642.545156 283.024531 
L 644.670156 282.767031 
Q 644.770156 283.579531 645.215156 284.009531 
Q 645.662656 284.439531 646.295156 284.439531 
Q 646.975156 284.439531 647.437656 283.924531 
Q 647.902656 283.407031 647.902656 282.532031 
Q 647.902656 281.704531 647.457656 281.222031 
Q 647.012656 280.737031 646.372656 280.737031 
Q 645.950156 280.737031 645.365156 280.899531 
L 645.607656 279.112031 
Q 646.497656 279.134531 646.965156 278.724531 
Q 647.435156 278.314531 647.435156 277.634531 
Q 647.435156 277.057031 647.090156 276.714531 
Q 646.747656 276.369531 646.177656 276.369531 
Q 645.615156 276.369531 645.215156 276.759531 
Q 644.817656 277.149531 644.732656 277.899531 
L 642.707656 277.557031 
Q 642.920156 276.517031 643.345156 275.897031 
Q 643.770156 275.274531 644.532656 274.919531 
Q 645.295156 274.564531 646.240156 274.564531 
Q 647.857656 274.564531 648.832656 275.594531 
Q 649.637656 276.439531 649.637656 277.502031 
Q 649.637656 279.009531 647.990156 279.907031 
Q 648.975156 280.119531 649.562656 280.854531 
Q 650.152656 281.587031 650.152656 282.627031 
Q 650.152656 284.134531 649.050156 285.197031 
Q 647.950156 286.259531 646.310156 286.259531 
Q 644.755156 286.259531 643.730156 285.364531 
Q 642.707656 284.469531 642.545156 283.024531 
z
M 651.551094 283.119531 
L 653.738594 282.892031 
Q 653.833594 283.634531 654.293594 284.069531 
Q 654.756094 284.502031 655.356094 284.502031 
Q 656.043594 284.502031 656.521094 283.944531 
Q 656.998594 283.384531 656.998594 282.259531 
Q 656.998594 281.204531 656.523594 280.677031 
Q 656.051094 280.149531 655.293594 280.149531 
Q 654.348594 280.149531 653.598594 280.987031 
L 651.818594 280.729531 
L 652.943594 274.767031 
L 658.748594 274.767031 
L 658.748594 276.822031 
L 654.606094 276.822031 
L 654.263594 278.767031 
Q 654.998594 278.399531 655.763594 278.399531 
Q 657.223594 278.399531 658.238594 279.462031 
Q 659.256094 280.524531 659.256094 282.219531 
Q 659.256094 283.634531 658.436094 284.744531 
Q 657.318594 286.259531 655.333594 286.259531 
Q 653.748594 286.259531 652.748594 285.409531 
Q 651.748594 284.557031 651.551094 283.119531 
z
" style="fill: #ffffff"/>
   </g>
   <g id="text_15">
    <path d="M 860.307656 262.112354 
Q 861.972656 262.112354 862.910156 263.299854 
Q 864.027656 264.704854 864.027656 267.964854 
Q 864.027656 271.214854 862.902656 272.634854 
Q 861.972656 273.807354 860.307656 273.807354 
Q 858.637656 273.807354 857.612656 272.522354 
Q 856.590156 271.237354 856.590156 267.939854 
Q 856.590156 264.704854 857.715156 263.284854 
Q 858.645156 262.112354 860.307656 262.112354 
z
M 860.307656 263.932354 
Q 859.910156 263.932354 859.597656 264.187354 
Q 859.285156 264.439854 859.112656 265.097354 
Q 858.887656 265.947354 858.887656 267.964854 
Q 858.887656 269.979854 859.090156 270.734854 
Q 859.292656 271.487354 859.600156 271.737354 
Q 859.910156 271.987354 860.307656 271.987354 
Q 860.707656 271.987354 861.020156 271.734854 
Q 861.332656 271.479854 861.502656 270.822354 
Q 861.730156 269.979854 861.730156 267.964854 
Q 861.730156 265.947354 861.527656 265.194854 
Q 861.325156 264.439854 861.015156 264.187354 
Q 860.707656 263.932354 860.307656 263.932354 
z
M 865.963594 273.612354 
L 865.963594 271.417354 
L 868.161094 271.417354 
L 868.161094 273.612354 
L 865.963594 273.612354 
z
M 869.971406 270.667354 
L 872.158906 270.439854 
Q 872.253906 271.182354 872.713906 271.617354 
Q 873.176406 272.049854 873.776406 272.049854 
Q 874.463906 272.049854 874.941406 271.492354 
Q 875.418906 270.932354 875.418906 269.807354 
Q 875.418906 268.752354 874.943906 268.224854 
Q 874.471406 267.697354 873.713906 267.697354 
Q 872.768906 267.697354 872.018906 268.534854 
L 870.238906 268.277354 
L 871.363906 262.314854 
L 877.168906 262.314854 
L 877.168906 264.369854 
L 873.026406 264.369854 
L 872.683906 266.314854 
Q 873.418906 265.947354 874.183906 265.947354 
Q 875.643906 265.947354 876.658906 267.009854 
Q 877.676406 268.072354 877.676406 269.767354 
Q 877.676406 271.182354 876.856406 272.292354 
Q 875.738906 273.807354 873.753906 273.807354 
Q 872.168906 273.807354 871.168906 272.957354 
Q 870.168906 272.104854 869.971406 270.667354 
z
M 878.869844 270.667354 
L 881.057344 270.439854 
Q 881.152344 271.182354 881.612344 271.617354 
Q 882.074844 272.049854 882.674844 272.049854 
Q 883.362344 272.049854 883.839844 271.492354 
Q 884.317344 270.932354 884.317344 269.807354 
Q 884.317344 268.752354 883.842344 268.224854 
Q 883.369844 267.697354 882.612344 267.697354 
Q 881.667344 267.697354 880.917344 268.534854 
L 879.137344 268.277354 
L 880.262344 262.314854 
L 886.067344 262.314854 
L 886.067344 264.369854 
L 881.924844 264.369854 
L 881.582344 266.314854 
Q 882.317344 265.947354 883.082344 265.947354 
Q 884.542344 265.947354 885.557344 267.009854 
Q 886.574844 268.072354 886.574844 269.767354 
Q 886.574844 271.182354 885.754844 272.292354 
Q 884.637344 273.807354 882.652344 273.807354 
Q 881.067344 273.807354 880.067344 272.957354 
Q 879.067344 272.104854 878.869844 270.667354 
z
M 889.620781 267.432354 
Q 888.768281 267.072354 888.380781 266.444854 
Q 887.995781 265.814854 887.995781 265.064854 
Q 887.995781 263.784854 888.890781 262.949854 
Q 889.785781 262.112354 891.433281 262.112354 
Q 893.065781 262.112354 893.968281 262.949854 
Q 894.870781 263.784854 894.870781 265.064854 
Q 894.870781 265.862354 894.455781 266.484854 
Q 894.043281 267.104854 893.293281 267.432354 
Q 894.245781 267.814854 894.740781 268.549854 
Q 895.238281 269.284854 895.238281 270.244854 
Q 895.238281 271.829854 894.225781 272.822354 
Q 893.215781 273.814854 891.535781 273.814854 
Q 889.973281 273.814854 888.933281 272.994854 
Q 887.705781 272.027354 887.705781 270.339854 
Q 887.705781 269.409854 888.165781 268.632354 
Q 888.628281 267.854854 889.620781 267.432354 
z
M 890.073281 265.222354 
Q 890.073281 265.877354 890.443281 266.244854 
Q 890.815781 266.612354 891.433281 266.612354 
Q 892.058281 266.612354 892.433281 266.242354 
Q 892.808281 265.869854 892.808281 265.214854 
Q 892.808281 264.597354 892.435781 264.227354 
Q 892.065781 263.854854 891.455781 263.854854 
Q 890.823281 263.854854 890.448281 264.229854 
Q 890.073281 264.604854 890.073281 265.222354 
z
M 889.870781 270.127354 
Q 889.870781 271.034854 890.335781 271.542354 
Q 890.800781 272.049854 891.495781 272.049854 
Q 892.175781 272.049854 892.620781 271.562354 
Q 893.065781 271.072354 893.065781 270.152354 
Q 893.065781 269.347354 892.613281 268.859854 
Q 892.160781 268.369854 891.465781 268.369854 
Q 890.660781 268.369854 890.265781 268.924854 
Q 889.870781 269.479854 889.870781 270.127354 
z
" style="fill: #ffffff; stroke: #000000"/>
    <path d="M 860.307656 262.112354 
Q 861.972656 262.112354 862.910156 263.299854 
Q 864.027656 264.704854 864.027656 267.964854 
Q 864.027656 271.214854 862.902656 272.634854 
Q 861.972656 273.807354 860.307656 273.807354 
Q 858.637656 273.807354 857.612656 272.522354 
Q 856.590156 271.237354 856.590156 267.939854 
Q 856.590156 264.704854 857.715156 263.284854 
Q 858.645156 262.112354 860.307656 262.112354 
z
M 860.307656 263.932354 
Q 859.910156 263.932354 859.597656 264.187354 
Q 859.285156 264.439854 859.112656 265.097354 
Q 858.887656 265.947354 858.887656 267.964854 
Q 858.887656 269.979854 859.090156 270.734854 
Q 859.292656 271.487354 859.600156 271.737354 
Q 859.910156 271.987354 860.307656 271.987354 
Q 860.707656 271.987354 861.020156 271.734854 
Q 861.332656 271.479854 861.502656 270.822354 
Q 861.730156 269.979854 861.730156 267.964854 
Q 861.730156 265.947354 861.527656 265.194854 
Q 861.325156 264.439854 861.015156 264.187354 
Q 860.707656 263.932354 860.307656 263.932354 
z
M 865.963594 273.612354 
L 865.963594 271.417354 
L 868.161094 271.417354 
L 868.161094 273.612354 
L 865.963594 273.612354 
z
M 869.971406 270.667354 
L 872.158906 270.439854 
Q 872.253906 271.182354 872.713906 271.617354 
Q 873.176406 272.049854 873.776406 272.049854 
Q 874.463906 272.049854 874.941406 271.492354 
Q 875.418906 270.932354 875.418906 269.807354 
Q 875.418906 268.752354 874.943906 268.224854 
Q 874.471406 267.697354 873.713906 267.697354 
Q 872.768906 267.697354 872.018906 268.534854 
L 870.238906 268.277354 
L 871.363906 262.314854 
L 877.168906 262.314854 
L 877.168906 264.369854 
L 873.026406 264.369854 
L 872.683906 266.314854 
Q 873.418906 265.947354 874.183906 265.947354 
Q 875.643906 265.947354 876.658906 267.009854 
Q 877.676406 268.072354 877.676406 269.767354 
Q 877.676406 271.182354 876.856406 272.292354 
Q 875.738906 273.807354 873.753906 273.807354 
Q 872.168906 273.807354 871.168906 272.957354 
Q 870.168906 272.104854 869.971406 270.667354 
z
M 878.869844 270.667354 
L 881.057344 270.439854 
Q 881.152344 271.182354 881.612344 271.617354 
Q 882.074844 272.049854 882.674844 272.049854 
Q 883.362344 272.049854 883.839844 271.492354 
Q 884.317344 270.932354 884.317344 269.807354 
Q 884.317344 268.752354 883.842344 268.224854 
Q 883.369844 267.697354 882.612344 267.697354 
Q 881.667344 267.697354 880.917344 268.534854 
L 879.137344 268.277354 
L 880.262344 262.314854 
L 886.067344 262.314854 
L 886.067344 264.369854 
L 881.924844 264.369854 
L 881.582344 266.314854 
Q 882.317344 265.947354 883.082344 265.947354 
Q 884.542344 265.947354 885.557344 267.009854 
Q 886.574844 268.072354 886.574844 269.767354 
Q 886.574844 271.182354 885.754844 272.292354 
Q 884.637344 273.807354 882.652344 273.807354 
Q 881.067344 273.807354 880.067344 272.957354 
Q 879.067344 272.104854 878.869844 270.667354 
z
M 889.620781 267.432354 
Q 888.768281 267.072354 888.380781 266.444854 
Q 887.995781 265.814854 887.995781 265.064854 
Q 887.995781 263.784854 888.890781 262.949854 
Q 889.785781 262.112354 891.433281 262.112354 
Q 893.065781 262.112354 893.968281 262.949854 
Q 894.870781 263.784854 894.870781 265.064854 
Q 894.870781 265.862354 894.455781 266.484854 
Q 894.043281 267.104854 893.293281 267.432354 
Q 894.245781 267.814854 894.740781 268.549854 
Q 895.238281 269.284854 895.238281 270.244854 
Q 895.238281 271.829854 894.225781 272.822354 
Q 893.215781 273.814854 891.535781 273.814854 
Q 889.973281 273.814854 888.933281 272.994854 
Q 887.705781 272.027354 887.705781 270.339854 
Q 887.705781 269.409854 888.165781 268.632354 
Q 888.628281 267.854854 889.620781 267.432354 
z
M 890.073281 265.222354 
Q 890.073281 265.877354 890.443281 266.244854 
Q 890.815781 266.612354 891.433281 266.612354 
Q 892.058281 266.612354 892.433281 266.242354 
Q 892.808281 265.869854 892.808281 265.214854 
Q 892.808281 264.597354 892.435781 264.227354 
Q 892.065781 263.854854 891.455781 263.854854 
Q 890.823281 263.854854 890.448281 264.229854 
Q 890.073281 264.604854 890.073281 265.222354 
z
M 889.870781 270.127354 
Q 889.870781 271.034854 890.335781 271.542354 
Q 890.800781 272.049854 891.495781 272.049854 
Q 892.175781 272.049854 892.620781 271.562354 
Q 893.065781 271.072354 893.065781 270.152354 
Q 893.065781 269.347354 892.613281 268.859854 
Q 892.160781 268.369854 891.465781 268.369854 
Q 890.660781 268.369854 890.265781 268.924854 
Q 889.870781 269.479854 889.870781 270.127354 
z
" style="fill: #ffffff"/>
   </g>
   <g id="text_16">
    <!-- n=247 -->
    <g style="opacity: 0.8" transform="translate(150.104844 559.379715) scale(0.12 -0.12)">
     <defs>
      <path id="Arial-BoldMT-3d" d="M 266 2550 
L 266 3356 
L 3469 3356 
L 3469 2550 
L 266 2550 
z
M 266 1163 
L 266 1972 
L 3469 1972 
L 3469 1163 
L 266 1163 
z
" transform="scale(0.015625)"/>
      <path id="Arial-BoldMT-32" d="M 3238 816 
L 3238 0 
L 159 0 
Q 209 463 459 877 
Q 709 1291 1447 1975 
Q 2041 2528 2175 2725 
Q 2356 2997 2356 3263 
Q 2356 3556 2198 3714 
Q 2041 3872 1763 3872 
Q 1488 3872 1325 3706 
Q 1163 3541 1138 3156 
L 263 3244 
Q 341 3969 753 4284 
Q 1166 4600 1784 4600 
Q 2463 4600 2850 4234 
Q 3238 3869 3238 3325 
Q 3238 3016 3127 2736 
Q 3016 2456 2775 2150 
Q 2616 1947 2200 1565 
Q 1784 1184 1673 1059 
Q 1563 934 1494 816 
L 3238 816 
z
" transform="scale(0.015625)"/>
      <path id="Arial-BoldMT-34" d="M 1994 0 
L 1994 922 
L 119 922 
L 119 1691 
L 2106 4600 
L 2844 4600 
L 2844 1694 
L 3413 1694 
L 3413 922 
L 2844 922 
L 2844 0 
L 1994 0 
z
M 1994 1694 
L 1994 3259 
L 941 1694 
L 1994 1694 
z
" transform="scale(0.015625)"/>
      <path id="Arial-BoldMT-37" d="M 272 3703 
L 272 4519 
L 3275 4519 
L 3275 3881 
Q 2903 3516 2518 2831 
Q 2134 2147 1932 1376 
Q 1731 606 1734 0 
L 888 0 
Q 909 950 1279 1937 
Q 1650 2925 2269 3703 
L 272 3703 
z
" transform="scale(0.015625)"/>
     </defs>
     <use xlink:href="#Arial-BoldMT-6e"/>
     <use xlink:href="#Arial-BoldMT-3d" transform="translate(61.083984 0)"/>
     <use xlink:href="#Arial-BoldMT-32" transform="translate(119.482422 0)"/>
     <use xlink:href="#Arial-BoldMT-34" transform="translate(175.097656 0)"/>
     <use xlink:href="#Arial-BoldMT-37" transform="translate(230.712891 0)"/>
    </g>
   </g>
   <g id="text_17">
    <!-- n=585 -->
    <g style="opacity: 0.8" transform="translate(386.322031 559.379715) scale(0.12 -0.12)">
     <defs>
      <path id="Arial-BoldMT-35" d="M 284 1178 
L 1159 1269 
Q 1197 972 1381 798 
Q 1566 625 1806 625 
Q 2081 625 2272 848 
Q 2463 1072 2463 1522 
Q 2463 1944 2273 2155 
Q 2084 2366 1781 2366 
Q 1403 2366 1103 2031 
L 391 2134 
L 841 4519 
L 3163 4519 
L 3163 3697 
L 1506 3697 
L 1369 2919 
Q 1663 3066 1969 3066 
Q 2553 3066 2959 2641 
Q 3366 2216 3366 1538 
Q 3366 972 3038 528 
Q 2591 -78 1797 -78 
Q 1163 -78 763 262 
Q 363 603 284 1178 
z
" transform="scale(0.015625)"/>
      <path id="Arial-BoldMT-38" d="M 1025 2472 
Q 684 2616 529 2867 
Q 375 3119 375 3419 
Q 375 3931 733 4265 
Q 1091 4600 1750 4600 
Q 2403 4600 2764 4265 
Q 3125 3931 3125 3419 
Q 3125 3100 2959 2851 
Q 2794 2603 2494 2472 
Q 2875 2319 3073 2025 
Q 3272 1731 3272 1347 
Q 3272 713 2867 316 
Q 2463 -81 1791 -81 
Q 1166 -81 750 247 
Q 259 634 259 1309 
Q 259 1681 443 1992 
Q 628 2303 1025 2472 
z
M 1206 3356 
Q 1206 3094 1354 2947 
Q 1503 2800 1750 2800 
Q 2000 2800 2150 2948 
Q 2300 3097 2300 3359 
Q 2300 3606 2151 3754 
Q 2003 3903 1759 3903 
Q 1506 3903 1356 3753 
Q 1206 3603 1206 3356 
z
M 1125 1394 
Q 1125 1031 1311 828 
Q 1497 625 1775 625 
Q 2047 625 2225 820 
Q 2403 1016 2403 1384 
Q 2403 1706 2222 1901 
Q 2041 2097 1763 2097 
Q 1441 2097 1283 1875 
Q 1125 1653 1125 1394 
z
" transform="scale(0.015625)"/>
     </defs>
     <use xlink:href="#Arial-BoldMT-6e"/>
     <use xlink:href="#Arial-BoldMT-3d" transform="translate(61.083984 0)"/>
     <use xlink:href="#Arial-BoldMT-35" transform="translate(119.482422 0)"/>
     <use xlink:href="#Arial-BoldMT-38" transform="translate(175.097656 0)"/>
     <use xlink:href="#Arial-BoldMT-35" transform="translate(230.712891 0)"/>
    </g>
   </g>
   <g id="text_18">
    <!-- n=585 -->
    <g style="opacity: 0.8" transform="translate(622.539219 559.379715) scale(0.12 -0.12)">
     <use xlink:href="#Arial-BoldMT-6e"/>
     <use xlink:href="#Arial-BoldMT-3d" transform="translate(61.083984 0)"/>
     <use xlink:href="#Arial-BoldMT-35" transform="translate(119.482422 0)"/>
     <use xlink:href="#Arial-BoldMT-38" transform="translate(175.097656 0)"/>
     <use xlink:href="#Arial-BoldMT-35" transform="translate(230.712891 0)"/>
    </g>
   </g>
   <g id="text_19">
    <!-- n=97 -->
    <g style="opacity: 0.8" transform="translate(862.092969 559.379715) scale(0.12 -0.12)">
     <defs>
      <path id="Arial-BoldMT-39" d="M 291 1059 
L 1141 1153 
Q 1172 894 1303 769 
Q 1434 644 1650 644 
Q 1922 644 2112 894 
Q 2303 1144 2356 1931 
Q 2025 1547 1528 1547 
Q 988 1547 595 1964 
Q 203 2381 203 3050 
Q 203 3747 617 4173 
Q 1031 4600 1672 4600 
Q 2369 4600 2816 4061 
Q 3263 3522 3263 2288 
Q 3263 1031 2797 475 
Q 2331 -81 1584 -81 
Q 1047 -81 715 205 
Q 384 491 291 1059 
z
M 2278 2978 
Q 2278 3403 2083 3637 
Q 1888 3872 1631 3872 
Q 1388 3872 1227 3680 
Q 1066 3488 1066 3050 
Q 1066 2606 1241 2398 
Q 1416 2191 1678 2191 
Q 1931 2191 2104 2391 
Q 2278 2591 2278 2978 
z
" transform="scale(0.015625)"/>
     </defs>
     <use xlink:href="#Arial-BoldMT-6e"/>
     <use xlink:href="#Arial-BoldMT-3d" transform="translate(61.083984 0)"/>
     <use xlink:href="#Arial-BoldMT-39" transform="translate(119.482422 0)"/>
     <use xlink:href="#Arial-BoldMT-37" transform="translate(175.097656 0)"/>
    </g>
   </g>
   <g id="text_20">
    <!-- Box Plot: AlphaMissense: Average Pathogenicity by Prediction Class (11AA) -->
    <g style="fill: #262626" transform="translate(86.87375 24.67125) scale(0.24 -0.24)">
     <defs>
      <path id="Arial-BoldMT-42" d="M 469 4581 
L 2300 4581 
Q 2844 4581 3111 4536 
Q 3378 4491 3589 4347 
Q 3800 4203 3940 3964 
Q 4081 3725 4081 3428 
Q 4081 3106 3907 2837 
Q 3734 2569 3438 2434 
Q 3856 2313 4081 2019 
Q 4306 1725 4306 1328 
Q 4306 1016 4161 720 
Q 4016 425 3764 248 
Q 3513 72 3144 31 
Q 2913 6 2028 0 
L 469 0 
L 469 4581 
z
M 1394 3819 
L 1394 2759 
L 2000 2759 
Q 2541 2759 2672 2775 
Q 2909 2803 3045 2939 
Q 3181 3075 3181 3297 
Q 3181 3509 3064 3642 
Q 2947 3775 2716 3803 
Q 2578 3819 1925 3819 
L 1394 3819 
z
M 1394 1997 
L 1394 772 
L 2250 772 
Q 2750 772 2884 800 
Q 3091 838 3220 983 
Q 3350 1128 3350 1372 
Q 3350 1578 3250 1722 
Q 3150 1866 2961 1931 
Q 2772 1997 2141 1997 
L 1394 1997 
z
" transform="scale(0.015625)"/>
      <path id="Arial-BoldMT-78" d="M 38 0 
L 1234 1709 
L 88 3319 
L 1159 3319 
L 1747 2406 
L 2366 3319 
L 3397 3319 
L 2272 1747 
L 3500 0 
L 2422 0 
L 1747 1028 
L 1066 0 
L 38 0 
z
" transform="scale(0.015625)"/>
      <path id="Arial-BoldMT-3a" d="M 628 2441 
L 628 3319 
L 1506 3319 
L 1506 2441 
L 628 2441 
z
M 628 0 
L 628 878 
L 1506 878 
L 1506 0 
L 628 0 
z
" transform="scale(0.015625)"/>
      <path id="Arial-BoldMT-70" d="M 434 3319 
L 1253 3319 
L 1253 2831 
Q 1413 3081 1684 3237 
Q 1956 3394 2288 3394 
Q 2866 3394 3269 2941 
Q 3672 2488 3672 1678 
Q 3672 847 3265 386 
Q 2859 -75 2281 -75 
Q 2006 -75 1782 34 
Q 1559 144 1313 409 
L 1313 -1263 
L 434 -1263 
L 434 3319 
z
M 1303 1716 
Q 1303 1156 1525 889 
Q 1747 622 2066 622 
Q 2372 622 2575 867 
Q 2778 1113 2778 1672 
Q 2778 2194 2568 2447 
Q 2359 2700 2050 2700 
Q 1728 2700 1515 2451 
Q 1303 2203 1303 1716 
z
" transform="scale(0.015625)"/>
      <path id="Arial-BoldMT-4d" d="M 453 0 
L 453 4581 
L 1838 4581 
L 2669 1456 
L 3491 4581 
L 4878 4581 
L 4878 0 
L 4019 0 
L 4019 3606 
L 3109 0 
L 2219 0 
L 1313 3606 
L 1313 0 
L 453 0 
z
" transform="scale(0.015625)"/>
      <path id="Arial-BoldMT-62" d="M 422 0 
L 422 4581 
L 1300 4581 
L 1300 2931 
Q 1706 3394 2263 3394 
Q 2869 3394 3266 2955 
Q 3663 2516 3663 1694 
Q 3663 844 3258 384 
Q 2853 -75 2275 -75 
Q 1991 -75 1714 67 
Q 1438 209 1238 488 
L 1238 0 
L 422 0 
z
M 1294 1731 
Q 1294 1216 1456 969 
Q 1684 619 2063 619 
Q 2353 619 2558 867 
Q 2763 1116 2763 1650 
Q 2763 2219 2556 2470 
Q 2350 2722 2028 2722 
Q 1713 2722 1503 2476 
Q 1294 2231 1294 1731 
z
" transform="scale(0.015625)"/>
      <path id="Arial-BoldMT-31" d="M 2519 0 
L 1641 0 
L 1641 3309 
Q 1159 2859 506 2644 
L 506 3441 
Q 850 3553 1253 3867 
Q 1656 4181 1806 4600 
L 2519 4600 
L 2519 0 
z
" transform="scale(0.015625)"/>
     </defs>
     <use xlink:href="#Arial-BoldMT-42"/>
     <use xlink:href="#Arial-BoldMT-6f" transform="translate(72.216797 0)"/>
     <use xlink:href="#Arial-BoldMT-78" transform="translate(133.300781 0)"/>
     <use xlink:href="#Arial-BoldMT-20" transform="translate(188.916016 0)"/>
     <use xlink:href="#Arial-BoldMT-50" transform="translate(216.699219 0)"/>
     <use xlink:href="#Arial-BoldMT-6c" transform="translate(283.398438 0)"/>
     <use xlink:href="#Arial-BoldMT-6f" transform="translate(311.181641 0)"/>
     <use xlink:href="#Arial-BoldMT-74" transform="translate(372.265625 0)"/>
     <use xlink:href="#Arial-BoldMT-3a" transform="translate(405.566406 0)"/>
     <use xlink:href="#Arial-BoldMT-20" transform="translate(438.867188 0)"/>
     <use xlink:href="#Arial-BoldMT-41" transform="translate(462.900391 0)"/>
     <use xlink:href="#Arial-BoldMT-6c" transform="translate(535.117188 0)"/>
     <use xlink:href="#Arial-BoldMT-70" transform="translate(562.900391 0)"/>
     <use xlink:href="#Arial-BoldMT-68" transform="translate(623.984375 0)"/>
     <use xlink:href="#Arial-BoldMT-61" transform="translate(685.068359 0)"/>
     <use xlink:href="#Arial-BoldMT-4d" transform="translate(740.683594 0)"/>
     <use xlink:href="#Arial-BoldMT-69" transform="translate(823.984375 0)"/>
     <use xlink:href="#Arial-BoldMT-73" transform="translate(851.767578 0)"/>
     <use xlink:href="#Arial-BoldMT-73" transform="translate(907.382812 0)"/>
     <use xlink:href="#Arial-BoldMT-65" transform="translate(962.998047 0)"/>
     <use xlink:href="#Arial-BoldMT-6e" transform="translate(1018.613281 0)"/>
     <use xlink:href="#Arial-BoldMT-73" transform="translate(1079.697266 0)"/>
     <use xlink:href="#Arial-BoldMT-65" transform="translate(1135.3125 0)"/>
     <use xlink:href="#Arial-BoldMT-3a" transform="translate(1190.927734 0)"/>
     <use xlink:href="#Arial-BoldMT-20" transform="translate(1224.228516 0)"/>
     <use xlink:href="#Arial-BoldMT-41" transform="translate(1248.261719 0)"/>
     <use xlink:href="#Arial-BoldMT-76" transform="translate(1316.728516 0)"/>
     <use xlink:href="#Arial-BoldMT-65" transform="translate(1372.34375 0)"/>
     <use xlink:href="#Arial-BoldMT-72" transform="translate(1427.958984 0)"/>
     <use xlink:href="#Arial-BoldMT-61" transform="translate(1466.875 0)"/>
     <use xlink:href="#Arial-BoldMT-67" transform="translate(1522.490234 0)"/>
     <use xlink:href="#Arial-BoldMT-65" transform="translate(1583.574219 0)"/>
     <use xlink:href="#Arial-BoldMT-20" transform="translate(1639.189453 0)"/>
     <use xlink:href="#Arial-BoldMT-50" transform="translate(1666.972656 0)"/>
     <use xlink:href="#Arial-BoldMT-61" transform="translate(1733.671875 0)"/>
     <use xlink:href="#Arial-BoldMT-74" transform="translate(1789.287109 0)"/>
     <use xlink:href="#Arial-BoldMT-68" transform="translate(1822.587891 0)"/>
     <use xlink:href="#Arial-BoldMT-6f" transform="translate(1883.671875 0)"/>
     <use xlink:href="#Arial-BoldMT-67" transform="translate(1944.755859 0)"/>
     <use xlink:href="#Arial-BoldMT-65" transform="translate(2005.839844 0)"/>
     <use xlink:href="#Arial-BoldMT-6e" transform="translate(2061.455078 0)"/>
     <use xlink:href="#Arial-BoldMT-69" transform="translate(2122.539062 0)"/>
     <use xlink:href="#Arial-BoldMT-63" transform="translate(2150.322266 0)"/>
     <use xlink:href="#Arial-BoldMT-69" transform="translate(2205.9375 0)"/>
     <use xlink:href="#Arial-BoldMT-74" transform="translate(2233.720703 0)"/>
     <use xlink:href="#Arial-BoldMT-79" transform="translate(2267.021484 0)"/>
     <use xlink:href="#Arial-BoldMT-20" transform="translate(2322.636719 0)"/>
     <use xlink:href="#Arial-BoldMT-62" transform="translate(2350.419922 0)"/>
     <use xlink:href="#Arial-BoldMT-79" transform="translate(2411.503906 0)"/>
     <use xlink:href="#Arial-BoldMT-20" transform="translate(2467.119141 0)"/>
     <use xlink:href="#Arial-BoldMT-50" transform="translate(2494.902344 0)"/>
     <use xlink:href="#Arial-BoldMT-72" transform="translate(2561.601562 0)"/>
     <use xlink:href="#Arial-BoldMT-65" transform="translate(2600.517578 0)"/>
     <use xlink:href="#Arial-BoldMT-64" transform="translate(2656.132812 0)"/>
     <use xlink:href="#Arial-BoldMT-69" transform="translate(2717.216797 0)"/>
     <use xlink:href="#Arial-BoldMT-63" transform="translate(2745 0)"/>
     <use xlink:href="#Arial-BoldMT-74" transform="translate(2800.615234 0)"/>
     <use xlink:href="#Arial-BoldMT-69" transform="translate(2833.916016 0)"/>
     <use xlink:href="#Arial-BoldMT-6f" transform="translate(2861.699219 0)"/>
     <use xlink:href="#Arial-BoldMT-6e" transform="translate(2922.783203 0)"/>
     <use xlink:href="#Arial-BoldMT-20" transform="translate(2983.867188 0)"/>
     <use xlink:href="#Arial-BoldMT-43" transform="translate(3011.650391 0)"/>
     <use xlink:href="#Arial-BoldMT-6c" transform="translate(3083.867188 0)"/>
     <use xlink:href="#Arial-BoldMT-61" transform="translate(3111.650391 0)"/>
     <use xlink:href="#Arial-BoldMT-73" transform="translate(3167.265625 0)"/>
     <use xlink:href="#Arial-BoldMT-73" transform="translate(3222.880859 0)"/>
     <use xlink:href="#Arial-BoldMT-20" transform="translate(3278.496094 0)"/>
     <use xlink:href="#Arial-BoldMT-28" transform="translate(3306.279297 0)"/>
     <use xlink:href="#Arial-BoldMT-31" transform="translate(3339.580078 0)"/>
     <use xlink:href="#Arial-BoldMT-31" transform="translate(3389.695312 0)"/>
     <use xlink:href="#Arial-BoldMT-41" transform="translate(3445.310547 0)"/>
     <use xlink:href="#Arial-BoldMT-41" transform="translate(3517.527344 0)"/>
     <use xlink:href="#Arial-BoldMT-29" transform="translate(3589.744141 0)"/>
    </g>
   </g>
  </g>
 </g>
 <defs>
  <clipPath id="pe3fb900d5f">
   <rect x="49.175" y="45.155157" width="944.86875" height="482.7969"/>
  </clipPath>
 </defs>
</svg>
