<?xml version="1.0" encoding="utf-8" standalone="no"?>
<!DOCTYPE svg PUBLIC "-//W3C//DTD SVG 1.1//EN"
  "http://www.w3.org/Graphics/SVG/1.1/DTD/svg11.dtd">
<svg xmlns:xlink="http://www.w3.org/1999/xlink" width="1001.21125pt" height="570.065494pt" viewBox="0 0 1001.21125 570.065494" xmlns="http://www.w3.org/2000/svg" version="1.1">
 <metadata>
  <rdf:RDF xmlns:dc="http://purl.org/dc/elements/1.1/" xmlns:cc="http://creativecommons.org/ns#" xmlns:rdf="http://www.w3.org/1999/02/22-rdf-syntax-ns#">
   <cc:Work>
    <dc:type rdf:resource="http://purl.org/dc/dcmitype/StillImage"/>
    <dc:date>2025-05-22T10:17:32.062944</dc:date>
    <dc:format>image/svg+xml</dc:format>
    <dc:creator>
     <cc:Agent>
      <dc:title>Matplotlib v3.10.3, https://matplotlib.org/</dc:title>
     </cc:Agent>
    </dc:creator>
   </cc:Work>
  </rdf:RDF>
 </metadata>
 <defs>
  <style type="text/css">*{stroke-linejoin: round; stroke-linecap: butt}</style>
 </defs>
 <g id="figure_1">
  <g id="patch_1">
   <path d="M 0 570.065494 
L 1001.21125 570.065494 
L 1001.21125 0 
L 0 0 
z
" style="fill: #ffffff"/>
  </g>
  <g id="axes_1">
   <g id="patch_2">
    <path d="M 53.4625 527.952057 
L 994.01125 527.952057 
L 994.01125 45.155157 
L 53.4625 45.155157 
z
" style="fill: #ffffff"/>
   </g>
   <g id="matplotlib.axis_1">
    <g id="xtick_1">
     <g id="text_1">
      <!-- HC substrate -->
      <g style="fill: #262626" transform="translate(130.185 541.472995) scale(0.14 -0.14)">
       <defs>
        <path id="ArialMT-48" d="M 513 0 
L 513 4581 
L 1119 4581 
L 1119 2700 
L 3500 2700 
L 3500 4581 
L 4106 4581 
L 4106 0 
L 3500 0 
L 3500 2159 
L 1119 2159 
L 1119 0 
L 513 0 
z
" transform="scale(0.015625)"/>
        <path id="ArialMT-43" d="M 3763 1606 
L 4369 1453 
Q 4178 706 3683 314 
Q 3188 -78 2472 -78 
Q 1731 -78 1267 223 
Q 803 525 561 1097 
Q 319 1669 319 2325 
Q 319 3041 592 3573 
Q 866 4106 1370 4382 
Q 1875 4659 2481 4659 
Q 3169 4659 3637 4309 
Q 4106 3959 4291 3325 
L 3694 3184 
Q 3534 3684 3231 3912 
Q 2928 4141 2469 4141 
Q 1941 4141 1586 3887 
Q 1231 3634 1087 3207 
Q 944 2781 944 2328 
Q 944 1744 1114 1308 
Q 1284 872 1643 656 
Q 2003 441 2422 441 
Q 2931 441 3284 734 
Q 3638 1028 3763 1606 
z
" transform="scale(0.015625)"/>
        <path id="ArialMT-20" transform="scale(0.015625)"/>
        <path id="ArialMT-73" d="M 197 991 
L 753 1078 
Q 800 744 1014 566 
Q 1228 388 1613 388 
Q 2000 388 2187 545 
Q 2375 703 2375 916 
Q 2375 1106 2209 1216 
Q 2094 1291 1634 1406 
Q 1016 1563 777 1677 
Q 538 1791 414 1992 
Q 291 2194 291 2438 
Q 291 2659 392 2848 
Q 494 3038 669 3163 
Q 800 3259 1026 3326 
Q 1253 3394 1513 3394 
Q 1903 3394 2198 3281 
Q 2494 3169 2634 2976 
Q 2775 2784 2828 2463 
L 2278 2388 
Q 2241 2644 2061 2787 
Q 1881 2931 1553 2931 
Q 1166 2931 1000 2803 
Q 834 2675 834 2503 
Q 834 2394 903 2306 
Q 972 2216 1119 2156 
Q 1203 2125 1616 2013 
Q 2213 1853 2448 1751 
Q 2684 1650 2818 1456 
Q 2953 1263 2953 975 
Q 2953 694 2789 445 
Q 2625 197 2315 61 
Q 2006 -75 1616 -75 
Q 969 -75 630 194 
Q 291 463 197 991 
z
" transform="scale(0.015625)"/>
        <path id="ArialMT-75" d="M 2597 0 
L 2597 488 
Q 2209 -75 1544 -75 
Q 1250 -75 995 37 
Q 741 150 617 320 
Q 494 491 444 738 
Q 409 903 409 1263 
L 409 3319 
L 972 3319 
L 972 1478 
Q 972 1038 1006 884 
Q 1059 663 1231 536 
Q 1403 409 1656 409 
Q 1909 409 2131 539 
Q 2353 669 2445 892 
Q 2538 1116 2538 1541 
L 2538 3319 
L 3100 3319 
L 3100 0 
L 2597 0 
z
" transform="scale(0.015625)"/>
        <path id="ArialMT-62" d="M 941 0 
L 419 0 
L 419 4581 
L 981 4581 
L 981 2947 
Q 1338 3394 1891 3394 
Q 2197 3394 2470 3270 
Q 2744 3147 2920 2923 
Q 3097 2700 3197 2384 
Q 3297 2069 3297 1709 
Q 3297 856 2875 390 
Q 2453 -75 1863 -75 
Q 1275 -75 941 416 
L 941 0 
z
M 934 1684 
Q 934 1088 1097 822 
Q 1363 388 1816 388 
Q 2184 388 2453 708 
Q 2722 1028 2722 1663 
Q 2722 2313 2464 2622 
Q 2206 2931 1841 2931 
Q 1472 2931 1203 2611 
Q 934 2291 934 1684 
z
" transform="scale(0.015625)"/>
        <path id="ArialMT-74" d="M 1650 503 
L 1731 6 
Q 1494 -44 1306 -44 
Q 1000 -44 831 53 
Q 663 150 594 308 
Q 525 466 525 972 
L 525 2881 
L 113 2881 
L 113 3319 
L 525 3319 
L 525 4141 
L 1084 4478 
L 1084 3319 
L 1650 3319 
L 1650 2881 
L 1084 2881 
L 1084 941 
Q 1084 700 1114 631 
Q 1144 563 1211 522 
Q 1278 481 1403 481 
Q 1497 481 1650 503 
z
" transform="scale(0.015625)"/>
        <path id="ArialMT-72" d="M 416 0 
L 416 3319 
L 922 3319 
L 922 2816 
Q 1116 3169 1280 3281 
Q 1444 3394 1641 3394 
Q 1925 3394 2219 3213 
L 2025 2691 
Q 1819 2813 1613 2813 
Q 1428 2813 1281 2702 
Q 1134 2591 1072 2394 
Q 978 2094 978 1738 
L 978 0 
L 416 0 
z
" transform="scale(0.015625)"/>
        <path id="ArialMT-61" d="M 2588 409 
Q 2275 144 1986 34 
Q 1697 -75 1366 -75 
Q 819 -75 525 192 
Q 231 459 231 875 
Q 231 1119 342 1320 
Q 453 1522 633 1644 
Q 813 1766 1038 1828 
Q 1203 1872 1538 1913 
Q 2219 1994 2541 2106 
Q 2544 2222 2544 2253 
Q 2544 2597 2384 2738 
Q 2169 2928 1744 2928 
Q 1347 2928 1158 2789 
Q 969 2650 878 2297 
L 328 2372 
Q 403 2725 575 2942 
Q 747 3159 1072 3276 
Q 1397 3394 1825 3394 
Q 2250 3394 2515 3294 
Q 2781 3194 2906 3042 
Q 3031 2891 3081 2659 
Q 3109 2516 3109 2141 
L 3109 1391 
Q 3109 606 3145 398 
Q 3181 191 3288 0 
L 2700 0 
Q 2613 175 2588 409 
z
M 2541 1666 
Q 2234 1541 1622 1453 
Q 1275 1403 1131 1340 
Q 988 1278 909 1158 
Q 831 1038 831 891 
Q 831 666 1001 516 
Q 1172 366 1500 366 
Q 1825 366 2078 508 
Q 2331 650 2450 897 
Q 2541 1088 2541 1459 
L 2541 1666 
z
" transform="scale(0.015625)"/>
        <path id="ArialMT-65" d="M 2694 1069 
L 3275 997 
Q 3138 488 2766 206 
Q 2394 -75 1816 -75 
Q 1088 -75 661 373 
Q 234 822 234 1631 
Q 234 2469 665 2931 
Q 1097 3394 1784 3394 
Q 2450 3394 2872 2941 
Q 3294 2488 3294 1666 
Q 3294 1616 3291 1516 
L 816 1516 
Q 847 969 1125 678 
Q 1403 388 1819 388 
Q 2128 388 2347 550 
Q 2566 713 2694 1069 
z
M 847 1978 
L 2700 1978 
Q 2663 2397 2488 2606 
Q 2219 2931 1791 2931 
Q 1403 2931 1139 2672 
Q 875 2413 847 1978 
z
" transform="scale(0.015625)"/>
       </defs>
       <use xlink:href="#ArialMT-48"/>
       <use xlink:href="#ArialMT-43" transform="translate(72.216797 0)"/>
       <use xlink:href="#ArialMT-20" transform="translate(144.433594 0)"/>
       <use xlink:href="#ArialMT-73" transform="translate(172.216797 0)"/>
       <use xlink:href="#ArialMT-75" transform="translate(222.216797 0)"/>
       <use xlink:href="#ArialMT-62" transform="translate(277.832031 0)"/>
       <use xlink:href="#ArialMT-73" transform="translate(333.447266 0)"/>
       <use xlink:href="#ArialMT-74" transform="translate(383.447266 0)"/>
       <use xlink:href="#ArialMT-72" transform="translate(411.230469 0)"/>
       <use xlink:href="#ArialMT-61" transform="translate(444.53125 0)"/>
       <use xlink:href="#ArialMT-74" transform="translate(500.146484 0)"/>
       <use xlink:href="#ArialMT-65" transform="translate(527.929688 0)"/>
      </g>
     </g>
    </g>
    <g id="xtick_2">
     <g id="text_2">
      <!-- LC substrate -->
      <g style="fill: #262626" transform="translate(366.484844 541.472995) scale(0.14 -0.14)">
       <defs>
        <path id="ArialMT-4c" d="M 469 0 
L 469 4581 
L 1075 4581 
L 1075 541 
L 3331 541 
L 3331 0 
L 469 0 
z
" transform="scale(0.015625)"/>
       </defs>
       <use xlink:href="#ArialMT-4c"/>
       <use xlink:href="#ArialMT-43" transform="translate(55.615234 0)"/>
       <use xlink:href="#ArialMT-20" transform="translate(127.832031 0)"/>
       <use xlink:href="#ArialMT-73" transform="translate(155.615234 0)"/>
       <use xlink:href="#ArialMT-75" transform="translate(205.615234 0)"/>
       <use xlink:href="#ArialMT-62" transform="translate(261.230469 0)"/>
       <use xlink:href="#ArialMT-73" transform="translate(316.845703 0)"/>
       <use xlink:href="#ArialMT-74" transform="translate(366.845703 0)"/>
       <use xlink:href="#ArialMT-72" transform="translate(394.628906 0)"/>
       <use xlink:href="#ArialMT-61" transform="translate(427.929688 0)"/>
       <use xlink:href="#ArialMT-74" transform="translate(483.544922 0)"/>
       <use xlink:href="#ArialMT-65" transform="translate(511.328125 0)"/>
      </g>
     </g>
    </g>
    <g id="xtick_3">
     <g id="text_3">
      <!-- LC non-substrate -->
      <g style="fill: #262626" transform="translate(587.613281 541.472995) scale(0.14 -0.14)">
       <defs>
        <path id="ArialMT-6e" d="M 422 0 
L 422 3319 
L 928 3319 
L 928 2847 
Q 1294 3394 1984 3394 
Q 2284 3394 2536 3286 
Q 2788 3178 2913 3003 
Q 3038 2828 3088 2588 
Q 3119 2431 3119 2041 
L 3119 0 
L 2556 0 
L 2556 2019 
Q 2556 2363 2490 2533 
Q 2425 2703 2258 2804 
Q 2091 2906 1866 2906 
Q 1506 2906 1245 2678 
Q 984 2450 984 1813 
L 984 0 
L 422 0 
z
" transform="scale(0.015625)"/>
        <path id="ArialMT-6f" d="M 213 1659 
Q 213 2581 725 3025 
Q 1153 3394 1769 3394 
Q 2453 3394 2887 2945 
Q 3322 2497 3322 1706 
Q 3322 1066 3130 698 
Q 2938 331 2570 128 
Q 2203 -75 1769 -75 
Q 1072 -75 642 372 
Q 213 819 213 1659 
z
M 791 1659 
Q 791 1022 1069 705 
Q 1347 388 1769 388 
Q 2188 388 2466 706 
Q 2744 1025 2744 1678 
Q 2744 2294 2464 2611 
Q 2184 2928 1769 2928 
Q 1347 2928 1069 2612 
Q 791 2297 791 1659 
z
" transform="scale(0.015625)"/>
        <path id="ArialMT-2d" d="M 203 1375 
L 203 1941 
L 1931 1941 
L 1931 1375 
L 203 1375 
z
" transform="scale(0.015625)"/>
       </defs>
       <use xlink:href="#ArialMT-4c"/>
       <use xlink:href="#ArialMT-43" transform="translate(55.615234 0)"/>
       <use xlink:href="#ArialMT-20" transform="translate(127.832031 0)"/>
       <use xlink:href="#ArialMT-6e" transform="translate(155.615234 0)"/>
       <use xlink:href="#ArialMT-6f" transform="translate(211.230469 0)"/>
       <use xlink:href="#ArialMT-6e" transform="translate(266.845703 0)"/>
       <use xlink:href="#ArialMT-2d" transform="translate(322.460938 0)"/>
       <use xlink:href="#ArialMT-73" transform="translate(355.761719 0)"/>
       <use xlink:href="#ArialMT-75" transform="translate(405.761719 0)"/>
       <use xlink:href="#ArialMT-62" transform="translate(461.376953 0)"/>
       <use xlink:href="#ArialMT-73" transform="translate(516.992188 0)"/>
       <use xlink:href="#ArialMT-74" transform="translate(566.992188 0)"/>
       <use xlink:href="#ArialMT-72" transform="translate(594.775391 0)"/>
       <use xlink:href="#ArialMT-61" transform="translate(628.076172 0)"/>
       <use xlink:href="#ArialMT-74" transform="translate(683.691406 0)"/>
       <use xlink:href="#ArialMT-65" transform="translate(711.474609 0)"/>
      </g>
     </g>
    </g>
    <g id="xtick_4">
     <g id="text_4">
      <!-- HC non-substrate -->
      <g style="fill: #262626" transform="translate(821.587813 541.472995) scale(0.14 -0.14)">
       <use xlink:href="#ArialMT-48"/>
       <use xlink:href="#ArialMT-43" transform="translate(72.216797 0)"/>
       <use xlink:href="#ArialMT-20" transform="translate(144.433594 0)"/>
       <use xlink:href="#ArialMT-6e" transform="translate(172.216797 0)"/>
       <use xlink:href="#ArialMT-6f" transform="translate(227.832031 0)"/>
       <use xlink:href="#ArialMT-6e" transform="translate(283.447266 0)"/>
       <use xlink:href="#ArialMT-2d" transform="translate(339.0625 0)"/>
       <use xlink:href="#ArialMT-73" transform="translate(372.363281 0)"/>
       <use xlink:href="#ArialMT-75" transform="translate(422.363281 0)"/>
       <use xlink:href="#ArialMT-62" transform="translate(477.978516 0)"/>
       <use xlink:href="#ArialMT-73" transform="translate(533.59375 0)"/>
       <use xlink:href="#ArialMT-74" transform="translate(583.59375 0)"/>
       <use xlink:href="#ArialMT-72" transform="translate(611.376953 0)"/>
       <use xlink:href="#ArialMT-61" transform="translate(644.677734 0)"/>
       <use xlink:href="#ArialMT-74" transform="translate(700.292969 0)"/>
       <use xlink:href="#ArialMT-65" transform="translate(728.076172 0)"/>
      </g>
     </g>
    </g>
    <g id="text_5">
     <!-- Prediction Class -->
     <g style="fill: #262626" transform="translate(461.053125 559.707995) scale(0.16 -0.16)">
      <defs>
       <path id="Arial-BoldMT-50" d="M 466 0 
L 466 4581 
L 1950 4581 
Q 2794 4581 3050 4513 
Q 3444 4409 3709 4064 
Q 3975 3719 3975 3172 
Q 3975 2750 3822 2462 
Q 3669 2175 3433 2011 
Q 3197 1847 2953 1794 
Q 2622 1728 1994 1728 
L 1391 1728 
L 1391 0 
L 466 0 
z
M 1391 3806 
L 1391 2506 
L 1897 2506 
Q 2444 2506 2628 2578 
Q 2813 2650 2917 2803 
Q 3022 2956 3022 3159 
Q 3022 3409 2875 3571 
Q 2728 3734 2503 3775 
Q 2338 3806 1838 3806 
L 1391 3806 
z
" transform="scale(0.015625)"/>
       <path id="Arial-BoldMT-72" d="M 1300 0 
L 422 0 
L 422 3319 
L 1238 3319 
L 1238 2847 
Q 1447 3181 1614 3287 
Q 1781 3394 1994 3394 
Q 2294 3394 2572 3228 
L 2300 2463 
Q 2078 2606 1888 2606 
Q 1703 2606 1575 2504 
Q 1447 2403 1373 2137 
Q 1300 1872 1300 1025 
L 1300 0 
z
" transform="scale(0.015625)"/>
       <path id="Arial-BoldMT-65" d="M 2381 1056 
L 3256 909 
Q 3088 428 2723 176 
Q 2359 -75 1813 -75 
Q 947 -75 531 491 
Q 203 944 203 1634 
Q 203 2459 634 2926 
Q 1066 3394 1725 3394 
Q 2466 3394 2894 2905 
Q 3322 2416 3303 1406 
L 1103 1406 
Q 1113 1016 1316 798 
Q 1519 581 1822 581 
Q 2028 581 2168 693 
Q 2309 806 2381 1056 
z
M 2431 1944 
Q 2422 2325 2234 2523 
Q 2047 2722 1778 2722 
Q 1491 2722 1303 2513 
Q 1116 2303 1119 1944 
L 2431 1944 
z
" transform="scale(0.015625)"/>
       <path id="Arial-BoldMT-64" d="M 3503 0 
L 2688 0 
L 2688 488 
Q 2484 203 2207 64 
Q 1931 -75 1650 -75 
Q 1078 -75 670 386 
Q 263 847 263 1672 
Q 263 2516 659 2955 
Q 1056 3394 1663 3394 
Q 2219 3394 2625 2931 
L 2625 4581 
L 3503 4581 
L 3503 0 
z
M 1159 1731 
Q 1159 1200 1306 963 
Q 1519 619 1900 619 
Q 2203 619 2415 876 
Q 2628 1134 2628 1647 
Q 2628 2219 2422 2470 
Q 2216 2722 1894 2722 
Q 1581 2722 1370 2473 
Q 1159 2225 1159 1731 
z
" transform="scale(0.015625)"/>
       <path id="Arial-BoldMT-69" d="M 459 3769 
L 459 4581 
L 1338 4581 
L 1338 3769 
L 459 3769 
z
M 459 0 
L 459 3319 
L 1338 3319 
L 1338 0 
L 459 0 
z
" transform="scale(0.015625)"/>
       <path id="Arial-BoldMT-63" d="M 3353 2338 
L 2488 2181 
Q 2444 2441 2289 2572 
Q 2134 2703 1888 2703 
Q 1559 2703 1364 2476 
Q 1169 2250 1169 1719 
Q 1169 1128 1367 884 
Q 1566 641 1900 641 
Q 2150 641 2309 783 
Q 2469 925 2534 1272 
L 3397 1125 
Q 3263 531 2881 228 
Q 2500 -75 1859 -75 
Q 1131 -75 698 384 
Q 266 844 266 1656 
Q 266 2478 700 2936 
Q 1134 3394 1875 3394 
Q 2481 3394 2839 3133 
Q 3197 2872 3353 2338 
z
" transform="scale(0.015625)"/>
       <path id="Arial-BoldMT-74" d="M 1981 3319 
L 1981 2619 
L 1381 2619 
L 1381 1281 
Q 1381 875 1398 808 
Q 1416 741 1477 697 
Q 1538 653 1625 653 
Q 1747 653 1978 738 
L 2053 56 
Q 1747 -75 1359 -75 
Q 1122 -75 931 4 
Q 741 84 652 211 
Q 563 338 528 553 
Q 500 706 500 1172 
L 500 2619 
L 97 2619 
L 97 3319 
L 500 3319 
L 500 3978 
L 1381 4491 
L 1381 3319 
L 1981 3319 
z
" transform="scale(0.015625)"/>
       <path id="Arial-BoldMT-6f" d="M 256 1706 
Q 256 2144 472 2553 
Q 688 2963 1083 3178 
Q 1478 3394 1966 3394 
Q 2719 3394 3200 2905 
Q 3681 2416 3681 1669 
Q 3681 916 3195 420 
Q 2709 -75 1972 -75 
Q 1516 -75 1102 131 
Q 688 338 472 736 
Q 256 1134 256 1706 
z
M 1156 1659 
Q 1156 1166 1390 903 
Q 1625 641 1969 641 
Q 2313 641 2545 903 
Q 2778 1166 2778 1666 
Q 2778 2153 2545 2415 
Q 2313 2678 1969 2678 
Q 1625 2678 1390 2415 
Q 1156 2153 1156 1659 
z
" transform="scale(0.015625)"/>
       <path id="Arial-BoldMT-6e" d="M 3478 0 
L 2600 0 
L 2600 1694 
Q 2600 2231 2544 2389 
Q 2488 2547 2361 2634 
Q 2234 2722 2056 2722 
Q 1828 2722 1647 2597 
Q 1466 2472 1398 2265 
Q 1331 2059 1331 1503 
L 1331 0 
L 453 0 
L 453 3319 
L 1269 3319 
L 1269 2831 
Q 1703 3394 2363 3394 
Q 2653 3394 2893 3289 
Q 3134 3184 3257 3021 
Q 3381 2859 3429 2653 
Q 3478 2447 3478 2063 
L 3478 0 
z
" transform="scale(0.015625)"/>
       <path id="Arial-BoldMT-20" transform="scale(0.015625)"/>
       <path id="Arial-BoldMT-43" d="M 3397 1684 
L 4294 1400 
Q 4088 650 3608 286 
Q 3128 -78 2391 -78 
Q 1478 -78 890 545 
Q 303 1169 303 2250 
Q 303 3394 893 4026 
Q 1484 4659 2447 4659 
Q 3288 4659 3813 4163 
Q 4125 3869 4281 3319 
L 3366 3100 
Q 3284 3456 3026 3662 
Q 2769 3869 2400 3869 
Q 1891 3869 1573 3503 
Q 1256 3138 1256 2319 
Q 1256 1450 1568 1081 
Q 1881 713 2381 713 
Q 2750 713 3015 947 
Q 3281 1181 3397 1684 
z
" transform="scale(0.015625)"/>
       <path id="Arial-BoldMT-6c" d="M 459 0 
L 459 4581 
L 1338 4581 
L 1338 0 
L 459 0 
z
" transform="scale(0.015625)"/>
       <path id="Arial-BoldMT-61" d="M 1116 2306 
L 319 2450 
Q 453 2931 781 3162 
Q 1109 3394 1756 3394 
Q 2344 3394 2631 3255 
Q 2919 3116 3036 2902 
Q 3153 2688 3153 2116 
L 3144 1091 
Q 3144 653 3186 445 
Q 3228 238 3344 0 
L 2475 0 
Q 2441 88 2391 259 
Q 2369 338 2359 363 
Q 2134 144 1878 34 
Q 1622 -75 1331 -75 
Q 819 -75 523 203 
Q 228 481 228 906 
Q 228 1188 362 1408 
Q 497 1628 739 1745 
Q 981 1863 1438 1950 
Q 2053 2066 2291 2166 
L 2291 2253 
Q 2291 2506 2166 2614 
Q 2041 2722 1694 2722 
Q 1459 2722 1328 2630 
Q 1197 2538 1116 2306 
z
M 2291 1594 
Q 2122 1538 1756 1459 
Q 1391 1381 1278 1306 
Q 1106 1184 1106 997 
Q 1106 813 1243 678 
Q 1381 544 1594 544 
Q 1831 544 2047 700 
Q 2206 819 2256 991 
Q 2291 1103 2291 1419 
L 2291 1594 
z
" transform="scale(0.015625)"/>
       <path id="Arial-BoldMT-73" d="M 150 947 
L 1031 1081 
Q 1088 825 1259 692 
Q 1431 559 1741 559 
Q 2081 559 2253 684 
Q 2369 772 2369 919 
Q 2369 1019 2306 1084 
Q 2241 1147 2013 1200 
Q 950 1434 666 1628 
Q 272 1897 272 2375 
Q 272 2806 612 3100 
Q 953 3394 1669 3394 
Q 2350 3394 2681 3172 
Q 3013 2950 3138 2516 
L 2309 2363 
Q 2256 2556 2107 2659 
Q 1959 2763 1684 2763 
Q 1338 2763 1188 2666 
Q 1088 2597 1088 2488 
Q 1088 2394 1175 2328 
Q 1294 2241 1995 2081 
Q 2697 1922 2975 1691 
Q 3250 1456 3250 1038 
Q 3250 581 2869 253 
Q 2488 -75 1741 -75 
Q 1063 -75 667 200 
Q 272 475 150 947 
z
" transform="scale(0.015625)"/>
      </defs>
      <use xlink:href="#Arial-BoldMT-50"/>
      <use xlink:href="#Arial-BoldMT-72" transform="translate(66.699219 0)"/>
      <use xlink:href="#Arial-BoldMT-65" transform="translate(105.615234 0)"/>
      <use xlink:href="#Arial-BoldMT-64" transform="translate(161.230469 0)"/>
      <use xlink:href="#Arial-BoldMT-69" transform="translate(222.314453 0)"/>
      <use xlink:href="#Arial-BoldMT-63" transform="translate(250.097656 0)"/>
      <use xlink:href="#Arial-BoldMT-74" transform="translate(305.712891 0)"/>
      <use xlink:href="#Arial-BoldMT-69" transform="translate(339.013672 0)"/>
      <use xlink:href="#Arial-BoldMT-6f" transform="translate(366.796875 0)"/>
      <use xlink:href="#Arial-BoldMT-6e" transform="translate(427.880859 0)"/>
      <use xlink:href="#Arial-BoldMT-20" transform="translate(488.964844 0)"/>
      <use xlink:href="#Arial-BoldMT-43" transform="translate(516.748047 0)"/>
      <use xlink:href="#Arial-BoldMT-6c" transform="translate(588.964844 0)"/>
      <use xlink:href="#Arial-BoldMT-61" transform="translate(616.748047 0)"/>
      <use xlink:href="#Arial-BoldMT-73" transform="translate(672.363281 0)"/>
      <use xlink:href="#Arial-BoldMT-73" transform="translate(727.978516 0)"/>
     </g>
    </g>
   </g>
   <g id="matplotlib.axis_2">
    <g id="ytick_1">
     <g id="text_6">
      <!-- −16 -->
      <g style="fill: #262626" transform="translate(26.215 58.22698) scale(0.14 -0.14)">
       <defs>
        <path id="ArialMT-2212" d="M 3381 1997 
L 356 1997 
L 356 2522 
L 3381 2522 
L 3381 1997 
z
" transform="scale(0.015625)"/>
        <path id="ArialMT-31" d="M 2384 0 
L 1822 0 
L 1822 3584 
Q 1619 3391 1289 3197 
Q 959 3003 697 2906 
L 697 3450 
Q 1169 3672 1522 3987 
Q 1875 4303 2022 4600 
L 2384 4600 
L 2384 0 
z
" transform="scale(0.015625)"/>
        <path id="ArialMT-36" d="M 3184 3459 
L 2625 3416 
Q 2550 3747 2413 3897 
Q 2184 4138 1850 4138 
Q 1581 4138 1378 3988 
Q 1113 3794 959 3422 
Q 806 3050 800 2363 
Q 1003 2672 1297 2822 
Q 1591 2972 1913 2972 
Q 2475 2972 2870 2558 
Q 3266 2144 3266 1488 
Q 3266 1056 3080 686 
Q 2894 316 2569 119 
Q 2244 -78 1831 -78 
Q 1128 -78 684 439 
Q 241 956 241 2144 
Q 241 3472 731 4075 
Q 1159 4600 1884 4600 
Q 2425 4600 2770 4297 
Q 3116 3994 3184 3459 
z
M 888 1484 
Q 888 1194 1011 928 
Q 1134 663 1356 523 
Q 1578 384 1822 384 
Q 2178 384 2434 671 
Q 2691 959 2691 1453 
Q 2691 1928 2437 2201 
Q 2184 2475 1800 2475 
Q 1419 2475 1153 2201 
Q 888 1928 888 1484 
z
" transform="scale(0.015625)"/>
       </defs>
       <use xlink:href="#ArialMT-2212"/>
       <use xlink:href="#ArialMT-31" transform="translate(58.398438 0)"/>
       <use xlink:href="#ArialMT-36" transform="translate(114.013672 0)"/>
      </g>
     </g>
    </g>
    <g id="ytick_2">
     <g id="text_7">
      <!-- −14 -->
      <g style="fill: #262626" transform="translate(26.215 128.632452) scale(0.14 -0.14)">
       <defs>
        <path id="ArialMT-34" d="M 2069 0 
L 2069 1097 
L 81 1097 
L 81 1613 
L 2172 4581 
L 2631 4581 
L 2631 1613 
L 3250 1613 
L 3250 1097 
L 2631 1097 
L 2631 0 
L 2069 0 
z
M 2069 1613 
L 2069 3678 
L 634 1613 
L 2069 1613 
z
" transform="scale(0.015625)"/>
       </defs>
       <use xlink:href="#ArialMT-2212"/>
       <use xlink:href="#ArialMT-31" transform="translate(58.398438 0)"/>
       <use xlink:href="#ArialMT-34" transform="translate(114.013672 0)"/>
      </g>
     </g>
    </g>
    <g id="ytick_3">
     <g id="text_8">
      <!-- −12 -->
      <g style="fill: #262626" transform="translate(26.215 199.037924) scale(0.14 -0.14)">
       <defs>
        <path id="ArialMT-32" d="M 3222 541 
L 3222 0 
L 194 0 
Q 188 203 259 391 
Q 375 700 629 1000 
Q 884 1300 1366 1694 
Q 2113 2306 2375 2664 
Q 2638 3022 2638 3341 
Q 2638 3675 2398 3904 
Q 2159 4134 1775 4134 
Q 1369 4134 1125 3890 
Q 881 3647 878 3216 
L 300 3275 
Q 359 3922 746 4261 
Q 1134 4600 1788 4600 
Q 2447 4600 2831 4234 
Q 3216 3869 3216 3328 
Q 3216 3053 3103 2787 
Q 2991 2522 2730 2228 
Q 2469 1934 1863 1422 
Q 1356 997 1212 845 
Q 1069 694 975 541 
L 3222 541 
z
" transform="scale(0.015625)"/>
       </defs>
       <use xlink:href="#ArialMT-2212"/>
       <use xlink:href="#ArialMT-31" transform="translate(58.398438 0)"/>
       <use xlink:href="#ArialMT-32" transform="translate(114.013672 0)"/>
      </g>
     </g>
    </g>
    <g id="ytick_4">
     <g id="text_9">
      <!-- −10 -->
      <g style="fill: #262626" transform="translate(26.215 269.443396) scale(0.14 -0.14)">
       <defs>
        <path id="ArialMT-30" d="M 266 2259 
Q 266 3072 433 3567 
Q 600 4063 929 4331 
Q 1259 4600 1759 4600 
Q 2128 4600 2406 4451 
Q 2684 4303 2865 4023 
Q 3047 3744 3150 3342 
Q 3253 2941 3253 2259 
Q 3253 1453 3087 958 
Q 2922 463 2592 192 
Q 2263 -78 1759 -78 
Q 1097 -78 719 397 
Q 266 969 266 2259 
z
M 844 2259 
Q 844 1131 1108 757 
Q 1372 384 1759 384 
Q 2147 384 2411 759 
Q 2675 1134 2675 2259 
Q 2675 3391 2411 3762 
Q 2147 4134 1753 4134 
Q 1366 4134 1134 3806 
Q 844 3388 844 2259 
z
" transform="scale(0.015625)"/>
       </defs>
       <use xlink:href="#ArialMT-2212"/>
       <use xlink:href="#ArialMT-31" transform="translate(58.398438 0)"/>
       <use xlink:href="#ArialMT-30" transform="translate(114.013672 0)"/>
      </g>
     </g>
    </g>
    <g id="ytick_5">
     <g id="text_10">
      <!-- −8 -->
      <g style="fill: #262626" transform="translate(34.000313 339.848869) scale(0.14 -0.14)">
       <defs>
        <path id="ArialMT-38" d="M 1131 2484 
Q 781 2613 612 2850 
Q 444 3088 444 3419 
Q 444 3919 803 4259 
Q 1163 4600 1759 4600 
Q 2359 4600 2725 4251 
Q 3091 3903 3091 3403 
Q 3091 3084 2923 2848 
Q 2756 2613 2416 2484 
Q 2838 2347 3058 2040 
Q 3278 1734 3278 1309 
Q 3278 722 2862 322 
Q 2447 -78 1769 -78 
Q 1091 -78 675 323 
Q 259 725 259 1325 
Q 259 1772 486 2073 
Q 713 2375 1131 2484 
z
M 1019 3438 
Q 1019 3113 1228 2906 
Q 1438 2700 1772 2700 
Q 2097 2700 2305 2904 
Q 2513 3109 2513 3406 
Q 2513 3716 2298 3927 
Q 2084 4138 1766 4138 
Q 1444 4138 1231 3931 
Q 1019 3725 1019 3438 
z
M 838 1322 
Q 838 1081 952 856 
Q 1066 631 1291 507 
Q 1516 384 1775 384 
Q 2178 384 2440 643 
Q 2703 903 2703 1303 
Q 2703 1709 2433 1975 
Q 2163 2241 1756 2241 
Q 1359 2241 1098 1978 
Q 838 1716 838 1322 
z
" transform="scale(0.015625)"/>
       </defs>
       <use xlink:href="#ArialMT-2212"/>
       <use xlink:href="#ArialMT-38" transform="translate(58.398438 0)"/>
      </g>
     </g>
    </g>
    <g id="ytick_6">
     <g id="text_11">
      <!-- −6 -->
      <g style="fill: #262626" transform="translate(34.000313 410.254341) scale(0.14 -0.14)">
       <use xlink:href="#ArialMT-2212"/>
       <use xlink:href="#ArialMT-36" transform="translate(58.398438 0)"/>
      </g>
     </g>
    </g>
    <g id="ytick_7">
     <g id="text_12">
      <!-- −4 -->
      <g style="fill: #262626" transform="translate(34.000313 480.659813) scale(0.14 -0.14)">
       <use xlink:href="#ArialMT-2212"/>
       <use xlink:href="#ArialMT-34" transform="translate(58.398438 0)"/>
      </g>
     </g>
    </g>
    <g id="text_13">
     <!-- Average Pathogenicity (LLR) -->
     <g style="fill: #262626" transform="translate(18.8475 395.597357) rotate(-90) scale(0.16 -0.16)">
      <defs>
       <path id="Arial-BoldMT-41" d="M 4597 0 
L 3591 0 
L 3191 1041 
L 1359 1041 
L 981 0 
L 0 0 
L 1784 4581 
L 2763 4581 
L 4597 0 
z
M 2894 1813 
L 2263 3513 
L 1644 1813 
L 2894 1813 
z
" transform="scale(0.015625)"/>
       <path id="Arial-BoldMT-76" d="M 1372 0 
L 34 3319 
L 956 3319 
L 1581 1625 
L 1763 1059 
Q 1834 1275 1853 1344 
Q 1897 1484 1947 1625 
L 2578 3319 
L 3481 3319 
L 2163 0 
L 1372 0 
z
" transform="scale(0.015625)"/>
       <path id="Arial-BoldMT-67" d="M 378 -219 
L 1381 -341 
Q 1406 -516 1497 -581 
Q 1622 -675 1891 -675 
Q 2234 -675 2406 -572 
Q 2522 -503 2581 -350 
Q 2622 -241 2622 53 
L 2622 538 
Q 2228 0 1628 0 
Q 959 0 569 566 
Q 263 1013 263 1678 
Q 263 2513 664 2953 
Q 1066 3394 1663 3394 
Q 2278 3394 2678 2853 
L 2678 3319 
L 3500 3319 
L 3500 341 
Q 3500 -247 3403 -537 
Q 3306 -828 3131 -993 
Q 2956 -1159 2664 -1253 
Q 2372 -1347 1925 -1347 
Q 1081 -1347 728 -1058 
Q 375 -769 375 -325 
Q 375 -281 378 -219 
z
M 1163 1728 
Q 1163 1200 1367 954 
Q 1572 709 1872 709 
Q 2194 709 2416 961 
Q 2638 1213 2638 1706 
Q 2638 2222 2425 2472 
Q 2213 2722 1888 2722 
Q 1572 2722 1367 2476 
Q 1163 2231 1163 1728 
z
" transform="scale(0.015625)"/>
       <path id="Arial-BoldMT-68" d="M 1334 4581 
L 1334 2897 
Q 1759 3394 2350 3394 
Q 2653 3394 2897 3281 
Q 3141 3169 3264 2994 
Q 3388 2819 3433 2606 
Q 3478 2394 3478 1947 
L 3478 0 
L 2600 0 
L 2600 1753 
Q 2600 2275 2550 2415 
Q 2500 2556 2373 2639 
Q 2247 2722 2056 2722 
Q 1838 2722 1666 2615 
Q 1494 2509 1414 2295 
Q 1334 2081 1334 1663 
L 1334 0 
L 456 0 
L 456 4581 
L 1334 4581 
z
" transform="scale(0.015625)"/>
       <path id="Arial-BoldMT-79" d="M 44 3319 
L 978 3319 
L 1772 963 
L 2547 3319 
L 3456 3319 
L 2284 125 
L 2075 -453 
Q 1959 -744 1854 -897 
Q 1750 -1050 1614 -1145 
Q 1478 -1241 1279 -1294 
Q 1081 -1347 831 -1347 
Q 578 -1347 334 -1294 
L 256 -606 
Q 463 -647 628 -647 
Q 934 -647 1081 -467 
Q 1228 -288 1306 -9 
L 44 3319 
z
" transform="scale(0.015625)"/>
       <path id="Arial-BoldMT-28" d="M 1916 -1347 
L 1313 -1347 
Q 834 -625 584 153 
Q 334 931 334 1659 
Q 334 2563 644 3369 
Q 913 4069 1325 4659 
L 1925 4659 
Q 1497 3713 1336 3048 
Q 1175 2384 1175 1641 
Q 1175 1128 1270 590 
Q 1366 53 1531 -431 
Q 1641 -750 1916 -1347 
z
" transform="scale(0.015625)"/>
       <path id="Arial-BoldMT-4c" d="M 491 0 
L 491 4544 
L 1416 4544 
L 1416 772 
L 3716 772 
L 3716 0 
L 491 0 
z
" transform="scale(0.015625)"/>
       <path id="Arial-BoldMT-52" d="M 469 0 
L 469 4581 
L 2416 4581 
Q 3150 4581 3483 4457 
Q 3816 4334 4016 4018 
Q 4216 3703 4216 3297 
Q 4216 2781 3912 2445 
Q 3609 2109 3006 2022 
Q 3306 1847 3501 1637 
Q 3697 1428 4028 894 
L 4588 0 
L 3481 0 
L 2813 997 
Q 2456 1531 2325 1670 
Q 2194 1809 2047 1861 
Q 1900 1913 1581 1913 
L 1394 1913 
L 1394 0 
L 469 0 
z
M 1394 2644 
L 2078 2644 
Q 2744 2644 2909 2700 
Q 3075 2756 3169 2893 
Q 3263 3031 3263 3238 
Q 3263 3469 3139 3611 
Q 3016 3753 2791 3791 
Q 2678 3806 2116 3806 
L 1394 3806 
L 1394 2644 
z
" transform="scale(0.015625)"/>
       <path id="Arial-BoldMT-29" d="M 216 -1347 
Q 475 -791 581 -494 
Q 688 -197 778 190 
Q 869 578 912 926 
Q 956 1275 956 1641 
Q 956 2384 797 3048 
Q 638 3713 209 4659 
L 806 4659 
Q 1278 3988 1539 3234 
Q 1800 2481 1800 1706 
Q 1800 1053 1594 306 
Q 1359 -531 822 -1347 
L 216 -1347 
z
" transform="scale(0.015625)"/>
      </defs>
      <use xlink:href="#Arial-BoldMT-41"/>
      <use xlink:href="#Arial-BoldMT-76" transform="translate(68.466797 0)"/>
      <use xlink:href="#Arial-BoldMT-65" transform="translate(124.082031 0)"/>
      <use xlink:href="#Arial-BoldMT-72" transform="translate(179.697266 0)"/>
      <use xlink:href="#Arial-BoldMT-61" transform="translate(218.613281 0)"/>
      <use xlink:href="#Arial-BoldMT-67" transform="translate(274.228516 0)"/>
      <use xlink:href="#Arial-BoldMT-65" transform="translate(335.3125 0)"/>
      <use xlink:href="#Arial-BoldMT-20" transform="translate(390.927734 0)"/>
      <use xlink:href="#Arial-BoldMT-50" transform="translate(418.710938 0)"/>
      <use xlink:href="#Arial-BoldMT-61" transform="translate(485.410156 0)"/>
      <use xlink:href="#Arial-BoldMT-74" transform="translate(541.025391 0)"/>
      <use xlink:href="#Arial-BoldMT-68" transform="translate(574.326172 0)"/>
      <use xlink:href="#Arial-BoldMT-6f" transform="translate(635.410156 0)"/>
      <use xlink:href="#Arial-BoldMT-67" transform="translate(696.494141 0)"/>
      <use xlink:href="#Arial-BoldMT-65" transform="translate(757.578125 0)"/>
      <use xlink:href="#Arial-BoldMT-6e" transform="translate(813.193359 0)"/>
      <use xlink:href="#Arial-BoldMT-69" transform="translate(874.277344 0)"/>
      <use xlink:href="#Arial-BoldMT-63" transform="translate(902.060547 0)"/>
      <use xlink:href="#Arial-BoldMT-69" transform="translate(957.675781 0)"/>
      <use xlink:href="#Arial-BoldMT-74" transform="translate(985.458984 0)"/>
      <use xlink:href="#Arial-BoldMT-79" transform="translate(1018.759766 0)"/>
      <use xlink:href="#Arial-BoldMT-20" transform="translate(1074.375 0)"/>
      <use xlink:href="#Arial-BoldMT-28" transform="translate(1102.158203 0)"/>
      <use xlink:href="#Arial-BoldMT-4c" transform="translate(1135.458984 0)"/>
      <use xlink:href="#Arial-BoldMT-4c" transform="translate(1196.542969 0)"/>
      <use xlink:href="#Arial-BoldMT-52" transform="translate(1257.626953 0)"/>
      <use xlink:href="#Arial-BoldMT-29" transform="translate(1329.84375 0)"/>
     </g>
    </g>
   </g>
   <g id="patch_3">
    <path d="M 76.976219 206.346453 
L 265.085969 206.346453 
L 265.085969 369.719671 
L 76.976219 369.719671 
L 76.976219 206.346453 
z
" clip-path="url(#p4436392caf)" style="fill: #367182; stroke: #353535; stroke-linejoin: miter"/>
   </g>
   <g id="line2d_1">
    <path d="M 171.031094 206.346453 
L 171.031094 79.345102 
" clip-path="url(#p4436392caf)" style="fill: none; stroke: #353535"/>
   </g>
   <g id="line2d_2">
    <path d="M 171.031094 369.719671 
L 171.031094 431.176287 
" clip-path="url(#p4436392caf)" style="fill: none; stroke: #353535"/>
   </g>
   <g id="line2d_3">
    <path d="M 124.003656 79.345102 
L 218.058531 79.345102 
" clip-path="url(#p4436392caf)" style="fill: none; stroke: #353535; stroke-linecap: round"/>
   </g>
   <g id="line2d_4">
    <path d="M 124.003656 431.176287 
L 218.058531 431.176287 
" clip-path="url(#p4436392caf)" style="fill: none; stroke: #353535; stroke-linecap: round"/>
   </g>
   <g id="line2d_5"/>
   <g id="patch_4">
    <path d="M 312.113406 207.997941 
L 500.223156 207.997941 
L 500.223156 395.678968 
L 312.113406 395.678968 
L 312.113406 207.997941 
z
" clip-path="url(#p4436392caf)" style="fill: #2f837f; stroke: #353535; stroke-linejoin: miter"/>
   </g>
   <g id="line2d_6">
    <path d="M 406.168281 207.997941 
L 406.168281 71.523534 
" clip-path="url(#p4436392caf)" style="fill: none; stroke: #353535"/>
   </g>
   <g id="line2d_7">
    <path d="M 406.168281 395.678968 
L 406.168281 490.948613 
" clip-path="url(#p4436392caf)" style="fill: none; stroke: #353535"/>
   </g>
   <g id="line2d_8">
    <path d="M 359.140844 71.523534 
L 453.195719 71.523534 
" clip-path="url(#p4436392caf)" style="fill: none; stroke: #353535; stroke-linecap: round"/>
   </g>
   <g id="line2d_9">
    <path d="M 359.140844 490.948613 
L 453.195719 490.948613 
" clip-path="url(#p4436392caf)" style="fill: none; stroke: #353535; stroke-linecap: round"/>
   </g>
   <g id="line2d_10"/>
   <g id="patch_5">
    <path d="M 547.250594 239.382181 
L 735.360344 239.382181 
L 735.360344 424.216906 
L 547.250594 424.216906 
L 547.250594 239.382181 
z
" clip-path="url(#p4436392caf)" style="fill: #33977c; stroke: #353535; stroke-linejoin: miter"/>
   </g>
   <g id="line2d_11">
    <path d="M 641.305469 239.382181 
L 641.305469 67.100471 
" clip-path="url(#p4436392caf)" style="fill: none; stroke: #353535"/>
   </g>
   <g id="line2d_12">
    <path d="M 641.305469 424.216906 
L 641.305469 506.006743 
" clip-path="url(#p4436392caf)" style="fill: none; stroke: #353535"/>
   </g>
   <g id="line2d_13">
    <path d="M 594.278031 67.100471 
L 688.332906 67.100471 
" clip-path="url(#p4436392caf)" style="fill: none; stroke: #353535; stroke-linecap: round"/>
   </g>
   <g id="line2d_14">
    <path d="M 594.278031 506.006743 
L 688.332906 506.006743 
" clip-path="url(#p4436392caf)" style="fill: none; stroke: #353535; stroke-linecap: round"/>
   </g>
   <g id="line2d_15"/>
   <g id="patch_6">
    <path d="M 782.387781 237.333742 
L 970.497531 237.333742 
L 970.497531 437.733957 
L 782.387781 437.733957 
L 782.387781 237.333742 
z
" clip-path="url(#p4436392caf)" style="fill: #53b075; stroke: #353535; stroke-linejoin: miter"/>
   </g>
   <g id="line2d_16">
    <path d="M 876.442656 237.333742 
L 876.442656 105.507616 
" clip-path="url(#p4436392caf)" style="fill: none; stroke: #353535"/>
   </g>
   <g id="line2d_17">
    <path d="M 876.442656 437.733957 
L 876.442656 502.273013 
" clip-path="url(#p4436392caf)" style="fill: none; stroke: #353535"/>
   </g>
   <g id="line2d_18">
    <path d="M 829.415219 105.507616 
L 923.470094 105.507616 
" clip-path="url(#p4436392caf)" style="fill: none; stroke: #353535; stroke-linecap: round"/>
   </g>
   <g id="line2d_19">
    <path d="M 829.415219 502.273013 
L 923.470094 502.273013 
" clip-path="url(#p4436392caf)" style="fill: none; stroke: #353535; stroke-linecap: round"/>
   </g>
   <g id="line2d_20"/>
   <g id="line2d_21">
    <path d="M 76.976219 269.980239 
L 265.085969 269.980239 
" clip-path="url(#p4436392caf)" style="fill: none; stroke: #353535"/>
   </g>
   <g id="line2d_22">
    <defs>
     <path id="m3b341ff063" d="M -5 0 
L 5 0 
M 0 5 
L 0 -5 
" style="stroke: #ffffff"/>
    </defs>
    <g clip-path="url(#p4436392caf)">
     <use xlink:href="#m3b341ff063" x="171.031094" y="279.158913" style="fill: #2ca02c; stroke: #ffffff"/>
    </g>
   </g>
   <g id="line2d_23">
    <path d="M 312.113406 308.082 
L 500.223156 308.082 
" clip-path="url(#p4436392caf)" style="fill: none; stroke: #353535"/>
   </g>
   <g id="line2d_24">
    <g clip-path="url(#p4436392caf)">
     <use xlink:href="#m3b341ff063" x="406.168281" y="302.296482" style="fill: #2ca02c; stroke: #ffffff"/>
    </g>
   </g>
   <g id="line2d_25">
    <path d="M 547.250594 333.42301 
L 735.360344 333.42301 
" clip-path="url(#p4436392caf)" style="fill: none; stroke: #353535"/>
   </g>
   <g id="line2d_26">
    <g clip-path="url(#p4436392caf)">
     <use xlink:href="#m3b341ff063" x="641.305469" y="328.545143" style="fill: #2ca02c; stroke: #ffffff"/>
    </g>
   </g>
   <g id="line2d_27">
    <path d="M 782.387781 350.652029 
L 970.497531 350.652029 
" clip-path="url(#p4436392caf)" style="fill: none; stroke: #353535"/>
   </g>
   <g id="line2d_28">
    <g clip-path="url(#p4436392caf)">
     <use xlink:href="#m3b341ff063" x="876.442656" y="334.803759" style="fill: #2ca02c; stroke: #ffffff"/>
    </g>
   </g>
   <g id="patch_7">
    <path d="M 53.4625 527.952057 
L 53.4625 45.155157 
" style="fill: none; stroke: #cccccc; stroke-width: 1.25; stroke-linejoin: miter; stroke-linecap: square"/>
   </g>
   <g id="patch_8">
    <path d="M 994.01125 527.952057 
L 994.01125 45.155157 
" style="fill: none; stroke: #cccccc; stroke-width: 1.25; stroke-linejoin: miter; stroke-linecap: square"/>
   </g>
   <g id="patch_9">
    <path d="M 53.4625 527.952057 
L 994.01125 527.952057 
" style="fill: none; stroke: #cccccc; stroke-width: 1.25; stroke-linejoin: miter; stroke-linecap: square"/>
   </g>
   <g id="patch_10">
    <path d="M 53.4625 45.155157 
L 994.01125 45.155157 
" style="fill: none; stroke: #cccccc; stroke-width: 1.25; stroke-linejoin: miter; stroke-linecap: square"/>
   </g>
   <g id="text_14">
    <path d="M 149.247344 262.914498 
L 149.247344 260.719498 
L 153.559844 260.719498 
L 153.559844 262.914498 
L 149.247344 262.914498 
z
M 154.405469 263.321998 
L 156.530469 263.086998 
Q 156.607969 263.734498 156.935469 264.046998 
Q 157.262969 264.359498 157.802969 264.359498 
Q 158.482969 264.359498 158.957969 263.734498 
Q 159.435469 263.109498 159.567969 261.141998 
Q 158.740469 262.101998 157.497969 262.101998 
Q 156.147969 262.101998 155.165469 261.059498 
Q 154.185469 260.016998 154.185469 258.344498 
Q 154.185469 256.601998 155.220469 255.536998 
Q 156.255469 254.469498 157.857969 254.469498 
Q 159.600469 254.469498 160.717969 255.816998 
Q 161.835469 257.164498 161.835469 260.249498 
Q 161.835469 263.391998 160.670469 264.781998 
Q 159.505469 266.171998 157.637969 266.171998 
Q 156.295469 266.171998 155.465469 265.456998 
Q 154.637969 264.741998 154.405469 263.321998 
z
M 159.372969 258.524498 
Q 159.372969 257.461998 158.885469 256.876998 
Q 158.397969 256.289498 157.755469 256.289498 
Q 157.147969 256.289498 156.745469 256.769498 
Q 156.342969 257.249498 156.342969 258.344498 
Q 156.342969 259.454498 156.780469 259.974498 
Q 157.217969 260.491998 157.872969 260.491998 
Q 158.505469 260.491998 158.937969 259.991998 
Q 159.372969 259.491998 159.372969 258.524498 
z
M 163.723906 265.969498 
L 163.723906 263.774498 
L 165.921406 263.774498 
L 165.921406 265.969498 
L 163.723906 265.969498 
z
M 167.731719 263.024498 
L 169.919219 262.796998 
Q 170.014219 263.539498 170.474219 263.974498 
Q 170.936719 264.406998 171.536719 264.406998 
Q 172.224219 264.406998 172.701719 263.849498 
Q 173.179219 263.289498 173.179219 262.164498 
Q 173.179219 261.109498 172.704219 260.581998 
Q 172.231719 260.054498 171.474219 260.054498 
Q 170.529219 260.054498 169.779219 260.891998 
L 167.999219 260.634498 
L 169.124219 254.671998 
L 174.929219 254.671998 
L 174.929219 256.726998 
L 170.786719 256.726998 
L 170.444219 258.671998 
Q 171.179219 258.304498 171.944219 258.304498 
Q 173.404219 258.304498 174.419219 259.366998 
Q 175.436719 260.429498 175.436719 262.124498 
Q 175.436719 263.539498 174.616719 264.649498 
Q 173.499219 266.164498 171.514219 266.164498 
Q 169.929219 266.164498 168.929219 265.314498 
Q 167.929219 264.461998 167.731719 263.024498 
z
M 178.482656 259.789498 
Q 177.630156 259.429498 177.242656 258.801998 
Q 176.857656 258.171998 176.857656 257.421998 
Q 176.857656 256.141998 177.752656 255.306998 
Q 178.647656 254.469498 180.295156 254.469498 
Q 181.927656 254.469498 182.830156 255.306998 
Q 183.732656 256.141998 183.732656 257.421998 
Q 183.732656 258.219498 183.317656 258.841998 
Q 182.905156 259.461998 182.155156 259.789498 
Q 183.107656 260.171998 183.602656 260.906998 
Q 184.100156 261.641998 184.100156 262.601998 
Q 184.100156 264.186998 183.087656 265.179498 
Q 182.077656 266.171998 180.397656 266.171998 
Q 178.835156 266.171998 177.795156 265.351998 
Q 176.567656 264.384498 176.567656 262.696998 
Q 176.567656 261.766998 177.027656 260.989498 
Q 177.490156 260.211998 178.482656 259.789498 
z
M 178.935156 257.579498 
Q 178.935156 258.234498 179.305156 258.601998 
Q 179.677656 258.969498 180.295156 258.969498 
Q 180.920156 258.969498 181.295156 258.599498 
Q 181.670156 258.226998 181.670156 257.571998 
Q 181.670156 256.954498 181.297656 256.584498 
Q 180.927656 256.211998 180.317656 256.211998 
Q 179.685156 256.211998 179.310156 256.586998 
Q 178.935156 256.961998 178.935156 257.579498 
z
M 178.732656 262.484498 
Q 178.732656 263.391998 179.197656 263.899498 
Q 179.662656 264.406998 180.357656 264.406998 
Q 181.037656 264.406998 181.482656 263.919498 
Q 181.927656 263.429498 181.927656 262.509498 
Q 181.927656 261.704498 181.475156 261.216998 
Q 181.022656 260.726998 180.327656 260.726998 
Q 179.522656 260.726998 179.127656 261.281998 
Q 178.732656 261.836998 178.732656 262.484498 
z
M 192.913594 263.929498 
L 192.913594 265.969498 
L 185.216094 265.969498 
Q 185.341094 264.811998 185.966094 263.776998 
Q 186.591094 262.741998 188.436094 261.031998 
Q 189.921094 259.649498 190.256094 259.156998 
Q 190.708594 258.476998 190.708594 257.811998 
Q 190.708594 257.079498 190.313594 256.684498 
Q 189.921094 256.289498 189.226094 256.289498 
Q 188.538594 256.289498 188.131094 256.704498 
Q 187.726094 257.116998 187.663594 258.079498 
L 185.476094 257.859498 
Q 185.671094 256.046998 186.701094 255.259498 
Q 187.733594 254.469498 189.278594 254.469498 
Q 190.976094 254.469498 191.943594 255.384498 
Q 192.913594 256.296998 192.913594 257.656998 
Q 192.913594 258.429498 192.636094 259.129498 
Q 192.358594 259.829498 191.756094 260.594498 
Q 191.358594 261.101998 190.318594 262.056998 
Q 189.278594 263.009498 189.001094 263.321998 
Q 188.726094 263.634498 188.553594 263.929498 
L 192.913594 263.929498 
z
" style="fill: #ffffff; stroke: #000000"/>
    <path d="M 149.247344 262.914498 
L 149.247344 260.719498 
L 153.559844 260.719498 
L 153.559844 262.914498 
L 149.247344 262.914498 
z
M 154.405469 263.321998 
L 156.530469 263.086998 
Q 156.607969 263.734498 156.935469 264.046998 
Q 157.262969 264.359498 157.802969 264.359498 
Q 158.482969 264.359498 158.957969 263.734498 
Q 159.435469 263.109498 159.567969 261.141998 
Q 158.740469 262.101998 157.497969 262.101998 
Q 156.147969 262.101998 155.165469 261.059498 
Q 154.185469 260.016998 154.185469 258.344498 
Q 154.185469 256.601998 155.220469 255.536998 
Q 156.255469 254.469498 157.857969 254.469498 
Q 159.600469 254.469498 160.717969 255.816998 
Q 161.835469 257.164498 161.835469 260.249498 
Q 161.835469 263.391998 160.670469 264.781998 
Q 159.505469 266.171998 157.637969 266.171998 
Q 156.295469 266.171998 155.465469 265.456998 
Q 154.637969 264.741998 154.405469 263.321998 
z
M 159.372969 258.524498 
Q 159.372969 257.461998 158.885469 256.876998 
Q 158.397969 256.289498 157.755469 256.289498 
Q 157.147969 256.289498 156.745469 256.769498 
Q 156.342969 257.249498 156.342969 258.344498 
Q 156.342969 259.454498 156.780469 259.974498 
Q 157.217969 260.491998 157.872969 260.491998 
Q 158.505469 260.491998 158.937969 259.991998 
Q 159.372969 259.491998 159.372969 258.524498 
z
M 163.723906 265.969498 
L 163.723906 263.774498 
L 165.921406 263.774498 
L 165.921406 265.969498 
L 163.723906 265.969498 
z
M 167.731719 263.024498 
L 169.919219 262.796998 
Q 170.014219 263.539498 170.474219 263.974498 
Q 170.936719 264.406998 171.536719 264.406998 
Q 172.224219 264.406998 172.701719 263.849498 
Q 173.179219 263.289498 173.179219 262.164498 
Q 173.179219 261.109498 172.704219 260.581998 
Q 172.231719 260.054498 171.474219 260.054498 
Q 170.529219 260.054498 169.779219 260.891998 
L 167.999219 260.634498 
L 169.124219 254.671998 
L 174.929219 254.671998 
L 174.929219 256.726998 
L 170.786719 256.726998 
L 170.444219 258.671998 
Q 171.179219 258.304498 171.944219 258.304498 
Q 173.404219 258.304498 174.419219 259.366998 
Q 175.436719 260.429498 175.436719 262.124498 
Q 175.436719 263.539498 174.616719 264.649498 
Q 173.499219 266.164498 171.514219 266.164498 
Q 169.929219 266.164498 168.929219 265.314498 
Q 167.929219 264.461998 167.731719 263.024498 
z
M 178.482656 259.789498 
Q 177.630156 259.429498 177.242656 258.801998 
Q 176.857656 258.171998 176.857656 257.421998 
Q 176.857656 256.141998 177.752656 255.306998 
Q 178.647656 254.469498 180.295156 254.469498 
Q 181.927656 254.469498 182.830156 255.306998 
Q 183.732656 256.141998 183.732656 257.421998 
Q 183.732656 258.219498 183.317656 258.841998 
Q 182.905156 259.461998 182.155156 259.789498 
Q 183.107656 260.171998 183.602656 260.906998 
Q 184.100156 261.641998 184.100156 262.601998 
Q 184.100156 264.186998 183.087656 265.179498 
Q 182.077656 266.171998 180.397656 266.171998 
Q 178.835156 266.171998 177.795156 265.351998 
Q 176.567656 264.384498 176.567656 262.696998 
Q 176.567656 261.766998 177.027656 260.989498 
Q 177.490156 260.211998 178.482656 259.789498 
z
M 178.935156 257.579498 
Q 178.935156 258.234498 179.305156 258.601998 
Q 179.677656 258.969498 180.295156 258.969498 
Q 180.920156 258.969498 181.295156 258.599498 
Q 181.670156 258.226998 181.670156 257.571998 
Q 181.670156 256.954498 181.297656 256.584498 
Q 180.927656 256.211998 180.317656 256.211998 
Q 179.685156 256.211998 179.310156 256.586998 
Q 178.935156 256.961998 178.935156 257.579498 
z
M 178.732656 262.484498 
Q 178.732656 263.391998 179.197656 263.899498 
Q 179.662656 264.406998 180.357656 264.406998 
Q 181.037656 264.406998 181.482656 263.919498 
Q 181.927656 263.429498 181.927656 262.509498 
Q 181.927656 261.704498 181.475156 261.216998 
Q 181.022656 260.726998 180.327656 260.726998 
Q 179.522656 260.726998 179.127656 261.281998 
Q 178.732656 261.836998 178.732656 262.484498 
z
M 192.913594 263.929498 
L 192.913594 265.969498 
L 185.216094 265.969498 
Q 185.341094 264.811998 185.966094 263.776998 
Q 186.591094 262.741998 188.436094 261.031998 
Q 189.921094 259.649498 190.256094 259.156998 
Q 190.708594 258.476998 190.708594 257.811998 
Q 190.708594 257.079498 190.313594 256.684498 
Q 189.921094 256.289498 189.226094 256.289498 
Q 188.538594 256.289498 188.131094 256.704498 
Q 187.726094 257.116998 187.663594 258.079498 
L 185.476094 257.859498 
Q 185.671094 256.046998 186.701094 255.259498 
Q 187.733594 254.469498 189.278594 254.469498 
Q 190.976094 254.469498 191.943594 255.384498 
Q 192.913594 256.296998 192.913594 257.656998 
Q 192.913594 258.429498 192.636094 259.129498 
Q 192.358594 259.829498 191.756094 260.594498 
Q 191.358594 261.101998 190.318594 262.056998 
Q 189.278594 263.009498 189.001094 263.321998 
Q 188.726094 263.634498 188.553594 263.929498 
L 192.913594 263.929498 
z
" style="fill: #ffffff"/>
   </g>
   <g id="text_15">
    <path d="M 384.384531 286.052067 
L 384.384531 283.857067 
L 388.697031 283.857067 
L 388.697031 286.052067 
L 384.384531 286.052067 
z
M 391.377656 282.927067 
Q 390.525156 282.567067 390.137656 281.939567 
Q 389.752656 281.309567 389.752656 280.559567 
Q 389.752656 279.279567 390.647656 278.444567 
Q 391.542656 277.607067 393.190156 277.607067 
Q 394.822656 277.607067 395.725156 278.444567 
Q 396.627656 279.279567 396.627656 280.559567 
Q 396.627656 281.357067 396.212656 281.979567 
Q 395.800156 282.599567 395.050156 282.927067 
Q 396.002656 283.309567 396.497656 284.044567 
Q 396.995156 284.779567 396.995156 285.739567 
Q 396.995156 287.324567 395.982656 288.317067 
Q 394.972656 289.309567 393.292656 289.309567 
Q 391.730156 289.309567 390.690156 288.489567 
Q 389.462656 287.522067 389.462656 285.834567 
Q 389.462656 284.904567 389.922656 284.127067 
Q 390.385156 283.349567 391.377656 282.927067 
z
M 391.830156 280.717067 
Q 391.830156 281.372067 392.200156 281.739567 
Q 392.572656 282.107067 393.190156 282.107067 
Q 393.815156 282.107067 394.190156 281.737067 
Q 394.565156 281.364567 394.565156 280.709567 
Q 394.565156 280.092067 394.192656 279.722067 
Q 393.822656 279.349567 393.212656 279.349567 
Q 392.580156 279.349567 392.205156 279.724567 
Q 391.830156 280.099567 391.830156 280.717067 
z
M 391.627656 285.622067 
Q 391.627656 286.529567 392.092656 287.037067 
Q 392.557656 287.544567 393.252656 287.544567 
Q 393.932656 287.544567 394.377656 287.057067 
Q 394.822656 286.567067 394.822656 285.647067 
Q 394.822656 284.842067 394.370156 284.354567 
Q 393.917656 283.864567 393.222656 283.864567 
Q 392.417656 283.864567 392.022656 284.419567 
Q 391.627656 284.974567 391.627656 285.622067 
z
M 398.861094 289.107067 
L 398.861094 286.912067 
L 401.058594 286.912067 
L 401.058594 289.107067 
L 398.861094 289.107067 
z
M 402.886406 286.459567 
L 405.011406 286.224567 
Q 405.088906 286.872067 405.416406 287.184567 
Q 405.743906 287.497067 406.283906 287.497067 
Q 406.963906 287.497067 407.438906 286.872067 
Q 407.916406 286.247067 408.048906 284.279567 
Q 407.221406 285.239567 405.978906 285.239567 
Q 404.628906 285.239567 403.646406 284.197067 
Q 402.666406 283.154567 402.666406 281.482067 
Q 402.666406 279.739567 403.701406 278.674567 
Q 404.736406 277.607067 406.338906 277.607067 
Q 408.081406 277.607067 409.198906 278.954567 
Q 410.316406 280.302067 410.316406 283.387067 
Q 410.316406 286.529567 409.151406 287.919567 
Q 407.986406 289.309567 406.118906 289.309567 
Q 404.776406 289.309567 403.946406 288.594567 
Q 403.118906 287.879567 402.886406 286.459567 
z
M 407.853906 281.662067 
Q 407.853906 280.599567 407.366406 280.014567 
Q 406.878906 279.427067 406.236406 279.427067 
Q 405.628906 279.427067 405.226406 279.907067 
Q 404.823906 280.387067 404.823906 281.482067 
Q 404.823906 282.592067 405.261406 283.112067 
Q 405.698906 283.629567 406.353906 283.629567 
Q 406.986406 283.629567 407.418906 283.129567 
Q 407.853906 282.629567 407.853906 281.662067 
z
M 419.152344 287.067067 
L 419.152344 289.107067 
L 411.454844 289.107067 
Q 411.579844 287.949567 412.204844 286.914567 
Q 412.829844 285.879567 414.674844 284.169567 
Q 416.159844 282.787067 416.494844 282.294567 
Q 416.947344 281.614567 416.947344 280.949567 
Q 416.947344 280.217067 416.552344 279.822067 
Q 416.159844 279.427067 415.464844 279.427067 
Q 414.777344 279.427067 414.369844 279.842067 
Q 413.964844 280.254567 413.902344 281.217067 
L 411.714844 280.997067 
Q 411.909844 279.184567 412.939844 278.397067 
Q 413.972344 277.607067 415.517344 277.607067 
Q 417.214844 277.607067 418.182344 278.522067 
Q 419.152344 279.434567 419.152344 280.794567 
Q 419.152344 281.567067 418.874844 282.267067 
Q 418.597344 282.967067 417.994844 283.732067 
Q 417.597344 284.239567 416.557344 285.194567 
Q 415.517344 286.147067 415.239844 286.459567 
Q 414.964844 286.772067 414.792344 287.067067 
L 419.152344 287.067067 
z
M 424.940781 289.107067 
L 424.940781 286.802067 
L 420.253281 286.802067 
L 420.253281 284.879567 
L 425.220781 277.607067 
L 427.065781 277.607067 
L 427.065781 284.872067 
L 428.488281 284.872067 
L 428.488281 286.802067 
L 427.065781 286.802067 
L 427.065781 289.107067 
L 424.940781 289.107067 
z
M 424.940781 284.872067 
L 424.940781 280.959567 
L 422.308281 284.872067 
L 424.940781 284.872067 
z
" style="fill: #ffffff; stroke: #000000"/>
    <path d="M 384.384531 286.052067 
L 384.384531 283.857067 
L 388.697031 283.857067 
L 388.697031 286.052067 
L 384.384531 286.052067 
z
M 391.377656 282.927067 
Q 390.525156 282.567067 390.137656 281.939567 
Q 389.752656 281.309567 389.752656 280.559567 
Q 389.752656 279.279567 390.647656 278.444567 
Q 391.542656 277.607067 393.190156 277.607067 
Q 394.822656 277.607067 395.725156 278.444567 
Q 396.627656 279.279567 396.627656 280.559567 
Q 396.627656 281.357067 396.212656 281.979567 
Q 395.800156 282.599567 395.050156 282.927067 
Q 396.002656 283.309567 396.497656 284.044567 
Q 396.995156 284.779567 396.995156 285.739567 
Q 396.995156 287.324567 395.982656 288.317067 
Q 394.972656 289.309567 393.292656 289.309567 
Q 391.730156 289.309567 390.690156 288.489567 
Q 389.462656 287.522067 389.462656 285.834567 
Q 389.462656 284.904567 389.922656 284.127067 
Q 390.385156 283.349567 391.377656 282.927067 
z
M 391.830156 280.717067 
Q 391.830156 281.372067 392.200156 281.739567 
Q 392.572656 282.107067 393.190156 282.107067 
Q 393.815156 282.107067 394.190156 281.737067 
Q 394.565156 281.364567 394.565156 280.709567 
Q 394.565156 280.092067 394.192656 279.722067 
Q 393.822656 279.349567 393.212656 279.349567 
Q 392.580156 279.349567 392.205156 279.724567 
Q 391.830156 280.099567 391.830156 280.717067 
z
M 391.627656 285.622067 
Q 391.627656 286.529567 392.092656 287.037067 
Q 392.557656 287.544567 393.252656 287.544567 
Q 393.932656 287.544567 394.377656 287.057067 
Q 394.822656 286.567067 394.822656 285.647067 
Q 394.822656 284.842067 394.370156 284.354567 
Q 393.917656 283.864567 393.222656 283.864567 
Q 392.417656 283.864567 392.022656 284.419567 
Q 391.627656 284.974567 391.627656 285.622067 
z
M 398.861094 289.107067 
L 398.861094 286.912067 
L 401.058594 286.912067 
L 401.058594 289.107067 
L 398.861094 289.107067 
z
M 402.886406 286.459567 
L 405.011406 286.224567 
Q 405.088906 286.872067 405.416406 287.184567 
Q 405.743906 287.497067 406.283906 287.497067 
Q 406.963906 287.497067 407.438906 286.872067 
Q 407.916406 286.247067 408.048906 284.279567 
Q 407.221406 285.239567 405.978906 285.239567 
Q 404.628906 285.239567 403.646406 284.197067 
Q 402.666406 283.154567 402.666406 281.482067 
Q 402.666406 279.739567 403.701406 278.674567 
Q 404.736406 277.607067 406.338906 277.607067 
Q 408.081406 277.607067 409.198906 278.954567 
Q 410.316406 280.302067 410.316406 283.387067 
Q 410.316406 286.529567 409.151406 287.919567 
Q 407.986406 289.309567 406.118906 289.309567 
Q 404.776406 289.309567 403.946406 288.594567 
Q 403.118906 287.879567 402.886406 286.459567 
z
M 407.853906 281.662067 
Q 407.853906 280.599567 407.366406 280.014567 
Q 406.878906 279.427067 406.236406 279.427067 
Q 405.628906 279.427067 405.226406 279.907067 
Q 404.823906 280.387067 404.823906 281.482067 
Q 404.823906 282.592067 405.261406 283.112067 
Q 405.698906 283.629567 406.353906 283.629567 
Q 406.986406 283.629567 407.418906 283.129567 
Q 407.853906 282.629567 407.853906 281.662067 
z
M 419.152344 287.067067 
L 419.152344 289.107067 
L 411.454844 289.107067 
Q 411.579844 287.949567 412.204844 286.914567 
Q 412.829844 285.879567 414.674844 284.169567 
Q 416.159844 282.787067 416.494844 282.294567 
Q 416.947344 281.614567 416.947344 280.949567 
Q 416.947344 280.217067 416.552344 279.822067 
Q 416.159844 279.427067 415.464844 279.427067 
Q 414.777344 279.427067 414.369844 279.842067 
Q 413.964844 280.254567 413.902344 281.217067 
L 411.714844 280.997067 
Q 411.909844 279.184567 412.939844 278.397067 
Q 413.972344 277.607067 415.517344 277.607067 
Q 417.214844 277.607067 418.182344 278.522067 
Q 419.152344 279.434567 419.152344 280.794567 
Q 419.152344 281.567067 418.874844 282.267067 
Q 418.597344 282.967067 417.994844 283.732067 
Q 417.597344 284.239567 416.557344 285.194567 
Q 415.517344 286.147067 415.239844 286.459567 
Q 414.964844 286.772067 414.792344 287.067067 
L 419.152344 287.067067 
z
M 424.940781 289.107067 
L 424.940781 286.802067 
L 420.253281 286.802067 
L 420.253281 284.879567 
L 425.220781 277.607067 
L 427.065781 277.607067 
L 427.065781 284.872067 
L 428.488281 284.872067 
L 428.488281 286.802067 
L 427.065781 286.802067 
L 427.065781 289.107067 
L 424.940781 289.107067 
z
M 424.940781 284.872067 
L 424.940781 280.959567 
L 422.308281 284.872067 
L 424.940781 284.872067 
z
" style="fill: #ffffff"/>
   </g>
   <g id="text_16">
    <path d="M 619.521719 312.300728 
L 619.521719 310.105728 
L 623.834219 310.105728 
L 623.834219 312.300728 
L 619.521719 312.300728 
z
M 626.514844 309.175728 
Q 625.662344 308.815728 625.274844 308.188228 
Q 624.889844 307.558228 624.889844 306.808228 
Q 624.889844 305.528228 625.784844 304.693228 
Q 626.679844 303.855728 628.327344 303.855728 
Q 629.959844 303.855728 630.862344 304.693228 
Q 631.764844 305.528228 631.764844 306.808228 
Q 631.764844 307.605728 631.349844 308.228228 
Q 630.937344 308.848228 630.187344 309.175728 
Q 631.139844 309.558228 631.634844 310.293228 
Q 632.132344 311.028228 632.132344 311.988228 
Q 632.132344 313.573228 631.119844 314.565728 
Q 630.109844 315.558228 628.429844 315.558228 
Q 626.867344 315.558228 625.827344 314.738228 
Q 624.599844 313.770728 624.599844 312.083228 
Q 624.599844 311.153228 625.059844 310.375728 
Q 625.522344 309.598228 626.514844 309.175728 
z
M 626.967344 306.965728 
Q 626.967344 307.620728 627.337344 307.988228 
Q 627.709844 308.355728 628.327344 308.355728 
Q 628.952344 308.355728 629.327344 307.985728 
Q 629.702344 307.613228 629.702344 306.958228 
Q 629.702344 306.340728 629.329844 305.970728 
Q 628.959844 305.598228 628.349844 305.598228 
Q 627.717344 305.598228 627.342344 305.973228 
Q 626.967344 306.348228 626.967344 306.965728 
z
M 626.764844 311.870728 
Q 626.764844 312.778228 627.229844 313.285728 
Q 627.694844 313.793228 628.389844 313.793228 
Q 629.069844 313.793228 629.514844 313.305728 
Q 629.959844 312.815728 629.959844 311.895728 
Q 629.959844 311.090728 629.507344 310.603228 
Q 629.054844 310.113228 628.359844 310.113228 
Q 627.554844 310.113228 627.159844 310.668228 
Q 626.764844 311.223228 626.764844 311.870728 
z
M 633.998281 315.355728 
L 633.998281 313.160728 
L 636.195781 313.160728 
L 636.195781 315.355728 
L 633.998281 315.355728 
z
M 643.593594 315.355728 
L 641.398594 315.355728 
L 641.398594 307.083228 
Q 640.193594 308.208228 638.561094 308.745728 
L 638.561094 306.753228 
Q 639.421094 306.473228 640.428594 305.688228 
Q 641.436094 304.903228 641.811094 303.855728 
L 643.593594 303.855728 
L 643.593594 315.355728 
z
M 646.874531 306.098228 
L 646.874531 304.058228 
L 654.382031 304.058228 
L 654.382031 305.653228 
Q 653.452031 306.565728 652.489531 308.278228 
Q 651.529531 309.988228 651.024531 311.915728 
Q 650.522031 313.840728 650.529531 315.355728 
L 648.414531 315.355728 
Q 648.467031 312.980728 649.392031 310.513228 
Q 650.319531 308.043228 651.867031 306.098228 
L 646.874531 306.098228 
z
M 655.820469 312.708228 
L 657.945469 312.473228 
Q 658.022969 313.120728 658.350469 313.433228 
Q 658.677969 313.745728 659.217969 313.745728 
Q 659.897969 313.745728 660.372969 313.120728 
Q 660.850469 312.495728 660.982969 310.528228 
Q 660.155469 311.488228 658.912969 311.488228 
Q 657.562969 311.488228 656.580469 310.445728 
Q 655.600469 309.403228 655.600469 307.730728 
Q 655.600469 305.988228 656.635469 304.923228 
Q 657.670469 303.855728 659.272969 303.855728 
Q 661.015469 303.855728 662.132969 305.203228 
Q 663.250469 306.550728 663.250469 309.635728 
Q 663.250469 312.778228 662.085469 314.168228 
Q 660.920469 315.558228 659.052969 315.558228 
Q 657.710469 315.558228 656.880469 314.843228 
Q 656.052969 314.128228 655.820469 312.708228 
z
M 660.787969 307.910728 
Q 660.787969 306.848228 660.300469 306.263228 
Q 659.812969 305.675728 659.170469 305.675728 
Q 658.562969 305.675728 658.160469 306.155728 
Q 657.757969 306.635728 657.757969 307.730728 
Q 657.757969 308.840728 658.195469 309.360728 
Q 658.632969 309.878228 659.287969 309.878228 
Q 659.920469 309.878228 660.352969 309.378228 
Q 660.787969 308.878228 660.787969 307.910728 
z
" style="fill: #ffffff; stroke: #000000"/>
    <path d="M 619.521719 312.300728 
L 619.521719 310.105728 
L 623.834219 310.105728 
L 623.834219 312.300728 
L 619.521719 312.300728 
z
M 626.514844 309.175728 
Q 625.662344 308.815728 625.274844 308.188228 
Q 624.889844 307.558228 624.889844 306.808228 
Q 624.889844 305.528228 625.784844 304.693228 
Q 626.679844 303.855728 628.327344 303.855728 
Q 629.959844 303.855728 630.862344 304.693228 
Q 631.764844 305.528228 631.764844 306.808228 
Q 631.764844 307.605728 631.349844 308.228228 
Q 630.937344 308.848228 630.187344 309.175728 
Q 631.139844 309.558228 631.634844 310.293228 
Q 632.132344 311.028228 632.132344 311.988228 
Q 632.132344 313.573228 631.119844 314.565728 
Q 630.109844 315.558228 628.429844 315.558228 
Q 626.867344 315.558228 625.827344 314.738228 
Q 624.599844 313.770728 624.599844 312.083228 
Q 624.599844 311.153228 625.059844 310.375728 
Q 625.522344 309.598228 626.514844 309.175728 
z
M 626.967344 306.965728 
Q 626.967344 307.620728 627.337344 307.988228 
Q 627.709844 308.355728 628.327344 308.355728 
Q 628.952344 308.355728 629.327344 307.985728 
Q 629.702344 307.613228 629.702344 306.958228 
Q 629.702344 306.340728 629.329844 305.970728 
Q 628.959844 305.598228 628.349844 305.598228 
Q 627.717344 305.598228 627.342344 305.973228 
Q 626.967344 306.348228 626.967344 306.965728 
z
M 626.764844 311.870728 
Q 626.764844 312.778228 627.229844 313.285728 
Q 627.694844 313.793228 628.389844 313.793228 
Q 629.069844 313.793228 629.514844 313.305728 
Q 629.959844 312.815728 629.959844 311.895728 
Q 629.959844 311.090728 629.507344 310.603228 
Q 629.054844 310.113228 628.359844 310.113228 
Q 627.554844 310.113228 627.159844 310.668228 
Q 626.764844 311.223228 626.764844 311.870728 
z
M 633.998281 315.355728 
L 633.998281 313.160728 
L 636.195781 313.160728 
L 636.195781 315.355728 
L 633.998281 315.355728 
z
M 643.593594 315.355728 
L 641.398594 315.355728 
L 641.398594 307.083228 
Q 640.193594 308.208228 638.561094 308.745728 
L 638.561094 306.753228 
Q 639.421094 306.473228 640.428594 305.688228 
Q 641.436094 304.903228 641.811094 303.855728 
L 643.593594 303.855728 
L 643.593594 315.355728 
z
M 646.874531 306.098228 
L 646.874531 304.058228 
L 654.382031 304.058228 
L 654.382031 305.653228 
Q 653.452031 306.565728 652.489531 308.278228 
Q 651.529531 309.988228 651.024531 311.915728 
Q 650.522031 313.840728 650.529531 315.355728 
L 648.414531 315.355728 
Q 648.467031 312.980728 649.392031 310.513228 
Q 650.319531 308.043228 651.867031 306.098228 
L 646.874531 306.098228 
z
M 655.820469 312.708228 
L 657.945469 312.473228 
Q 658.022969 313.120728 658.350469 313.433228 
Q 658.677969 313.745728 659.217969 313.745728 
Q 659.897969 313.745728 660.372969 313.120728 
Q 660.850469 312.495728 660.982969 310.528228 
Q 660.155469 311.488228 658.912969 311.488228 
Q 657.562969 311.488228 656.580469 310.445728 
Q 655.600469 309.403228 655.600469 307.730728 
Q 655.600469 305.988228 656.635469 304.923228 
Q 657.670469 303.855728 659.272969 303.855728 
Q 661.015469 303.855728 662.132969 305.203228 
Q 663.250469 306.550728 663.250469 309.635728 
Q 663.250469 312.778228 662.085469 314.168228 
Q 660.920469 315.558228 659.052969 315.558228 
Q 657.710469 315.558228 656.880469 314.843228 
Q 656.052969 314.128228 655.820469 312.708228 
z
M 660.787969 307.910728 
Q 660.787969 306.848228 660.300469 306.263228 
Q 659.812969 305.675728 659.170469 305.675728 
Q 658.562969 305.675728 658.160469 306.155728 
Q 657.757969 306.635728 657.757969 307.730728 
Q 657.757969 308.840728 658.195469 309.360728 
Q 658.632969 309.878228 659.287969 309.878228 
Q 659.920469 309.878228 660.352969 309.378228 
Q 660.787969 308.878228 660.787969 307.910728 
z
" style="fill: #ffffff"/>
   </g>
   <g id="text_17">
    <path d="M 854.658906 318.559344 
L 854.658906 316.364344 
L 858.971406 316.364344 
L 858.971406 318.559344 
L 854.658906 318.559344 
z
M 861.652031 315.434344 
Q 860.799531 315.074344 860.412031 314.446844 
Q 860.027031 313.816844 860.027031 313.066844 
Q 860.027031 311.786844 860.922031 310.951844 
Q 861.817031 310.114344 863.464531 310.114344 
Q 865.097031 310.114344 865.999531 310.951844 
Q 866.902031 311.786844 866.902031 313.066844 
Q 866.902031 313.864344 866.487031 314.486844 
Q 866.074531 315.106844 865.324531 315.434344 
Q 866.277031 315.816844 866.772031 316.551844 
Q 867.269531 317.286844 867.269531 318.246844 
Q 867.269531 319.831844 866.257031 320.824344 
Q 865.247031 321.816844 863.567031 321.816844 
Q 862.004531 321.816844 860.964531 320.996844 
Q 859.737031 320.029344 859.737031 318.341844 
Q 859.737031 317.411844 860.197031 316.634344 
Q 860.659531 315.856844 861.652031 315.434344 
z
M 862.104531 313.224344 
Q 862.104531 313.879344 862.474531 314.246844 
Q 862.847031 314.614344 863.464531 314.614344 
Q 864.089531 314.614344 864.464531 314.244344 
Q 864.839531 313.871844 864.839531 313.216844 
Q 864.839531 312.599344 864.467031 312.229344 
Q 864.097031 311.856844 863.487031 311.856844 
Q 862.854531 311.856844 862.479531 312.231844 
Q 862.104531 312.606844 862.104531 313.224344 
z
M 861.902031 318.129344 
Q 861.902031 319.036844 862.367031 319.544344 
Q 862.832031 320.051844 863.527031 320.051844 
Q 864.207031 320.051844 864.652031 319.564344 
Q 865.097031 319.074344 865.097031 318.154344 
Q 865.097031 317.349344 864.644531 316.861844 
Q 864.192031 316.371844 863.497031 316.371844 
Q 862.692031 316.371844 862.297031 316.926844 
Q 861.902031 317.481844 861.902031 318.129344 
z
M 869.135469 321.614344 
L 869.135469 319.419344 
L 871.332969 319.419344 
L 871.332969 321.614344 
L 869.135469 321.614344 
z
M 876.823281 310.114344 
Q 878.488281 310.114344 879.425781 311.301844 
Q 880.543281 312.706844 880.543281 315.966844 
Q 880.543281 319.216844 879.418281 320.636844 
Q 878.488281 321.809344 876.823281 321.809344 
Q 875.153281 321.809344 874.128281 320.524344 
Q 873.105781 319.239344 873.105781 315.941844 
Q 873.105781 312.706844 874.230781 311.286844 
Q 875.160781 310.114344 876.823281 310.114344 
z
M 876.823281 311.934344 
Q 876.425781 311.934344 876.113281 312.189344 
Q 875.800781 312.441844 875.628281 313.099344 
Q 875.403281 313.949344 875.403281 315.966844 
Q 875.403281 317.981844 875.605781 318.736844 
Q 875.808281 319.489344 876.115781 319.739344 
Q 876.425781 319.989344 876.823281 319.989344 
Q 877.223281 319.989344 877.535781 319.736844 
Q 877.848281 319.481844 878.018281 318.824344 
Q 878.245781 317.981844 878.245781 315.966844 
Q 878.245781 313.949344 878.043281 313.196844 
Q 877.840781 312.441844 877.530781 312.189344 
Q 877.223281 311.934344 876.823281 311.934344 
z
M 885.721719 310.114344 
Q 887.386719 310.114344 888.324219 311.301844 
Q 889.441719 312.706844 889.441719 315.966844 
Q 889.441719 319.216844 888.316719 320.636844 
Q 887.386719 321.809344 885.721719 321.809344 
Q 884.051719 321.809344 883.026719 320.524344 
Q 882.004219 319.239344 882.004219 315.941844 
Q 882.004219 312.706844 883.129219 311.286844 
Q 884.059219 310.114344 885.721719 310.114344 
z
M 885.721719 311.934344 
Q 885.324219 311.934344 885.011719 312.189344 
Q 884.699219 312.441844 884.526719 313.099344 
Q 884.301719 313.949344 884.301719 315.966844 
Q 884.301719 317.981844 884.504219 318.736844 
Q 884.706719 319.489344 885.014219 319.739344 
Q 885.324219 319.989344 885.721719 319.989344 
Q 886.121719 319.989344 886.434219 319.736844 
Q 886.746719 319.481844 886.916719 318.824344 
Q 887.144219 317.981844 887.144219 315.966844 
Q 887.144219 313.949344 886.941719 313.196844 
Q 886.739219 312.441844 886.429219 312.189344 
Q 886.121719 311.934344 885.721719 311.934344 
z
M 896.527656 321.614344 
L 894.332656 321.614344 
L 894.332656 313.341844 
Q 893.127656 314.466844 891.495156 315.004344 
L 891.495156 313.011844 
Q 892.355156 312.731844 893.362656 311.946844 
Q 894.370156 311.161844 894.745156 310.114344 
L 896.527656 310.114344 
L 896.527656 321.614344 
z
" style="fill: #ffffff; stroke: #000000"/>
    <path d="M 854.658906 318.559344 
L 854.658906 316.364344 
L 858.971406 316.364344 
L 858.971406 318.559344 
L 854.658906 318.559344 
z
M 861.652031 315.434344 
Q 860.799531 315.074344 860.412031 314.446844 
Q 860.027031 313.816844 860.027031 313.066844 
Q 860.027031 311.786844 860.922031 310.951844 
Q 861.817031 310.114344 863.464531 310.114344 
Q 865.097031 310.114344 865.999531 310.951844 
Q 866.902031 311.786844 866.902031 313.066844 
Q 866.902031 313.864344 866.487031 314.486844 
Q 866.074531 315.106844 865.324531 315.434344 
Q 866.277031 315.816844 866.772031 316.551844 
Q 867.269531 317.286844 867.269531 318.246844 
Q 867.269531 319.831844 866.257031 320.824344 
Q 865.247031 321.816844 863.567031 321.816844 
Q 862.004531 321.816844 860.964531 320.996844 
Q 859.737031 320.029344 859.737031 318.341844 
Q 859.737031 317.411844 860.197031 316.634344 
Q 860.659531 315.856844 861.652031 315.434344 
z
M 862.104531 313.224344 
Q 862.104531 313.879344 862.474531 314.246844 
Q 862.847031 314.614344 863.464531 314.614344 
Q 864.089531 314.614344 864.464531 314.244344 
Q 864.839531 313.871844 864.839531 313.216844 
Q 864.839531 312.599344 864.467031 312.229344 
Q 864.097031 311.856844 863.487031 311.856844 
Q 862.854531 311.856844 862.479531 312.231844 
Q 862.104531 312.606844 862.104531 313.224344 
z
M 861.902031 318.129344 
Q 861.902031 319.036844 862.367031 319.544344 
Q 862.832031 320.051844 863.527031 320.051844 
Q 864.207031 320.051844 864.652031 319.564344 
Q 865.097031 319.074344 865.097031 318.154344 
Q 865.097031 317.349344 864.644531 316.861844 
Q 864.192031 316.371844 863.497031 316.371844 
Q 862.692031 316.371844 862.297031 316.926844 
Q 861.902031 317.481844 861.902031 318.129344 
z
M 869.135469 321.614344 
L 869.135469 319.419344 
L 871.332969 319.419344 
L 871.332969 321.614344 
L 869.135469 321.614344 
z
M 876.823281 310.114344 
Q 878.488281 310.114344 879.425781 311.301844 
Q 880.543281 312.706844 880.543281 315.966844 
Q 880.543281 319.216844 879.418281 320.636844 
Q 878.488281 321.809344 876.823281 321.809344 
Q 875.153281 321.809344 874.128281 320.524344 
Q 873.105781 319.239344 873.105781 315.941844 
Q 873.105781 312.706844 874.230781 311.286844 
Q 875.160781 310.114344 876.823281 310.114344 
z
M 876.823281 311.934344 
Q 876.425781 311.934344 876.113281 312.189344 
Q 875.800781 312.441844 875.628281 313.099344 
Q 875.403281 313.949344 875.403281 315.966844 
Q 875.403281 317.981844 875.605781 318.736844 
Q 875.808281 319.489344 876.115781 319.739344 
Q 876.425781 319.989344 876.823281 319.989344 
Q 877.223281 319.989344 877.535781 319.736844 
Q 877.848281 319.481844 878.018281 318.824344 
Q 878.245781 317.981844 878.245781 315.966844 
Q 878.245781 313.949344 878.043281 313.196844 
Q 877.840781 312.441844 877.530781 312.189344 
Q 877.223281 311.934344 876.823281 311.934344 
z
M 885.721719 310.114344 
Q 887.386719 310.114344 888.324219 311.301844 
Q 889.441719 312.706844 889.441719 315.966844 
Q 889.441719 319.216844 888.316719 320.636844 
Q 887.386719 321.809344 885.721719 321.809344 
Q 884.051719 321.809344 883.026719 320.524344 
Q 882.004219 319.239344 882.004219 315.941844 
Q 882.004219 312.706844 883.129219 311.286844 
Q 884.059219 310.114344 885.721719 310.114344 
z
M 885.721719 311.934344 
Q 885.324219 311.934344 885.011719 312.189344 
Q 884.699219 312.441844 884.526719 313.099344 
Q 884.301719 313.949344 884.301719 315.966844 
Q 884.301719 317.981844 884.504219 318.736844 
Q 884.706719 319.489344 885.014219 319.739344 
Q 885.324219 319.989344 885.721719 319.989344 
Q 886.121719 319.989344 886.434219 319.736844 
Q 886.746719 319.481844 886.916719 318.824344 
Q 887.144219 317.981844 887.144219 315.966844 
Q 887.144219 313.949344 886.941719 313.196844 
Q 886.739219 312.441844 886.429219 312.189344 
Q 886.121719 311.934344 885.721719 311.934344 
z
M 896.527656 321.614344 
L 894.332656 321.614344 
L 894.332656 313.341844 
Q 893.127656 314.466844 891.495156 315.004344 
L 891.495156 313.011844 
Q 892.355156 312.731844 893.362656 311.946844 
Q 894.370156 311.161844 894.745156 310.114344 
L 896.527656 310.114344 
L 896.527656 321.614344 
z
" style="fill: #ffffff"/>
   </g>
   <g id="text_18">
    <!-- n=250 -->
    <g style="opacity: 0.8" transform="translate(153.852344 559.379715) scale(0.12 -0.12)">
     <defs>
      <path id="Arial-BoldMT-3d" d="M 266 2550 
L 266 3356 
L 3469 3356 
L 3469 2550 
L 266 2550 
z
M 266 1163 
L 266 1972 
L 3469 1972 
L 3469 1163 
L 266 1163 
z
" transform="scale(0.015625)"/>
      <path id="Arial-BoldMT-32" d="M 3238 816 
L 3238 0 
L 159 0 
Q 209 463 459 877 
Q 709 1291 1447 1975 
Q 2041 2528 2175 2725 
Q 2356 2997 2356 3263 
Q 2356 3556 2198 3714 
Q 2041 3872 1763 3872 
Q 1488 3872 1325 3706 
Q 1163 3541 1138 3156 
L 263 3244 
Q 341 3969 753 4284 
Q 1166 4600 1784 4600 
Q 2463 4600 2850 4234 
Q 3238 3869 3238 3325 
Q 3238 3016 3127 2736 
Q 3016 2456 2775 2150 
Q 2616 1947 2200 1565 
Q 1784 1184 1673 1059 
Q 1563 934 1494 816 
L 3238 816 
z
" transform="scale(0.015625)"/>
      <path id="Arial-BoldMT-35" d="M 284 1178 
L 1159 1269 
Q 1197 972 1381 798 
Q 1566 625 1806 625 
Q 2081 625 2272 848 
Q 2463 1072 2463 1522 
Q 2463 1944 2273 2155 
Q 2084 2366 1781 2366 
Q 1403 2366 1103 2031 
L 391 2134 
L 841 4519 
L 3163 4519 
L 3163 3697 
L 1506 3697 
L 1369 2919 
Q 1663 3066 1969 3066 
Q 2553 3066 2959 2641 
Q 3366 2216 3366 1538 
Q 3366 972 3038 528 
Q 2591 -78 1797 -78 
Q 1163 -78 763 262 
Q 363 603 284 1178 
z
" transform="scale(0.015625)"/>
      <path id="Arial-BoldMT-30" d="M 1756 4600 
Q 2422 4600 2797 4125 
Q 3244 3563 3244 2259 
Q 3244 959 2794 391 
Q 2422 -78 1756 -78 
Q 1088 -78 678 436 
Q 269 950 269 2269 
Q 269 3563 719 4131 
Q 1091 4600 1756 4600 
z
M 1756 3872 
Q 1597 3872 1472 3770 
Q 1347 3669 1278 3406 
Q 1188 3066 1188 2259 
Q 1188 1453 1269 1151 
Q 1350 850 1473 750 
Q 1597 650 1756 650 
Q 1916 650 2041 751 
Q 2166 853 2234 1116 
Q 2325 1453 2325 2259 
Q 2325 3066 2244 3367 
Q 2163 3669 2039 3770 
Q 1916 3872 1756 3872 
z
" transform="scale(0.015625)"/>
     </defs>
     <use xlink:href="#Arial-BoldMT-6e"/>
     <use xlink:href="#Arial-BoldMT-3d" transform="translate(61.083984 0)"/>
     <use xlink:href="#Arial-BoldMT-32" transform="translate(119.482422 0)"/>
     <use xlink:href="#Arial-BoldMT-35" transform="translate(175.097656 0)"/>
     <use xlink:href="#Arial-BoldMT-30" transform="translate(230.712891 0)"/>
    </g>
   </g>
   <g id="text_19">
    <!-- n=586 -->
    <g style="opacity: 0.8" transform="translate(388.989531 559.379715) scale(0.12 -0.12)">
     <defs>
      <path id="Arial-BoldMT-38" d="M 1025 2472 
Q 684 2616 529 2867 
Q 375 3119 375 3419 
Q 375 3931 733 4265 
Q 1091 4600 1750 4600 
Q 2403 4600 2764 4265 
Q 3125 3931 3125 3419 
Q 3125 3100 2959 2851 
Q 2794 2603 2494 2472 
Q 2875 2319 3073 2025 
Q 3272 1731 3272 1347 
Q 3272 713 2867 316 
Q 2463 -81 1791 -81 
Q 1166 -81 750 247 
Q 259 634 259 1309 
Q 259 1681 443 1992 
Q 628 2303 1025 2472 
z
M 1206 3356 
Q 1206 3094 1354 2947 
Q 1503 2800 1750 2800 
Q 2000 2800 2150 2948 
Q 2300 3097 2300 3359 
Q 2300 3606 2151 3754 
Q 2003 3903 1759 3903 
Q 1506 3903 1356 3753 
Q 1206 3603 1206 3356 
z
M 1125 1394 
Q 1125 1031 1311 828 
Q 1497 625 1775 625 
Q 2047 625 2225 820 
Q 2403 1016 2403 1384 
Q 2403 1706 2222 1901 
Q 2041 2097 1763 2097 
Q 1441 2097 1283 1875 
Q 1125 1653 1125 1394 
z
" transform="scale(0.015625)"/>
      <path id="Arial-BoldMT-36" d="M 3247 3459 
L 2397 3366 
Q 2366 3628 2234 3753 
Q 2103 3878 1894 3878 
Q 1616 3878 1423 3628 
Q 1231 3378 1181 2588 
Q 1509 2975 1997 2975 
Q 2547 2975 2939 2556 
Q 3331 2138 3331 1475 
Q 3331 772 2918 347 
Q 2506 -78 1859 -78 
Q 1166 -78 719 461 
Q 272 1000 272 2228 
Q 272 3488 737 4044 
Q 1203 4600 1947 4600 
Q 2469 4600 2811 4308 
Q 3153 4016 3247 3459 
z
M 1256 1544 
Q 1256 1116 1453 883 
Q 1650 650 1903 650 
Q 2147 650 2309 840 
Q 2472 1031 2472 1466 
Q 2472 1913 2297 2120 
Q 2122 2328 1859 2328 
Q 1606 2328 1431 2129 
Q 1256 1931 1256 1544 
z
" transform="scale(0.015625)"/>
     </defs>
     <use xlink:href="#Arial-BoldMT-6e"/>
     <use xlink:href="#Arial-BoldMT-3d" transform="translate(61.083984 0)"/>
     <use xlink:href="#Arial-BoldMT-35" transform="translate(119.482422 0)"/>
     <use xlink:href="#Arial-BoldMT-38" transform="translate(175.097656 0)"/>
     <use xlink:href="#Arial-BoldMT-36" transform="translate(230.712891 0)"/>
    </g>
   </g>
   <g id="text_20">
    <!-- n=594 -->
    <g style="opacity: 0.8" transform="translate(624.126719 559.379715) scale(0.12 -0.12)">
     <defs>
      <path id="Arial-BoldMT-39" d="M 291 1059 
L 1141 1153 
Q 1172 894 1303 769 
Q 1434 644 1650 644 
Q 1922 644 2112 894 
Q 2303 1144 2356 1931 
Q 2025 1547 1528 1547 
Q 988 1547 595 1964 
Q 203 2381 203 3050 
Q 203 3747 617 4173 
Q 1031 4600 1672 4600 
Q 2369 4600 2816 4061 
Q 3263 3522 3263 2288 
Q 3263 1031 2797 475 
Q 2331 -81 1584 -81 
Q 1047 -81 715 205 
Q 384 491 291 1059 
z
M 2278 2978 
Q 2278 3403 2083 3637 
Q 1888 3872 1631 3872 
Q 1388 3872 1227 3680 
Q 1066 3488 1066 3050 
Q 1066 2606 1241 2398 
Q 1416 2191 1678 2191 
Q 1931 2191 2104 2391 
Q 2278 2591 2278 2978 
z
" transform="scale(0.015625)"/>
      <path id="Arial-BoldMT-34" d="M 1994 0 
L 1994 922 
L 119 922 
L 119 1691 
L 2106 4600 
L 2844 4600 
L 2844 1694 
L 3413 1694 
L 3413 922 
L 2844 922 
L 2844 0 
L 1994 0 
z
M 1994 1694 
L 1994 3259 
L 941 1694 
L 1994 1694 
z
" transform="scale(0.015625)"/>
     </defs>
     <use xlink:href="#Arial-BoldMT-6e"/>
     <use xlink:href="#Arial-BoldMT-3d" transform="translate(61.083984 0)"/>
     <use xlink:href="#Arial-BoldMT-35" transform="translate(119.482422 0)"/>
     <use xlink:href="#Arial-BoldMT-39" transform="translate(175.097656 0)"/>
     <use xlink:href="#Arial-BoldMT-34" transform="translate(230.712891 0)"/>
    </g>
   </g>
   <g id="text_21">
    <!-- n=98 -->
    <g style="opacity: 0.8" transform="translate(862.600469 559.379715) scale(0.12 -0.12)">
     <use xlink:href="#Arial-BoldMT-6e"/>
     <use xlink:href="#Arial-BoldMT-3d" transform="translate(61.083984 0)"/>
     <use xlink:href="#Arial-BoldMT-39" transform="translate(119.482422 0)"/>
     <use xlink:href="#Arial-BoldMT-38" transform="translate(175.097656 0)"/>
    </g>
   </g>
   <g id="text_22">
    <!-- Box Plot: ESM1b: Average Pathogenicity by Prediction Class (11AA) -->
    <g style="fill: #262626" transform="translate(135.900625 24.67125) scale(0.24 -0.24)">
     <defs>
      <path id="Arial-BoldMT-42" d="M 469 4581 
L 2300 4581 
Q 2844 4581 3111 4536 
Q 3378 4491 3589 4347 
Q 3800 4203 3940 3964 
Q 4081 3725 4081 3428 
Q 4081 3106 3907 2837 
Q 3734 2569 3438 2434 
Q 3856 2313 4081 2019 
Q 4306 1725 4306 1328 
Q 4306 1016 4161 720 
Q 4016 425 3764 248 
Q 3513 72 3144 31 
Q 2913 6 2028 0 
L 469 0 
L 469 4581 
z
M 1394 3819 
L 1394 2759 
L 2000 2759 
Q 2541 2759 2672 2775 
Q 2909 2803 3045 2939 
Q 3181 3075 3181 3297 
Q 3181 3509 3064 3642 
Q 2947 3775 2716 3803 
Q 2578 3819 1925 3819 
L 1394 3819 
z
M 1394 1997 
L 1394 772 
L 2250 772 
Q 2750 772 2884 800 
Q 3091 838 3220 983 
Q 3350 1128 3350 1372 
Q 3350 1578 3250 1722 
Q 3150 1866 2961 1931 
Q 2772 1997 2141 1997 
L 1394 1997 
z
" transform="scale(0.015625)"/>
      <path id="Arial-BoldMT-78" d="M 38 0 
L 1234 1709 
L 88 3319 
L 1159 3319 
L 1747 2406 
L 2366 3319 
L 3397 3319 
L 2272 1747 
L 3500 0 
L 2422 0 
L 1747 1028 
L 1066 0 
L 38 0 
z
" transform="scale(0.015625)"/>
      <path id="Arial-BoldMT-3a" d="M 628 2441 
L 628 3319 
L 1506 3319 
L 1506 2441 
L 628 2441 
z
M 628 0 
L 628 878 
L 1506 878 
L 1506 0 
L 628 0 
z
" transform="scale(0.015625)"/>
      <path id="Arial-BoldMT-45" d="M 466 0 
L 466 4581 
L 3863 4581 
L 3863 3806 
L 1391 3806 
L 1391 2791 
L 3691 2791 
L 3691 2019 
L 1391 2019 
L 1391 772 
L 3950 772 
L 3950 0 
L 466 0 
z
" transform="scale(0.015625)"/>
      <path id="Arial-BoldMT-53" d="M 231 1491 
L 1131 1578 
Q 1213 1125 1461 912 
Q 1709 700 2131 700 
Q 2578 700 2804 889 
Q 3031 1078 3031 1331 
Q 3031 1494 2936 1608 
Q 2841 1722 2603 1806 
Q 2441 1863 1863 2006 
Q 1119 2191 819 2459 
Q 397 2838 397 3381 
Q 397 3731 595 4036 
Q 794 4341 1167 4500 
Q 1541 4659 2069 4659 
Q 2931 4659 3367 4281 
Q 3803 3903 3825 3272 
L 2900 3231 
Q 2841 3584 2645 3739 
Q 2450 3894 2059 3894 
Q 1656 3894 1428 3728 
Q 1281 3622 1281 3444 
Q 1281 3281 1419 3166 
Q 1594 3019 2269 2859 
Q 2944 2700 3267 2529 
Q 3591 2359 3773 2064 
Q 3956 1769 3956 1334 
Q 3956 941 3737 597 
Q 3519 253 3119 86 
Q 2719 -81 2122 -81 
Q 1253 -81 787 320 
Q 322 722 231 1491 
z
" transform="scale(0.015625)"/>
      <path id="Arial-BoldMT-4d" d="M 453 0 
L 453 4581 
L 1838 4581 
L 2669 1456 
L 3491 4581 
L 4878 4581 
L 4878 0 
L 4019 0 
L 4019 3606 
L 3109 0 
L 2219 0 
L 1313 3606 
L 1313 0 
L 453 0 
z
" transform="scale(0.015625)"/>
      <path id="Arial-BoldMT-31" d="M 2519 0 
L 1641 0 
L 1641 3309 
Q 1159 2859 506 2644 
L 506 3441 
Q 850 3553 1253 3867 
Q 1656 4181 1806 4600 
L 2519 4600 
L 2519 0 
z
" transform="scale(0.015625)"/>
      <path id="Arial-BoldMT-62" d="M 422 0 
L 422 4581 
L 1300 4581 
L 1300 2931 
Q 1706 3394 2263 3394 
Q 2869 3394 3266 2955 
Q 3663 2516 3663 1694 
Q 3663 844 3258 384 
Q 2853 -75 2275 -75 
Q 1991 -75 1714 67 
Q 1438 209 1238 488 
L 1238 0 
L 422 0 
z
M 1294 1731 
Q 1294 1216 1456 969 
Q 1684 619 2063 619 
Q 2353 619 2558 867 
Q 2763 1116 2763 1650 
Q 2763 2219 2556 2470 
Q 2350 2722 2028 2722 
Q 1713 2722 1503 2476 
Q 1294 2231 1294 1731 
z
" transform="scale(0.015625)"/>
     </defs>
     <use xlink:href="#Arial-BoldMT-42"/>
     <use xlink:href="#Arial-BoldMT-6f" transform="translate(72.216797 0)"/>
     <use xlink:href="#Arial-BoldMT-78" transform="translate(133.300781 0)"/>
     <use xlink:href="#Arial-BoldMT-20" transform="translate(188.916016 0)"/>
     <use xlink:href="#Arial-BoldMT-50" transform="translate(216.699219 0)"/>
     <use xlink:href="#Arial-BoldMT-6c" transform="translate(283.398438 0)"/>
     <use xlink:href="#Arial-BoldMT-6f" transform="translate(311.181641 0)"/>
     <use xlink:href="#Arial-BoldMT-74" transform="translate(372.265625 0)"/>
     <use xlink:href="#Arial-BoldMT-3a" transform="translate(405.566406 0)"/>
     <use xlink:href="#Arial-BoldMT-20" transform="translate(438.867188 0)"/>
     <use xlink:href="#Arial-BoldMT-45" transform="translate(466.650391 0)"/>
     <use xlink:href="#Arial-BoldMT-53" transform="translate(533.349609 0)"/>
     <use xlink:href="#Arial-BoldMT-4d" transform="translate(600.048828 0)"/>
     <use xlink:href="#Arial-BoldMT-31" transform="translate(683.349609 0)"/>
     <use xlink:href="#Arial-BoldMT-62" transform="translate(738.964844 0)"/>
     <use xlink:href="#Arial-BoldMT-3a" transform="translate(800.048828 0)"/>
     <use xlink:href="#Arial-BoldMT-20" transform="translate(833.349609 0)"/>
     <use xlink:href="#Arial-BoldMT-41" transform="translate(857.382812 0)"/>
     <use xlink:href="#Arial-BoldMT-76" transform="translate(925.849609 0)"/>
     <use xlink:href="#Arial-BoldMT-65" transform="translate(981.464844 0)"/>
     <use xlink:href="#Arial-BoldMT-72" transform="translate(1037.080078 0)"/>
     <use xlink:href="#Arial-BoldMT-61" transform="translate(1075.996094 0)"/>
     <use xlink:href="#Arial-BoldMT-67" transform="translate(1131.611328 0)"/>
     <use xlink:href="#Arial-BoldMT-65" transform="translate(1192.695312 0)"/>
     <use xlink:href="#Arial-BoldMT-20" transform="translate(1248.310547 0)"/>
     <use xlink:href="#Arial-BoldMT-50" transform="translate(1276.09375 0)"/>
     <use xlink:href="#Arial-BoldMT-61" transform="translate(1342.792969 0)"/>
     <use xlink:href="#Arial-BoldMT-74" transform="translate(1398.408203 0)"/>
     <use xlink:href="#Arial-BoldMT-68" transform="translate(1431.708984 0)"/>
     <use xlink:href="#Arial-BoldMT-6f" transform="translate(1492.792969 0)"/>
     <use xlink:href="#Arial-BoldMT-67" transform="translate(1553.876953 0)"/>
     <use xlink:href="#Arial-BoldMT-65" transform="translate(1614.960938 0)"/>
     <use xlink:href="#Arial-BoldMT-6e" transform="translate(1670.576172 0)"/>
     <use xlink:href="#Arial-BoldMT-69" transform="translate(1731.660156 0)"/>
     <use xlink:href="#Arial-BoldMT-63" transform="translate(1759.443359 0)"/>
     <use xlink:href="#Arial-BoldMT-69" transform="translate(1815.058594 0)"/>
     <use xlink:href="#Arial-BoldMT-74" transform="translate(1842.841797 0)"/>
     <use xlink:href="#Arial-BoldMT-79" transform="translate(1876.142578 0)"/>
     <use xlink:href="#Arial-BoldMT-20" transform="translate(1931.757812 0)"/>
     <use xlink:href="#Arial-BoldMT-62" transform="translate(1959.541016 0)"/>
     <use xlink:href="#Arial-BoldMT-79" transform="translate(2020.625 0)"/>
     <use xlink:href="#Arial-BoldMT-20" transform="translate(2076.240234 0)"/>
     <use xlink:href="#Arial-BoldMT-50" transform="translate(2104.023438 0)"/>
     <use xlink:href="#Arial-BoldMT-72" transform="translate(2170.722656 0)"/>
     <use xlink:href="#Arial-BoldMT-65" transform="translate(2209.638672 0)"/>
     <use xlink:href="#Arial-BoldMT-64" transform="translate(2265.253906 0)"/>
     <use xlink:href="#Arial-BoldMT-69" transform="translate(2326.337891 0)"/>
     <use xlink:href="#Arial-BoldMT-63" transform="translate(2354.121094 0)"/>
     <use xlink:href="#Arial-BoldMT-74" transform="translate(2409.736328 0)"/>
     <use xlink:href="#Arial-BoldMT-69" transform="translate(2443.037109 0)"/>
     <use xlink:href="#Arial-BoldMT-6f" transform="translate(2470.820312 0)"/>
     <use xlink:href="#Arial-BoldMT-6e" transform="translate(2531.904297 0)"/>
     <use xlink:href="#Arial-BoldMT-20" transform="translate(2592.988281 0)"/>
     <use xlink:href="#Arial-BoldMT-43" transform="translate(2620.771484 0)"/>
     <use xlink:href="#Arial-BoldMT-6c" transform="translate(2692.988281 0)"/>
     <use xlink:href="#Arial-BoldMT-61" transform="translate(2720.771484 0)"/>
     <use xlink:href="#Arial-BoldMT-73" transform="translate(2776.386719 0)"/>
     <use xlink:href="#Arial-BoldMT-73" transform="translate(2832.001953 0)"/>
     <use xlink:href="#Arial-BoldMT-20" transform="translate(2887.617188 0)"/>
     <use xlink:href="#Arial-BoldMT-28" transform="translate(2915.400391 0)"/>
     <use xlink:href="#Arial-BoldMT-31" transform="translate(2948.701172 0)"/>
     <use xlink:href="#Arial-BoldMT-31" transform="translate(2998.816406 0)"/>
     <use xlink:href="#Arial-BoldMT-41" transform="translate(3054.431641 0)"/>
     <use xlink:href="#Arial-BoldMT-41" transform="translate(3126.648438 0)"/>
     <use xlink:href="#Arial-BoldMT-29" transform="translate(3198.865234 0)"/>
    </g>
   </g>
  </g>
 </g>
 <defs>
  <clipPath id="p4436392caf">
   <rect x="53.4625" y="45.155157" width="940.54875" height="482.7969"/>
  </clipPath>
 </defs>
</svg>
